<svg width="901" height="393" viewBox="0 0 901 393" fill="none" xmlns="http://www.w3.org/2000/svg">
<g clip-path="url(#clip0_1639_2978)">
<path d="M0 81.45C0 81.45 20.2 264.19 264.2 272.95L263.47 392.88C263.47 392.88 33.67 347.44 0 158.27V81.45Z" fill="url(#paint0_linear_1639_2978)"/>
<path d="M900 81.45C900 81.45 879.84 264.19 636.41 272.95L637.14 392.88C637.14 392.88 866.41 347.44 900 158.28V81.46V81.45Z" fill="url(#paint1_linear_1639_2978)"/>
<path opacity="0.89" d="M0.529785 0C0.529785 0 17.9498 168.78 228.31 176.21L227.68 246.75C227.68 246.75 29.5598 225.43 0.529785 65.1V0Z" fill="url(#paint2_radial_1639_2978)"/>
<path opacity="0.89" d="M900.53 8.68994C900.53 8.68994 883.15 183.49 673.27 191.18L673.9 264.24C673.9 264.24 871.57 242.16 900.53 76.1199V8.68994Z" fill="url(#paint3_radial_1639_2978)"/>
</g>
<defs>
<linearGradient id="paint0_linear_1639_2978" x1="0" y1="236.218" x2="264.2" y2="236.218" gradientUnits="userSpaceOnUse">
<stop offset="0.11" stop-color="#ED2E7B"/>
<stop offset="0.16" stop-color="#ED2E7B" stop-opacity="0.93"/>
<stop offset="0.4" stop-color="#ED2E7B" stop-opacity="0.6"/>
<stop offset="0.61" stop-color="#ED2E7B" stop-opacity="0.34"/>
<stop offset="0.78" stop-color="#ED2E7B" stop-opacity="0.16"/>
<stop offset="0.92" stop-color="#ED2E7B" stop-opacity="0.04"/>
<stop offset="1" stop-color="#ED2E7B" stop-opacity="0"/>
</linearGradient>
<linearGradient id="paint1_linear_1639_2978" x1="636.41" y1="236.218" x2="900" y2="236.218" gradientUnits="userSpaceOnUse">
<stop stop-color="#ED2E7B" stop-opacity="0"/>
<stop offset="0.08" stop-color="#ED2E7B" stop-opacity="0.04"/>
<stop offset="0.22" stop-color="#ED2E7B" stop-opacity="0.16"/>
<stop offset="0.39" stop-color="#ED2E7B" stop-opacity="0.34"/>
<stop offset="0.6" stop-color="#ED2E7B" stop-opacity="0.6"/>
<stop offset="0.84" stop-color="#ED2E7B" stop-opacity="0.93"/>
<stop offset="0.89" stop-color="#ED2E7B"/>
</linearGradient>
<radialGradient id="paint2_radial_1639_2978" cx="0" cy="0" r="1" gradientUnits="userSpaceOnUse" gradientTransform="translate(446.2 183.078) scale(458.7 385.308)">
<stop offset="0.56" stop-color="#CDF425" stop-opacity="0"/>
<stop offset="0.75" stop-color="#CDF425" stop-opacity="0.46"/>
<stop offset="0.92" stop-color="#CDF425" stop-opacity="0.85"/>
<stop offset="1" stop-color="#CDF425"/>
</radialGradient>
<radialGradient id="paint3_radial_1639_2978" cx="0" cy="0" r="1" gradientUnits="userSpaceOnUse" gradientTransform="translate(446.2 198.31) scale(458.7 399.069)">
<stop offset="0.56" stop-color="#CDF425" stop-opacity="0"/>
<stop offset="0.75" stop-color="#CDF425" stop-opacity="0.46"/>
<stop offset="0.92" stop-color="#CDF425" stop-opacity="0.85"/>
<stop offset="1" stop-color="#CDF425"/>
</radialGradient>
<clipPath id="clip0_1639_2978">
<rect width="900.53" height="392.87" fill="white"/>
</clipPath>
</defs>
</svg>
