<svg width="1242" height="884" viewBox="0 0 1242 884" fill="none" xmlns="http://www.w3.org/2000/svg">
<g opacity="0.4">
<mask id="mask0_1607_1644" style="mask-type:luminance" maskUnits="userSpaceOnUse" x="0" y="0" width="1242" height="884">
<path d="M1241.87 5.99821L3.62793 0.974808L0.0661524 878.937L1238.31 883.961L1241.87 5.99821Z" fill="white"/>
</mask>
<g mask="url(#mask0_1607_1644)">
<path d="M533.824 418.86L408.594 549.17C407.214 550.6 404.944 550.65 403.514 549.27C402.084 547.89 402.034 545.62 403.414 544.19C403.464 544.13 533.754 418.93 533.834 418.86H533.824Z" fill="url(#paint0_linear_1607_1644)"/>
<path d="M964.113 469.84L838.883 600.15C837.503 601.58 835.233 601.63 833.803 600.25C832.373 598.87 832.323 596.6 833.703 595.17C833.753 595.11 964.043 469.91 964.123 469.84H964.113Z" fill="url(#paint1_linear_1607_1644)"/>
<path d="M1100.51 341.03L975.283 471.34C973.903 472.77 971.633 472.82 970.203 471.44C968.773 470.06 968.723 467.79 970.103 466.36C970.153 466.3 1100.44 341.1 1100.52 341.03H1100.51Z" fill="url(#paint2_linear_1607_1644)"/>
<path d="M976.873 473.9C974.363 476.52 970.203 476.6 967.583 474.08C964.963 471.57 964.883 467.41 967.403 464.79L976.873 473.89V473.9Z" fill="url(#paint3_linear_1607_1644)"/>
<path d="M428.183 621.91L356.493 696.51C355.703 697.33 354.403 697.36 353.583 696.57C352.763 695.78 352.733 694.48 353.523 693.66C353.553 693.63 428.133 621.96 428.173 621.92L428.183 621.91Z" fill="url(#paint4_linear_1607_1644)"/>
<path style="mix-blend-mode:screen" opacity="0.2" d="M758.837 376.412C835.227 300.022 835.227 176.168 758.837 99.7778C682.446 23.3873 558.593 23.3873 482.202 99.7777C405.812 176.168 405.812 300.022 482.202 376.412C558.593 452.803 682.446 452.803 758.837 376.412Z" fill="url(#paint5_linear_1607_1644)"/>
<path style="mix-blend-mode:screen" opacity="0.2" d="M748.068 365.643C818.51 295.2 818.51 180.99 748.068 110.547C677.625 40.1042 563.415 40.1042 492.972 110.547C422.529 180.99 422.529 295.2 492.972 365.643C563.415 436.086 677.625 436.086 748.068 365.643Z" fill="url(#paint6_linear_1607_1644)"/>
<path d="M735.694 353.268C799.302 289.66 799.302 186.53 735.694 122.921C672.085 59.3127 568.955 59.3127 505.346 122.921C441.738 186.53 441.738 289.66 505.346 353.268C568.955 416.877 672.085 416.877 735.694 353.268Z" fill="url(#paint7_linear_1607_1644)"/>
<path d="M503.513 312.27C519.403 318.86 533.583 330.68 550.703 332.34C558.163 333.07 566.453 331.99 572.433 336.5C578.183 340.83 579.963 349.16 585.993 353.08C593.983 358.27 605.203 353.3 613.893 357.22C620.303 360.12 623.673 367.02 627.953 372.6C636.363 383.55 648.793 389.72 661.433 395.79C648.363 399.17 634.653 400.97 620.513 400.97C554.213 400.97 497.173 361.35 471.753 304.51C482.623 306.02 493.403 308.08 503.503 312.27H503.513ZM612.693 400.79C606.073 395.91 598.523 392.29 590.543 390.28C584.803 388.84 578.864 388.2 573.284 386.24C568.654 384.61 564.393 382.11 560.123 379.69C547.763 372.69 533.733 363.42 520.023 359.48C516.223 358.39 514.173 359.03 513.273 360.67C540.093 384.16 574.683 398.98 612.693 400.78V400.79ZM573.633 295.94C551.613 285.43 526.243 282.94 504.913 271.09C521.323 270.51 541.603 268.85 556.763 276.02C562.193 278.59 567.014 282.28 571.784 285.94C578.974 291.45 586.164 296.96 593.344 302.47C586.354 302.72 579.943 298.96 573.633 295.94ZM747.393 340.23C744.793 343.45 742.073 346.58 739.243 349.59C739.073 349.51 738.894 349.42 738.714 349.34C735.234 347.86 731.143 348.36 727.703 349.93C725.273 351.04 723.073 352.65 720.543 353.51C718.013 354.36 714.883 354.26 713.063 352.31C711.243 350.35 711.363 347.27 712.103 344.7C714.023 338.04 731.083 321.2 737.363 332.12C738.133 333.45 738.193 335.12 739.073 336.38C739.903 337.57 741.323 338.2 742.683 338.71C744.223 339.29 745.793 339.79 747.383 340.23H747.393ZM783.353 234.31C783.383 235.57 783.404 236.83 783.404 238.1C783.404 239.51 783.383 240.92 783.353 242.32C783.353 242.61 783.333 242.89 783.323 243.18C783.293 244.3 783.253 245.41 783.193 246.53C783.183 246.73 783.164 246.94 783.154 247.14C783.084 248.33 783.013 249.53 782.923 250.72C782.923 250.84 782.903 250.95 782.893 251.07C782.793 252.34 782.683 253.61 782.553 254.88C782.553 254.93 782.544 254.98 782.534 255.02C781.964 260.49 781.133 265.88 780.043 271.18C767.633 268.89 754.393 275.7 741.353 276.18C733.733 276.46 726.233 274.54 718.663 273.67C707.123 272.35 695.464 273.45 683.904 274.56C678.744 275.05 673.493 275.57 668.683 277.51C663.743 279.5 659.513 282.9 654.883 285.55C643.133 292.28 628.613 293.99 615.613 290.18C612.033 289.13 608.543 287.66 605.573 285.4C601.923 282.62 599.233 278.78 595.893 275.64C587.573 267.8 575.923 264.8 564.813 262.08C547.933 257.95 531.023 253.82 513.833 251.26C504.373 249.85 494.694 248.89 485.904 245.13C477.114 241.37 469.153 234.18 467.313 224.8C500.803 240.86 541.733 226.58 577.133 237.83C587.543 241.14 597.374 246.64 608.214 248C618.754 249.32 629.323 246.62 639.813 244.88C653.903 242.55 668.213 241.95 682.483 241.71C705.063 241.33 727.663 241.83 750.203 243.2C755.253 243.51 762.433 241.67 761.543 236.7C760.913 233.17 756.453 232.03 752.863 231.89C742.723 231.49 732.563 232.97 722.433 232.27C709.433 231.37 696.983 226.92 684.723 222.51C676.443 219.53 668.173 216.56 659.893 213.58C656.933 212.52 653.613 208.53 656.413 207.09C673.363 210.48 689.953 215.67 705.803 222.56C708.333 223.66 712.124 224.32 713.094 221.74C713.644 220.28 712.774 218.7 711.844 217.46C704.194 207.23 690.943 203 678.333 200.91C665.733 198.82 652.603 198.19 641.043 192.74C632.643 188.78 625.314 182.36 616.284 180.21C605.454 177.63 593.043 181.41 583.583 175.54C580.573 173.67 578.163 170.96 575.233 168.96C570.413 165.67 564.503 164.51 558.793 163.32C536.863 158.74 515.263 152.62 494.183 145.03C492.313 144.36 490.373 143.58 488.523 142.64C491.073 139.11 493.774 135.69 496.594 132.39C496.644 132.33 496.693 132.27 496.743 132.22C497.333 131.53 497.933 130.84 498.543 130.16C498.733 129.94 498.933 129.72 499.123 129.5C499.673 128.88 500.233 128.27 500.803 127.66C501.053 127.39 501.303 127.12 501.553 126.85C502.103 126.27 502.643 125.68 503.203 125.11C503.453 124.85 503.713 124.59 503.973 124.32C504.543 123.73 505.123 123.14 505.703 122.56C506.213 122.84 506.723 123.12 507.243 123.37C516.303 127.74 526.943 126.25 536.973 127.11C563.833 129.41 585.853 148.52 610.643 159.1C635.493 169.7 663.113 171.65 689.003 179.37C707.133 184.77 724.793 193.07 743.693 193.72C754.583 194.09 765.293 191.88 775.803 188.81C776.063 189.63 776.313 190.46 776.563 191.29C776.643 191.56 776.723 191.83 776.803 192.1C777.043 192.9 777.273 193.71 777.493 194.52C777.553 194.75 777.623 194.99 777.683 195.22C778.373 197.76 779.003 200.32 779.573 202.91C779.663 203.32 779.754 203.74 779.844 204.15C779.994 204.85 780.133 205.56 780.273 206.26C780.373 206.74 780.463 207.23 780.553 207.72C780.683 208.39 780.803 209.06 780.923 209.73C781.103 210.78 781.283 211.83 781.443 212.89C781.533 213.45 781.603 214.01 781.683 214.56C781.783 215.23 781.874 215.89 781.964 216.56C782.034 217.11 782.103 217.66 782.173 218.22C782.263 218.95 782.343 219.68 782.423 220.41C782.473 220.89 782.533 221.37 782.573 221.85C782.693 223.03 782.793 224.21 782.883 225.39C782.903 225.68 782.923 225.98 782.943 226.27C783.013 227.23 783.073 228.2 783.123 229.17C783.143 229.59 783.163 230.02 783.183 230.45C783.223 231.34 783.254 232.23 783.284 233.12C783.294 233.51 783.313 233.9 783.313 234.29L783.353 234.31ZM617.073 75.27C618.223 75.25 619.373 75.2299 620.523 75.2299C621.773 75.2299 623.023 75.2499 624.273 75.2799C624.613 75.2799 624.953 75.2999 625.303 75.3099C626.323 75.3399 627.353 75.3799 628.373 75.4299C628.613 75.4399 628.863 75.45 629.103 75.46C630.313 75.52 631.523 75.5999 632.733 75.6899C633.063 75.7099 633.393 75.74 633.723 75.77C634.653 75.84 635.583 75.93 636.513 76.02C636.863 76.05 637.223 76.0899 637.573 76.1199C638.743 76.2399 639.903 76.37 641.063 76.52C641.363 76.56 641.673 76.5999 641.973 76.6399C642.873 76.7599 643.764 76.8799 644.654 77.0099C645.084 77.0699 645.513 77.1399 645.933 77.1999C646.843 77.3399 647.763 77.4899 648.663 77.6499C649.083 77.7199 649.513 77.8 649.933 77.88C650.863 78.05 651.793 78.23 652.723 78.41C653.213 78.51 653.703 78.61 654.193 78.71C654.883 78.86 655.573 79.01 656.263 79.16C656.743 79.27 657.223 79.3699 657.703 79.4799C658.703 79.7099 659.703 79.96 660.693 80.21C661.253 80.35 661.803 80.4999 662.353 80.6499C662.913 80.7999 663.463 80.95 664.013 81.1C664.603 81.26 665.193 81.43 665.773 81.6C666.323 81.76 666.864 81.9199 667.404 82.0899C668.424 82.3999 669.444 82.7099 670.464 83.0399C670.884 83.1799 671.303 83.3099 671.723 83.4499C672.393 83.6699 673.063 83.9 673.723 84.13C674.063 84.25 674.403 84.37 674.733 84.49C676.093 84.97 677.453 85.47 678.803 85.99C678.973 86.06 679.153 86.1199 679.323 86.1899C680.063 86.4799 680.803 86.77 681.543 87.07C681.773 87.16 682.013 87.2599 682.243 87.3599C684.613 88.3299 686.943 89.3499 689.253 90.4299C689.383 90.4899 689.513 90.5499 689.643 90.6099C695.443 93.3399 701.063 96.3899 706.473 99.7599C701.663 100.05 696.833 99.9699 692.023 99.3699C679.133 97.7599 667.143 92.55 654.993 88.27C649.463 86.32 643.863 84.4899 638.113 83.2999C632.693 82.1699 624.814 83.38 619.904 81.27C616.964 80.01 615.833 77.7799 615.853 75.3099C616.253 75.2999 616.653 75.2899 617.053 75.2799L617.073 75.27ZM565.703 105.64C576.723 110.92 590.143 113.43 601.863 116.92C614.323 120.63 626.813 124.24 639.323 127.76C651.833 131.28 664.373 134.71 676.943 138.04C688.373 141.07 702.934 147.56 714.714 147.75C697.804 147.48 680.893 147.2 663.993 146.93C655.733 146.8 647.383 146.65 639.373 144.65C620.343 139.9 604.973 125.21 585.943 120.44C582.623 119.61 579.113 119.04 576.323 117.06C572.013 114 570.073 108.66 565.703 105.64ZM638.643 321.61C633.913 320.04 629.863 314.45 632.443 310.18C634.783 306.31 640.313 306.53 644.833 306.78C651.473 307.14 658.443 306.41 664.043 302.83C666.413 301.32 668.453 299.35 670.633 297.57C676.903 292.48 684.493 289.02 692.423 287.5C697.813 286.47 702.993 285.31 699.893 291.52C693.443 304.46 672.623 312.21 660.393 317.73C653.513 320.83 645.813 323.98 638.643 321.61Z" fill="url(#paint8_linear_1607_1644)"/>
<path d="M630.614 400.66C625.094 399.55 615.434 394.76 575.434 374.93C509.404 342.2 505.634 345.33 503.344 351.22C491.794 339.26 482.074 325.54 474.594 310.5C484.134 313.47 485.554 324.57 499.024 325.43C513.274 326.34 511.564 332.15 523.754 333.85C586.854 342.64 632.544 398.19 643.934 399.29C639.554 399.92 635.104 400.38 630.614 400.65V400.66ZM767.814 282.14C761.754 281.08 749.644 281.72 726.384 290.71C717.154 294.28 686.004 308.19 672.544 337.27C662.344 359.32 664.044 387.28 680.584 388.48C681.784 388.52 682.864 388.41 683.834 388.22C694.204 383.84 704.014 378.41 713.164 372.08C705.354 373.85 688.754 364.02 692.014 350.51C697.204 329 744.584 304.46 751.074 314.33C754.454 319.48 745.624 330.81 753.524 330.92C753.674 331.08 753.854 331.3 754.004 331.47C761.244 321.14 767.324 309.93 772.034 298.03C770.524 292.59 775.464 283.48 767.824 282.15L767.814 282.14ZM479.434 206.32C484.504 211.25 487.884 214.24 498.464 218.39C502.224 219.63 507.914 221.5 517.184 222.51C535.974 224.56 539.644 220.8 543.194 217.17C546.724 213.56 550.374 209.82 561.384 212.81C582.354 218.49 601.094 231.4 623.634 232.03C630.454 232.22 639.314 228.91 642.284 222.4C648.594 208.58 622.684 196.78 622.414 196.66C622.064 196.51 621.584 196.32 621.224 196.19C618.014 195.1 615.514 195.95 613.104 196.77C609.794 197.9 602.044 200.54 589.144 195.97C570.384 189.32 556.844 173.09 537.354 167.79C533.934 166.86 527.044 165.73 519.344 168.6C507.424 173.047 499.57 174.397 495.784 172.65C486.904 168.56 488.964 157.35 482.394 151.75C475.584 162.61 470.024 174.34 465.914 186.72C471.094 192.78 473.634 200.67 479.434 206.31V206.32ZM493.744 290.89C498.224 291.46 514.734 294.31 539.024 307.33C608.844 344.74 619.574 350.49 629.434 343.4C631.424 341.97 635.134 337.99 626.644 331.89C620.914 327.77 613.864 328.17 607.484 326.28C597.234 323.25 591.314 313.73 581.994 309.3C577.444 307.14 515.704 282.23 492.614 278.38C484.004 276.94 475.174 280.93 466.654 277.35C464.234 275.69 462.424 273.54 461.064 271.32C462.944 280.39 465.574 289.19 468.894 297.64C471.964 295.66 473.864 292.09 477.604 291.03C478.484 290.78 483.424 289.59 493.774 290.9L493.744 290.89ZM738.094 350.58C738.324 350.43 738.534 350.29 738.724 350.16C739.054 349.81 739.374 349.46 739.704 349.11C739.184 349.6 738.644 350.09 738.094 350.58ZM782.564 254.61C774.324 253.46 683.844 241.67 638.844 259.63C615.934 268.78 606.384 269.21 582.834 254.85C567.32 245.39 547.54 240.25 523.494 239.43C489.094 238.26 476.514 225.27 469.764 218.29C464.874 213.24 464.444 213.09 462.064 212.21C461.094 212.73 460.174 213.49 459.344 214.44C458.214 222.17 457.624 230.07 457.624 238.11C457.624 239.63 457.644 241.14 457.694 242.65C461.494 250.71 469.204 258.19 482.624 262.01C490.774 264.33 497.644 264.2 509.084 263.07C524.064 261.59 525.334 261.57 533.604 261.45C561.944 261.05 578.644 274.3 589.694 283.07C602.054 292.88 609.504 298.55 618.894 300.95C658.184 311 667.204 258.86 702.334 260.34C717.844 260.99 731.644 269.64 747.214 269.99C757.874 270.23 765.704 259.98 776.854 262.01C778.984 262.4 780.634 263.26 780.454 268.97C781.354 264.25 782.074 259.46 782.554 254.61H782.564ZM551.164 91.38C551.714 91.6 552.434 91.9299 553.004 92.1099L658.144 122.92C685.137 130.487 699.137 134.437 700.144 134.77C714.164 139.39 726.824 147.45 741.264 151.01C749.954 153.15 753.624 148.51 753.734 144.38C749.714 138.68 745.344 133.26 740.654 128.13C739.064 127.38 738.984 127.4 738.754 127.47C736.624 132.35 736.114 133.51 731.364 132.76C704.364 124.79 684.804 102.28 657.464 94.9799C644.184 91.4399 628.674 90.88 608.214 90.49C589.344 90.13 568.084 89.7099 561.594 86.2599C557.894 87.6999 554.264 89.26 550.714 90.96C550.894 91.11 551.064 91.2699 551.224 91.3999L551.164 91.38ZM502.504 132.56C515.734 135.36 530.634 128 542.494 139.13C559.624 155.2 564.234 159.52 587.794 165.27C617.974 172.63 649.024 176.18 678.554 186.33C702.654 194.61 725.634 206.19 750.864 211.18C773.674 215.69 778.694 207.58 778.674 199.11C776.814 191.56 774.434 184.21 771.564 177.12C770.924 179.16 768.724 182.02 759.254 180.58C758.494 180.46 757.474 180.31 756.714 180.16C756.567 180.133 741.5 175.883 711.514 167.41C682.044 159.08 651.134 159.85 621.414 153.07C600.584 148.32 585.504 131.93 565.494 125.51C549.084 120.25 531.444 124.08 515.064 118.62C514.234 118.34 513.074 117.67 512.754 116.86C512.664 116.64 512.644 116.36 512.644 116.08C509.524 118.84 506.504 121.72 503.604 124.71C501.274 128.13 500.134 131.35 502.484 132.57L502.504 132.56Z" fill="url(#paint9_linear_1607_1644)"/>
<path style="mix-blend-mode:screen" d="M620.524 400.98C710.48 400.98 783.404 328.056 783.404 238.1C783.404 148.144 710.48 75.2199 620.524 75.2199C530.567 75.2199 457.644 148.144 457.644 238.1C457.644 328.056 530.567 400.98 620.524 400.98Z" fill="url(#paint10_radial_1607_1644)"/>
<path d="M661.344 407.506C726.963 389.099 778.591 368.59 776.657 361.698C774.724 354.806 719.962 364.142 654.343 382.55C588.724 400.957 537.097 421.466 539.03 428.358C540.963 435.249 595.725 425.914 661.344 407.506Z" fill="url(#paint11_radial_1607_1644)"/>
<path d="M638.753 415.78C636.383 413.6 643.013 402.55 653.553 391.09C664.093 379.63 674.553 372.11 676.923 374.29C679.293 376.47 672.663 387.52 662.123 398.98C651.583 410.44 641.123 417.96 638.753 415.78Z" fill="url(#paint12_radial_1607_1644)"/>
<path d="M660.403 423.11C657.203 423.4 653.453 411.07 652.043 395.57C650.633 380.07 652.073 367.26 655.283 366.97C658.483 366.68 662.233 379.01 663.643 394.51C665.053 410.01 663.613 422.82 660.403 423.11Z" fill="url(#paint13_radial_1607_1644)"/>
<path style="mix-blend-mode:screen" opacity="0.2" d="M241.333 540.56C299.848 540.56 347.283 493.125 347.283 434.61C347.283 376.095 299.848 328.66 241.333 328.66C182.819 328.66 135.383 376.095 135.383 434.61C135.383 493.125 182.819 540.56 241.333 540.56Z" fill="url(#paint14_linear_1607_1644)"/>
<path style="mix-blend-mode:screen" opacity="0.2" d="M241.333 527.27C292.508 527.27 333.993 485.785 333.993 434.61C333.993 383.435 292.508 341.95 241.333 341.95C190.159 341.95 148.673 383.435 148.673 434.61C148.673 485.785 190.159 527.27 241.333 527.27Z" fill="url(#paint15_linear_1607_1644)"/>
<path d="M241.333 515.37C285.936 515.37 322.093 479.212 322.093 434.61C322.093 390.007 285.936 353.85 241.333 353.85C196.731 353.85 160.573 390.007 160.573 434.61C160.573 479.212 196.731 515.37 241.333 515.37Z" fill="url(#paint16_linear_1607_1644)"/>
<path style="mix-blend-mode:overlay" opacity="0.4" d="M160.664 437.91C160.624 436.82 160.583 435.72 160.583 434.62C160.583 433.03 160.644 431.45 160.734 429.88C162.224 431.36 164.664 430.19 170.134 424.44C177.884 416.29 180.774 413.75 186.374 411.42C205.114 404.18 226.563 407.51 244.333 396.52C255.553 389.58 259.824 376.97 261.874 370.91C263.974 364.71 265.214 362.98 270.624 359.37C275.364 361.21 279.884 363.49 284.134 366.15C285.024 373.39 245.774 405.3 224.844 417.39C206.084 428.23 169.424 438.13 160.674 437.92L160.664 437.91ZM320.894 447.34C320.394 448.16 319.754 449.103 318.974 450.17C287.944 492.51 232.174 508.48 217.854 511.89C223.874 513.72 230.194 514.86 236.724 515.23C249.154 512.72 272.154 502.58 309.784 467.69C310.754 466.79 315.474 462.45 317.644 461.06C319.234 456.47 320.444 451.71 321.184 446.78C321.094 446.98 320.994 447.18 320.894 447.34ZM302.934 486.81C291.904 497.17 269.714 509.41 253.604 514.44C273.284 511.44 290.624 501.33 302.934 486.81ZM174.164 404.65C183.114 394.96 188.704 390.49 193.484 389.2C196.714 388.33 199.904 388.98 203.154 389.78C211.494 391.84 218.144 392.99 227.684 389.04C229.354 388.35 231.863 386.99 232.993 386.24C244.823 378.36 242.874 370.56 239.414 363.96C235.604 356.71 243.094 354.72 249.594 354.27C246.874 353.99 244.123 353.85 241.333 353.85C237.123 353.85 232.994 354.17 228.954 354.8C228.434 355.02 228.123 355.16 228.113 355.17C227.813 355.32 227.424 355.5 227.124 355.66C222.444 358.15 224.134 364.89 219.344 367.31C213.004 370.51 205.624 367.11 199.314 370.49C199.164 370.58 181.784 383.48 169.184 398.35C166.494 403.7 164.374 409.38 162.914 415.32C164.784 414.48 167.174 412.21 174.154 404.66L174.164 404.65ZM321.194 422.54C320.414 417.34 319.134 412.3 317.404 407.47C317.454 408.48 317.264 409.6 316.254 411.6C301.344 437.62 214.154 497.7 185.964 493.37C188.274 495.55 190.704 497.61 193.264 499.51C231.364 504.58 319.464 446.66 321.184 422.55L321.194 422.54ZM321.884 429.06C320.744 435.72 293.134 460.62 295.594 462.3C297.154 463.37 320.584 442.39 321.904 439.79C322.014 438.08 322.083 436.35 322.083 434.61C322.083 432.74 321.994 430.9 321.874 429.06H321.884ZM272.844 435.62C293.054 423.65 310.714 399.43 310.424 392.77C306.514 386.33 301.724 380.49 296.234 375.4C296.254 375.53 296.264 375.67 296.284 375.86C295.864 382.26 287.324 391.51 269.404 404.99C227.314 435.65 176.984 457.18 163.044 454.42C165.024 462.28 168.154 469.68 172.254 476.44C191.664 477 272.034 436.09 272.844 435.61V435.62Z" fill="url(#paint17_linear_1607_1644)"/>
<g style="mix-blend-mode:multiply" opacity="0.4">
<path d="M268.263 358.48C266.493 359.74 264.603 360.86 262.803 362.09C259.753 364.17 256.813 366.79 255.693 370.3C255.073 372.26 255.063 374.38 254.283 376.28C252.833 379.85 247.713 384.44 246.253 378.5C245.553 375.63 246.533 372.38 246.713 369.56C246.843 367.55 246.973 365.51 247.663 363.61C248.783 360.55 251.293 358.16 254.123 356.54C254.403 356.38 255.403 355.92 256.773 355.35C260.713 356.11 264.543 357.16 268.263 358.48ZM298.403 483.59C285.393 493.47 283.723 494.74 277.953 499.49C281.623 499.83 301.683 488.03 311.073 475.3C311.823 474.02 312.533 472.71 313.223 471.38C310.753 474.08 305.223 478.38 298.413 483.59H298.403ZM315.433 402.51C314.473 400.31 313.433 398.15 312.293 396.05C309.373 408.45 300.623 419.55 290.863 427.54C278.303 437.88 263.393 445.08 249.363 453.61C242.303 457.8 235.343 462.13 228.153 466.01C214.093 473.77 198.733 480.32 182.643 481.64C180.383 481.83 178.123 481.9 175.873 481.87C177.203 483.71 178.613 485.49 180.093 487.21C181.163 487.07 182.233 486.91 183.293 486.73C208.213 482.62 229.323 468.19 250.373 455.26C264.293 446.51 279.273 439.54 292.453 429.52C301.973 422.32 310.373 413.28 315.443 402.5L315.433 402.51ZM300.083 391.34C301.493 388.76 302.693 386.11 303.783 383.43C302.633 382.03 301.433 380.66 300.193 379.34C296.553 390.39 291.243 400.12 281.883 408.58C269.883 419.75 254.913 427.24 240.053 434.02C224.993 440.52 210.113 448.2 194.373 452.79C186.413 454.98 178.463 457.23 170.443 458.72C168.483 459.07 166.513 459.37 164.543 459.62C164.973 460.94 165.433 462.25 165.933 463.54C167.703 463.22 169.463 462.87 171.203 462.47C179.403 460.66 187.343 458.22 195.263 455.8C209.213 451.46 227.643 442.26 241.143 436.4C263.663 426.17 287.913 414.13 300.083 391.33V391.34Z" fill="#606060"/>
</g>
<path style="mix-blend-mode:screen" d="M298.432 491.712C329.97 460.173 329.97 409.039 298.432 377.5C266.893 345.962 215.758 345.962 184.22 377.5C152.681 409.039 152.681 460.173 184.22 491.712C215.758 523.251 266.893 523.251 298.432 491.712Z" fill="url(#paint18_radial_1607_1644)"/>
<path d="M721.813 454.96C741.679 454.96 757.783 448.853 757.783 441.32C757.783 433.787 741.679 427.68 721.813 427.68C701.948 427.68 685.843 433.787 685.843 441.32C685.843 448.853 701.948 454.96 721.813 454.96Z" fill="url(#paint19_radial_1607_1644)"/>
<path d="M721.813 477.29C729.347 477.29 735.453 461.186 735.453 441.32C735.453 421.454 729.347 405.35 721.813 405.35C714.28 405.35 708.173 421.454 708.173 441.32C708.173 461.186 714.28 477.29 721.813 477.29Z" fill="url(#paint20_radial_1607_1644)"/>
<path d="M889.363 689.46C902.044 689.46 912.323 685.56 912.323 680.75C912.323 675.94 902.044 672.04 889.363 672.04C876.683 672.04 866.403 675.94 866.403 680.75C866.403 685.56 876.683 689.46 889.363 689.46Z" fill="url(#paint21_radial_1607_1644)"/>
<path d="M889.363 703.71C894.174 703.71 898.073 693.43 898.073 680.75C898.073 668.069 894.174 657.79 889.363 657.79C884.553 657.79 880.653 668.069 880.653 680.75C880.653 693.43 884.553 703.71 889.363 703.71Z" fill="url(#paint22_radial_1607_1644)"/>
<path d="M343.343 581.02C356.024 581.02 366.303 577.12 366.303 572.31C366.303 567.5 356.024 563.6 343.343 563.6C330.663 563.6 320.383 567.5 320.383 572.31C320.383 577.12 330.663 581.02 343.343 581.02Z" fill="url(#paint23_radial_1607_1644)"/>
<path d="M343.343 595.27C348.154 595.27 352.053 584.99 352.053 572.31C352.053 559.629 348.154 549.35 343.343 549.35C338.533 549.35 334.633 559.629 334.633 572.31C334.633 584.99 338.533 595.27 343.343 595.27Z" fill="url(#paint24_radial_1607_1644)"/>
<path style="mix-blend-mode:screen" d="M228.893 685.04C223.153 693.52 215.663 698.47 212.163 696.1C208.663 693.73 210.473 684.93 216.203 676.45C221.943 667.97 229.433 663.02 232.933 665.39C236.433 667.76 234.623 676.56 228.893 685.04Z" fill="url(#paint25_radial_1607_1644)"/>
<path style="mix-blend-mode:screen" opacity="0.6" d="M226.843 674.4C235.323 680.14 240.273 687.63 237.903 691.13C235.533 694.63 226.733 692.82 218.253 687.09C209.773 681.35 204.823 673.86 207.193 670.36C209.563 666.86 218.363 668.67 226.843 674.4Z" fill="url(#paint26_radial_1607_1644)"/>
<path style="mix-blend-mode:screen" d="M557.034 457.82C551.294 466.3 543.804 471.25 540.304 468.88C536.804 466.51 538.614 457.71 544.344 449.23C550.084 440.75 557.574 435.8 561.074 438.17C564.574 440.54 562.764 449.34 557.034 457.82Z" fill="url(#paint27_radial_1607_1644)"/>
<path style="mix-blend-mode:screen" opacity="0.6" d="M554.983 447.18C563.463 452.92 568.413 460.41 566.043 463.91C563.673 467.41 554.873 465.6 546.393 459.87C537.913 454.13 532.963 446.64 535.333 443.14C537.703 439.64 546.503 441.45 554.983 447.18Z" fill="url(#paint28_radial_1607_1644)"/>
<path style="mix-blend-mode:screen" d="M919.434 333.79C913.694 342.27 906.203 347.22 902.703 344.85C899.203 342.48 901.013 333.68 906.743 325.2C912.483 316.72 919.973 311.77 923.473 314.14C926.973 316.51 925.164 325.31 919.434 333.79Z" fill="url(#paint29_radial_1607_1644)"/>
<path style="mix-blend-mode:screen" opacity="0.6" d="M917.383 323.15C925.863 328.89 930.813 336.38 928.443 339.88C926.073 343.38 917.273 341.57 908.793 335.84C900.313 330.1 895.363 322.61 897.733 319.11C900.103 315.61 908.903 317.42 917.383 323.15Z" fill="url(#paint30_radial_1607_1644)"/>
<path d="M826.283 505.77C826.283 505.16 826.783 504.66 827.393 504.66C828.003 504.66 828.503 505.16 828.503 505.77C828.503 506.38 828.003 506.88 827.393 506.88C826.783 506.88 826.283 506.38 826.283 505.77Z" fill="#808080"/>
<path d="M598.783 659.74C598.783 659.13 599.283 658.63 599.893 658.63C600.503 658.63 601.003 659.13 601.003 659.74C601.003 660.35 600.503 660.85 599.893 660.85C599.283 660.85 598.783 660.35 598.783 659.74Z" fill="#808080"/>
<path d="M786.663 525.3C787.602 525.3 788.363 524.539 788.363 523.6C788.363 522.661 787.602 521.9 786.663 521.9C785.724 521.9 784.963 522.661 784.963 523.6C784.963 524.539 785.724 525.3 786.663 525.3Z" fill="#808080"/>
<path d="M968.253 569.85C968.253 568.91 969.013 568.15 969.953 568.15C970.893 568.15 971.653 568.91 971.653 569.85C971.653 570.79 970.893 571.55 969.953 571.55C969.013 571.55 968.253 570.79 968.253 569.85Z" fill="#808080"/>
<path d="M581.974 629.62C581.974 628.46 582.914 627.51 584.084 627.51C585.254 627.51 586.194 628.45 586.194 629.62C586.194 630.79 585.254 631.73 584.084 631.73C582.914 631.73 581.974 630.79 581.974 629.62Z" fill="#808080"/>
<path d="M1001.62 495.1C1001.62 494.02 1002.5 493.14 1003.58 493.14C1004.66 493.14 1005.54 494.02 1005.54 495.1C1005.54 496.18 1004.66 497.06 1003.58 497.06C1002.5 497.06 1001.62 496.18 1001.62 495.1Z" fill="#808080"/>
<path d="M919.993 512.51C919.993 511.43 920.873 510.55 921.953 510.55C923.033 510.55 923.913 511.43 923.913 512.51C923.913 513.59 923.033 514.47 921.953 514.47C920.873 514.47 919.993 513.59 919.993 512.51Z" fill="#808080"/>
<path d="M611.133 591.44C611.133 590.36 612.013 589.48 613.093 589.48C614.173 589.48 615.053 590.36 615.053 591.44C615.053 592.52 614.173 593.4 613.093 593.4C612.013 593.4 611.133 592.52 611.133 591.44Z" fill="#808080"/>
<path d="M498.963 520.78C498.963 519.7 499.843 518.82 500.923 518.82C502.003 518.82 502.883 519.7 502.883 520.78C502.883 521.86 502.003 522.74 500.923 522.74C499.843 522.74 498.963 521.86 498.963 520.78Z" fill="#808080"/>
<path d="M1038.16 720.1C1038.16 718.93 1039.11 717.97 1040.29 717.97C1041.47 717.97 1042.42 718.92 1042.42 720.1C1042.42 721.28 1041.47 722.23 1040.29 722.23C1039.11 722.23 1038.16 721.28 1038.16 720.1Z" fill="#808080"/>
<path d="M1061.65 704.51C1061.65 703.89 1062.15 703.4 1062.76 703.4C1063.37 703.4 1063.87 703.9 1063.87 704.51C1063.87 705.12 1063.37 705.62 1062.76 705.62C1062.15 705.62 1061.65 705.12 1061.65 704.51Z" fill="#808080"/>
<path d="M1040.29 466.36C1040.29 464.48 1041.81 462.96 1043.69 462.96C1045.57 462.96 1047.09 464.48 1047.09 466.36C1047.09 468.24 1045.57 469.76 1043.69 469.76C1041.81 469.76 1040.29 468.24 1040.29 466.36Z" fill="#808080"/>
<path d="M965.474 701.14C965.474 700.41 966.064 699.82 966.794 699.82C967.524 699.82 968.114 700.41 968.114 701.14C968.114 701.87 967.524 702.46 966.794 702.46C966.064 702.46 965.474 701.87 965.474 701.14Z" fill="#808080"/>
<path d="M690.423 409.22C690.423 408.43 691.063 407.78 691.863 407.78C692.663 407.78 693.303 408.42 693.303 409.22C693.303 410.02 692.663 410.66 691.863 410.66C691.063 410.66 690.423 410.02 690.423 409.22Z" fill="#808080"/>
<path d="M825.514 266.88C825.514 265.23 826.854 263.9 828.494 263.9C830.134 263.9 831.474 265.24 831.474 266.88C831.474 268.52 830.134 269.86 828.494 269.86C826.854 269.86 825.514 268.52 825.514 266.88Z" fill="#808080"/>
<path d="M1065.09 264.01C1065.09 263.19 1065.76 262.52 1066.58 262.52C1067.4 262.52 1068.07 263.19 1068.07 264.01C1068.07 264.83 1067.4 265.5 1066.58 265.5C1065.76 265.5 1065.09 264.83 1065.09 264.01Z" fill="#808080"/>
<path d="M1026.05 343.88C1026.05 342.67 1027.03 341.68 1028.25 341.68C1029.47 341.68 1030.45 342.66 1030.45 343.88C1030.45 345.1 1029.47 346.08 1028.25 346.08C1027.03 346.08 1026.05 345.1 1026.05 343.88Z" fill="#808080"/>
<path d="M356.403 435.15C356.403 433.91 357.403 432.91 358.643 432.91C359.883 432.91 360.883 433.91 360.883 435.15C360.883 436.39 359.883 437.39 358.643 437.39C357.403 437.39 356.403 436.39 356.403 435.15Z" fill="#808080"/>
<path d="M195.233 284.57C195.233 282.99 196.513 281.71 198.093 281.71C199.673 281.71 200.953 282.99 200.953 284.57C200.953 286.15 199.673 287.43 198.093 287.43C196.513 287.43 195.233 286.15 195.233 284.57Z" fill="#808080"/>
<path d="M176.414 295.05C176.414 294.04 177.234 293.23 178.234 293.23C179.234 293.23 180.054 294.05 180.054 295.05C180.054 296.05 179.234 296.87 178.234 296.87C177.234 296.87 176.414 296.05 176.414 295.05Z" fill="#808080"/>
<path d="M310.854 377.23C310.854 376.06 311.804 375.12 312.964 375.12C314.124 375.12 315.074 376.07 315.074 377.23C315.074 378.39 314.124 379.34 312.964 379.34C311.804 379.34 310.854 378.39 310.854 377.23Z" fill="#808080"/>
<path d="M443.264 600.78C443.264 598.92 444.774 597.41 446.634 597.41C448.494 597.41 450.004 598.92 450.004 600.78C450.004 602.64 448.494 604.15 446.634 604.15C444.774 604.15 443.264 602.64 443.264 600.78Z" fill="#808080"/>
<path d="M610.753 528.97C612.04 528.97 613.083 527.927 613.083 526.64C613.083 525.353 612.04 524.31 610.753 524.31C609.467 524.31 608.423 525.353 608.423 526.64C608.423 527.927 609.467 528.97 610.753 528.97Z" fill="#808080"/>
<path d="M461.483 437.23C461.483 435.94 462.523 434.9 463.813 434.9C465.103 434.9 466.143 435.94 466.143 437.23C466.143 438.52 465.103 439.56 463.813 439.56C462.523 439.56 461.483 438.52 461.483 437.23Z" fill="#808080"/>
<path d="M324.204 469.76C324.204 468.47 325.244 467.43 326.534 467.43C327.824 467.43 328.864 468.47 328.864 469.76C328.864 471.05 327.824 472.09 326.534 472.09C325.244 472.09 324.204 471.05 324.204 469.76Z" fill="#808080"/>
<path d="M399.914 652.41C401.123 652.41 402.104 651.429 402.104 650.22C402.104 649.01 401.123 648.03 399.914 648.03C398.704 648.03 397.724 649.01 397.724 650.22C397.724 651.429 398.704 652.41 399.914 652.41Z" fill="#808080"/>
<path d="M250.613 709.12C250.613 707.19 252.173 705.63 254.103 705.63C256.033 705.63 257.593 707.19 257.593 709.12C257.593 711.05 256.033 712.61 254.103 712.61C252.173 712.61 250.613 711.05 250.613 709.12Z" fill="#808080"/>
<path d="M174.673 604.67C175.618 604.67 176.383 603.904 176.383 602.96C176.383 602.016 175.618 601.25 174.673 601.25C173.729 601.25 172.963 602.016 172.963 602.96C172.963 603.904 173.729 604.67 174.673 604.67Z" fill="#808080"/>
<path d="M177.583 667.31C177.583 666.23 178.464 665.35 179.544 665.35C180.624 665.35 181.504 666.23 181.504 667.31C181.504 668.39 180.624 669.27 179.544 669.27C178.464 669.27 177.583 668.39 177.583 667.31Z" fill="#808080"/>
<path d="M179.853 647.98C181.77 647.98 183.323 646.426 183.323 644.51C183.323 642.594 181.77 641.04 179.853 641.04C177.937 641.04 176.383 642.594 176.383 644.51C176.383 646.426 177.937 647.98 179.853 647.98Z" fill="#808080"/>
<path d="M992.423 466.63C992.423 465.26 993.533 464.15 994.903 464.15C996.273 464.15 997.383 465.26 997.383 466.63C997.383 468 996.273 469.11 994.903 469.11C993.533 469.11 992.423 468 992.423 466.63Z" fill="#808080"/>
<path d="M1052.65 351.52C1052.65 350.15 1053.76 349.04 1055.13 349.04C1056.5 349.04 1057.61 350.15 1057.61 351.52C1057.61 352.89 1056.5 354 1055.13 354C1053.76 354 1052.65 352.89 1052.65 351.52Z" fill="#808080"/>
<path d="M984.803 486.82C985.389 486.82 985.863 486.345 985.863 485.76C985.863 485.175 985.389 484.7 984.803 484.7C984.218 484.7 983.743 485.175 983.743 485.76C983.743 486.345 984.218 486.82 984.803 486.82Z" fill="#808080"/>
<path d="M1006.68 413.62C1006.68 413.03 1007.16 412.56 1007.74 412.56C1008.32 412.56 1008.8 413.04 1008.8 413.62C1008.8 414.2 1008.32 414.68 1007.74 414.68C1007.16 414.68 1006.68 414.2 1006.68 413.62Z" fill="#808080"/>
<path d="M912.863 497.06C912.863 496.47 913.343 496 913.923 496C914.503 496 914.983 496.48 914.983 497.06C914.983 497.64 914.503 498.12 913.923 498.12C913.343 498.12 912.863 497.64 912.863 497.06Z" fill="#808080"/>
<path d="M599.934 581.84C599.934 581.25 600.414 580.78 600.994 580.78C601.574 580.78 602.054 581.26 602.054 581.84C602.054 582.42 601.574 582.9 600.994 582.9C600.414 582.9 599.934 582.42 599.934 581.84Z" fill="#808080"/>
<path d="M386.104 621.16C386.104 619.91 387.124 618.89 388.374 618.89C389.624 618.89 390.644 619.91 390.644 621.16C390.644 622.41 389.624 623.43 388.374 623.43C387.124 623.43 386.104 622.41 386.104 621.16Z" fill="#808080"/>
<path d="M427.053 493.14C427.053 492.19 427.823 491.41 428.783 491.41C429.743 491.41 430.513 492.18 430.513 493.14C430.513 494.1 429.743 494.87 428.783 494.87C427.823 494.87 427.053 494.1 427.053 493.14Z" fill="#808080"/>
<path d="M629.463 493.14C629.463 492.5 629.983 491.97 630.633 491.97C631.283 491.97 631.803 492.49 631.803 493.14C631.803 493.79 631.283 494.31 630.633 494.31C629.983 494.31 629.463 493.79 629.463 493.14Z" fill="#808080"/>
<path d="M532.033 446.36C532.878 446.36 533.563 445.675 533.563 444.83C533.563 443.985 532.878 443.3 532.033 443.3C531.188 443.3 530.503 443.985 530.503 444.83C530.503 445.675 531.188 446.36 532.033 446.36Z" fill="#808080"/>
<path d="M551.083 422.37C551.083 421.78 551.563 421.31 552.143 421.31C552.723 421.31 553.203 421.79 553.203 422.37C553.203 422.95 552.723 423.43 552.143 423.43C551.563 423.43 551.083 422.95 551.083 422.37Z" fill="#808080"/>
<path d="M761.823 461.29C761.823 460.4 762.543 459.67 763.443 459.67C764.343 459.67 765.063 460.39 765.063 461.29C765.063 462.19 764.343 462.91 763.443 462.91C762.543 462.91 761.823 462.19 761.823 461.29Z" fill="#808080"/>
<path d="M832.164 352.21C832.164 350.53 833.524 349.18 835.194 349.18C836.864 349.18 838.224 350.54 838.224 352.21C838.224 353.88 836.864 355.24 835.194 355.24C833.524 355.24 832.164 353.88 832.164 352.21Z" fill="#808080"/>
<path d="M730.123 346.91C731.797 346.91 733.153 345.553 733.153 343.88C733.153 342.207 731.797 340.85 730.123 340.85C728.45 340.85 727.093 342.207 727.093 343.88C727.093 345.553 728.45 346.91 730.123 346.91Z" fill="#808080"/>
<path d="M817.624 350.67C817.624 349.82 818.314 349.13 819.164 349.13C820.014 349.13 820.704 349.82 820.704 350.67C820.704 351.52 820.014 352.21 819.164 352.21C818.314 352.21 817.624 351.52 817.624 350.67Z" fill="#808080"/>
<path d="M870.374 457.55C870.374 456.37 871.324 455.42 872.504 455.42C873.684 455.42 874.634 456.37 874.634 457.55C874.634 458.73 873.684 459.68 872.504 459.68C871.324 459.68 870.374 458.73 870.374 457.55Z" fill="#808080"/>
<path d="M800.453 693.38C801.392 693.38 802.153 692.619 802.153 691.68C802.153 690.741 801.392 689.98 800.453 689.98C799.515 689.98 798.753 690.741 798.753 691.68C798.753 692.619 799.515 693.38 800.453 693.38Z" fill="#808080"/>
<path d="M671.203 675C672.523 673.68 672.523 671.55 671.203 670.23C669.883 668.91 667.753 668.91 666.433 670.23C665.113 671.55 665.113 673.68 666.433 675C667.753 676.32 669.883 676.32 671.203 675Z" fill="#808080"/>
<path d="M577.503 619.33C577.503 621.83 575.473 623.86 572.973 623.86C570.473 623.86 568.443 621.83 568.443 619.33C568.443 616.83 570.473 614.8 572.973 614.8C575.473 614.8 577.503 616.83 577.503 619.33Z" fill="url(#paint31_radial_1607_1644)"/>
<path d="M996.253 532.63C996.253 535.13 994.223 537.16 991.723 537.16C989.223 537.16 987.193 535.13 987.193 532.63C987.193 530.13 989.223 528.1 991.723 528.1C994.223 528.1 996.253 530.13 996.253 532.63Z" fill="url(#paint32_radial_1607_1644)"/>
<path d="M839.713 558.46C839.713 560.96 837.683 562.99 835.183 562.99C832.683 562.99 830.653 560.96 830.653 558.46C830.653 555.96 832.683 553.93 835.183 553.93C837.683 553.93 839.713 555.96 839.713 558.46Z" fill="url(#paint33_radial_1607_1644)"/>
<path d="M414.383 455.69C414.383 458.19 412.353 460.22 409.853 460.22C407.353 460.22 405.323 458.19 405.323 455.69C405.323 453.19 407.353 451.16 409.853 451.16C412.353 451.16 414.383 453.19 414.383 455.69Z" fill="url(#paint34_radial_1607_1644)"/>
<path d="M295.164 380.04C295.164 382.54 293.134 384.57 290.634 384.57C288.134 384.57 286.104 382.54 286.104 380.04C286.104 377.54 288.134 375.51 290.634 375.51C293.134 375.51 295.164 377.54 295.164 380.04Z" fill="url(#paint35_radial_1607_1644)"/>
<path d="M425.273 606.4C429.184 606.4 432.353 603.23 432.353 599.32C432.353 595.41 429.184 592.24 425.273 592.24C421.363 592.24 418.193 595.41 418.193 599.32C418.193 603.23 421.363 606.4 425.273 606.4Z" fill="url(#paint36_radial_1607_1644)"/>
<path d="M889.823 710.25C893.733 710.25 896.903 707.08 896.903 703.17C896.903 699.26 893.733 696.09 889.823 696.09C885.913 696.09 882.743 699.26 882.743 703.17C882.743 707.08 885.913 710.25 889.823 710.25Z" fill="url(#paint37_radial_1607_1644)"/>
<path d="M721.443 446.98C725.353 446.98 728.523 443.81 728.523 439.9C728.523 435.99 725.353 432.82 721.443 432.82C717.533 432.82 714.363 435.99 714.363 439.9C714.363 443.81 717.533 446.98 721.443 446.98Z" fill="url(#paint38_radial_1607_1644)"/>
<path d="M699.353 571.37C703.264 571.37 706.433 568.2 706.433 564.29C706.433 560.38 703.264 557.21 699.353 557.21C695.443 557.21 692.273 560.38 692.273 564.29C692.273 568.2 695.443 571.37 699.353 571.37Z" fill="url(#paint39_radial_1607_1644)"/>
<path d="M530.523 684.52C534.434 684.52 537.603 681.35 537.603 677.44C537.603 673.53 534.434 670.36 530.523 670.36C526.613 670.36 523.443 673.53 523.443 677.44C523.443 681.35 526.613 684.52 530.523 684.52Z" fill="url(#paint40_radial_1607_1644)"/>
<path d="M936.054 367.45C939.964 367.45 943.134 364.28 943.134 360.37C943.134 356.46 939.964 353.29 936.054 353.29C932.144 353.29 928.974 356.46 928.974 360.37C928.974 364.28 932.144 367.45 936.054 367.45Z" fill="url(#paint41_radial_1607_1644)"/>
<path d="M424.023 693.56C424.023 697.47 420.853 700.64 416.943 700.64C413.033 700.64 409.863 697.47 409.863 693.56C409.863 689.65 413.033 686.48 416.943 686.48C420.853 686.48 424.023 689.65 424.023 693.56Z" fill="url(#paint42_radial_1607_1644)"/>
<path d="M344.273 588.48C346.775 588.48 348.803 586.452 348.803 583.95C348.803 581.448 346.775 579.42 344.273 579.42C341.771 579.42 339.743 581.448 339.743 583.95C339.743 586.452 341.771 588.48 344.273 588.48Z" fill="url(#paint43_radial_1607_1644)"/>
<path style="mix-blend-mode:screen" opacity="0.2" d="M1011 490.873C1037.91 463.962 1037.91 420.331 1011 393.42C984.084 366.509 940.453 366.509 913.542 393.42C886.631 420.331 886.631 463.962 913.542 490.873C940.453 517.784 984.084 517.784 1011 490.873Z" fill="url(#paint44_linear_1607_1644)"/>
<path style="mix-blend-mode:screen" opacity="0.2" d="M1026.13 450.862C1030.94 415.598 1006.25 383.116 970.984 378.311C935.721 373.505 903.239 398.196 898.433 433.46C893.628 468.723 918.319 501.205 953.582 506.011C988.846 510.816 1021.33 486.125 1026.13 450.862Z" fill="url(#paint45_linear_1607_1644)"/>
<path d="M1005.27 485.146C1029.02 461.398 1029.02 422.895 1005.27 399.147C981.52 375.399 943.017 375.399 919.27 399.147C895.522 422.895 895.522 461.398 919.27 485.146C943.017 508.893 981.52 508.893 1005.27 485.146Z" fill="url(#paint46_linear_1607_1644)"/>
<path style="mix-blend-mode:screen" d="M1016.63 469.315C1031.65 439.277 1019.48 402.749 989.44 387.727C959.402 372.705 922.874 384.878 907.852 414.915C892.83 444.953 905.003 481.481 935.04 496.503C965.078 511.525 1001.61 499.352 1016.63 469.315Z" fill="url(#paint47_radial_1607_1644)"/>
<mask id="mask1_1607_1644" style="mask-type:luminance" maskUnits="userSpaceOnUse" x="753" y="388" width="422" height="123">
<path d="M796.873 475.8C818.193 463.91 858.153 449.3 901.763 436.17C901.683 436.96 901.623 437.75 901.573 438.54C868.853 448.82 840.843 459.62 827.693 467.97C797.253 487.3 851.673 488.26 966.573 459.11C1081.47 429.96 1128.85 403.17 1092.88 400.69C1077.34 399.62 1047.57 403.48 1013.91 410.03C1013.49 409.36 1013.06 408.69 1012.62 408.03C1057.22 398.78 1099.3 392.57 1123.71 392.86C1180.9 393.54 1132.43 428.11 969.223 469.51C806.023 510.91 746.933 503.63 796.873 475.77V475.8ZM966.023 456.94C1070.82 430.35 1116.83 405.41 1085.2 402.65C1071.63 401.47 1044.96 404.76 1014.24 410.61C1014.42 410.9 1014.6 411.19 1014.77 411.48C1041.04 406.69 1063.21 404.19 1074.1 405.47C1100.03 408.52 1056.55 430.87 965.273 454.03C873.993 477.19 823.483 478.73 844.823 463.69C853.793 457.37 876.103 448.52 901.483 440.22C901.493 439.88 901.513 439.54 901.523 439.21C871.733 448.71 846.723 458.53 835.353 466.04C808.863 483.54 861.203 483.54 966.003 456.95L966.023 456.94ZM1141.64 388.33C1111.4 388.72 1062.29 396.33 1011.9 407.04C1011.99 407.17 1012.08 407.29 1012.16 407.42C1060.36 397.27 1106.77 390.2 1134.72 390.09C1201.09 389.84 1154.62 427.34 970.363 474.08C786.103 520.82 727.383 510.01 785.843 478.6C810.453 465.38 854.623 449.46 901.833 435.41C901.853 435.26 901.863 435.11 901.883 434.95C852.493 449.56 805.693 466.27 778.923 480.35C714.653 514.14 772.393 527.63 971.153 477.21C1169.91 426.79 1214.24 387.41 1141.63 388.34L1141.64 388.33Z" fill="white"/>
</mask>
<g mask="url(#mask1_1607_1644)">
<path d="M956.633 419.9C889.683 436.88 815.563 461.09 778.943 480.35C714.673 514.14 772.413 527.63 971.173 477.21C1169.93 426.79 1214.26 387.41 1141.65 388.34C1100.27 388.87 1023.58 402.93 956.633 419.91V419.9ZM970.373 474.08C786.113 520.82 727.393 510.01 785.853 478.6C819.933 460.29 891.503 436.83 956.723 420.28C1021.94 403.73 1096.04 390.24 1134.73 390.09C1201.1 389.84 1154.63 427.34 970.373 474.08ZM956.883 420.89C894.513 436.71 827.043 458.97 796.883 475.8C746.933 503.66 806.023 510.94 969.233 469.54C1132.43 428.14 1180.9 393.57 1123.72 392.89C1089.18 392.48 1019.26 405.07 956.893 420.9L956.883 420.89ZM966.583 459.12C851.683 488.27 797.263 487.31 827.703 467.98C847.983 455.1 903.613 436.39 957.353 422.75C1011.09 409.12 1068.91 399.05 1092.88 400.7C1128.86 403.18 1081.48 429.97 966.573 459.12H966.583ZM957.483 423.25C906.063 436.29 853.453 454.09 835.383 466.03C808.893 483.53 861.233 483.53 966.033 456.94C1070.83 430.35 1116.84 405.41 1085.21 402.65C1063.63 400.77 1008.9 410.21 957.483 423.25ZM965.293 454.03C874.013 477.19 825.133 478.26 846.473 463.22C861.553 452.59 909.733 436.17 957.673 424.01C1005.61 411.85 1055.79 403.32 1074.11 405.47C1100.04 408.52 1056.56 430.87 965.283 454.03H965.293Z" fill="url(#paint48_linear_1607_1644)"/>
<path style="mix-blend-mode:screen" d="M956.973 421.25C896.243 436.66 831.093 458.23 803.023 474.25C757.453 500.25 816.193 505.9 968.643 467.23C1121.08 428.56 1170.03 395.59 1117.57 394.45C1085.26 393.75 1017.71 405.84 956.973 421.25ZM968.303 465.9C822.023 503.01 763.643 498.24 806.713 473.32C833.563 457.78 897.303 436.63 957.033 421.47C1016.76 406.32 1082.88 394.53 1113.89 395.39C1163.63 396.77 1114.59 428.79 968.303 465.9Z" fill="url(#paint49_linear_1607_1644)"/>
<path style="mix-blend-mode:screen" d="M957.123 421.84C899.133 436.55 837.803 456.99 813.003 471.71C774.013 494.87 831.513 498.29 967.753 463.73C1103.99 429.17 1152.91 398.75 1107.59 396.98C1078.77 395.86 1015.11 407.13 957.123 421.84ZM967.133 461.31C842.093 493.03 785.993 490.97 820.473 469.81C842.933 456.03 901.373 436.46 957.233 422.29C1013.09 408.12 1073.79 397.46 1100.1 398.87C1140.5 401.03 1092.16 429.59 967.123 461.31H967.133Z" fill="url(#paint50_linear_1607_1644)"/>
</g>
<g style="mix-blend-mode:screen" opacity="0.6">
<path d="M904.283 423.88C905.543 419.85 907.203 416.03 909.203 412.44C909.723 412.65 910.774 412.34 912.314 411.89C915.114 411.06 916.663 410.77 918.773 411.68C922.593 413.74 923.454 418.81 927.684 420.45C931.714 422.02 935.343 419.7 936.893 418.71C946.147 412.803 951.26 409.69 952.233 409.37C960.153 406.75 961.323 410.6 961.323 410.64C961.293 411.85 959.093 413.48 957.143 414.91C956.393 415.46 955.343 416.18 954.763 416.91C951.913 420.46 950.263 424.81 947.193 428.21C946.103 429.42 944.463 431.24 941.213 432.98C934.943 436.33 926.853 436.93 920.603 434.52C913.633 431.83 905.083 425.13 905.033 425.08C904.673 424.73 904.443 424.32 904.293 423.88H904.283ZM1008.64 481.5C993.253 496.62 970.283 501.79 958.003 502.81C977.793 504.23 996.423 495.88 1008.64 481.5ZM1022.43 450.95C1018.63 461.59 1008.85 474.41 997.913 479.56C997.663 479.68 967.033 492.24 951.363 494.82C943.243 496.16 936.443 495.97 931.023 494.32C934.403 496.34 938.004 498.06 941.804 499.41C969.904 505.08 1005.58 486.9 1018.34 465.68C1020.12 461.43 1021.46 456.92 1022.25 452.17C1022.32 451.76 1022.36 451.36 1022.42 450.95H1022.43ZM915.733 445.09C919.103 445.94 922.113 447.77 925.503 448.56C926.973 448.9 928.373 449.04 929.043 449.11C929.453 449.15 939.183 450.07 941.233 445.5C941.373 445.18 941.503 444.72 941.503 444.37C941.533 443 940.273 441.61 937.403 441.58C933.953 441.54 931.043 443.5 927.803 444.22C916.723 446.68 913.344 442.68 905.184 433.02C904.454 432.18 903.313 431.92 902.493 431.22C902.433 431.53 902.364 431.83 902.314 432.14C901.744 435.56 901.483 438.96 901.493 442.31C902.543 442.85 903.913 443.22 903.943 443.23C907.813 444.27 911.873 444.11 915.753 445.08L915.733 445.09ZM920.314 486.17C921.964 487.02 923.213 487.33 923.603 487.42C927.803 488.29 931.943 486.83 936.123 487.09C938.803 487.26 941.443 487.89 944.143 487.94C948.563 488.01 956.994 485.27 957.184 482.56C957.204 482.26 957.133 481.85 957.023 481.54C955.493 477.47 945.453 476.51 940.263 477.11C935.223 477.86 932.573 478.59 926.793 481.49C923.603 483.09 922.294 483.5 920.434 483.48C919.214 483.47 917.813 482.96 916.393 482.07C917.633 483.5 918.944 484.87 920.314 486.17ZM964.583 401.46C967.483 401.66 968.873 400.8 974.833 392.42C975.113 392.03 975.523 391.54 975.823 391.17C977.843 388.61 979.983 387.87 980.783 387.59C982.743 386.91 984.953 387.45 986.873 386.53C982.313 384.52 977.433 383.04 972.293 382.18C971.673 382.08 971.043 382 970.423 381.92C974.163 384.38 972.853 389.39 966.483 396.91C963.943 399.88 963.783 400.06 964.583 401.47V401.46ZM916.003 475.84C916.523 475.86 917.203 475.76 917.713 475.71C918.253 475.66 919.713 475.36 923.403 473.97C928.043 472.22 934.403 469.83 952.133 466.51C962.303 464.61 964.213 465.75 966.963 468.1C968.143 469.11 971.273 471.79 979.723 469.73C996.643 465.6 1016.39 453.74 1021.38 439.08C1022.01 437.24 1022.38 435.66 1022.57 434.2C1022.23 431.63 1021.72 429.1 1021.07 426.63C1021.07 433.43 1018.79 442.79 1013.94 447.69C1013.77 447.86 990.043 459.12 986.103 456.01L976.823 445.88C975.713 443.36 974.333 440.22 976.233 433.56C979.543 421.97 998.823 399.95 1002.15 399.85C1008.82 399.65 1018.74 418.55 1012.26 424.58C1012.05 424.78 1011.74 425.03 1011.48 425.16C1009.59 426.07 1007.5 425.13 1005.59 425.81C1002.64 426.86 1001.86 430.75 998.473 431.22C995.053 431.69 996.453 426.64 993.473 427.63C991.563 428.26 990.553 431.3 989.703 432.9C988.313 435.51 986.993 438.25 986.273 441.13C985.023 446.12 986.913 449.61 992.413 449.31C993.803 449.23 995.563 448.49 996.823 447.89C1000.49 446.14 1003.01 442.78 1006.6 440.91C1008.67 439.83 1011.21 440.76 1013.21 439.37C1016.37 437.18 1018.06 431.97 1018.24 431.38C1019.56 427.14 1019.45 422.97 1018.54 419.06C1014.38 408.94 1007.54 400.08 998.753 393.48C992.073 391.08 987.763 396.81 982.703 403.57C973.283 416.23 965.913 430.3 955.973 442.61C949.583 450.52 944.273 453.5 940.763 455.47C929.813 461.61 927.533 460.79 901.983 449.91C903.053 458.28 905.863 466.21 910.073 473.27C911.703 474.73 913.673 475.75 916.023 475.83L916.003 475.84Z" fill="#616161"/>
</g>
<g style="mix-blend-mode:screen">
<path d="M897.873 396.19C904.723 395.68 911.983 418.3 914.103 446.72C916.223 475.14 912.393 498.59 905.543 499.1C898.693 499.61 891.433 476.99 889.313 448.57C887.193 420.15 891.023 396.7 897.873 396.19Z" fill="url(#paint51_radial_1607_1644)"/>
<path d="M917.598 469.593C920.096 467.779 915.009 456.512 906.235 444.427C897.462 432.343 888.324 424.016 885.826 425.83C883.327 427.644 888.415 438.911 897.188 450.996C905.962 463.08 915.1 471.407 917.598 469.593Z" fill="url(#paint52_radial_1607_1644)"/>
<path d="M928.586 450.56C929.208 444.828 917.676 438.876 902.83 437.266C887.983 435.655 875.443 438.997 874.821 444.729C874.2 450.461 885.731 456.414 900.578 458.024C915.425 459.634 927.965 456.293 928.586 450.56Z" fill="url(#paint53_radial_1607_1644)"/>
</g>
<path style="mix-blend-mode:screen" d="M301.243 688.2C317.491 688.2 330.663 675.028 330.663 658.78C330.663 642.532 317.491 629.36 301.243 629.36C284.995 629.36 271.823 642.532 271.823 658.78C271.823 675.028 284.995 688.2 301.243 688.2Z" fill="url(#paint54_radial_1607_1644)"/>
<path style="mix-blend-mode:screen" d="M728.285 645.085C739.575 633.795 739.575 615.49 728.285 604.2C716.995 592.91 698.69 592.91 687.4 604.2C676.11 615.49 676.11 633.795 687.4 645.085C698.69 656.375 716.995 656.375 728.285 645.085Z" fill="url(#paint55_radial_1607_1644)"/>
<path style="mix-blend-mode:screen" d="M844.904 383.07C854.839 383.07 862.894 375.016 862.894 365.08C862.894 355.144 854.839 347.09 844.904 347.09C834.968 347.09 826.914 355.144 826.914 365.08C826.914 375.016 834.968 383.07 844.904 383.07Z" fill="url(#paint56_radial_1607_1644)"/>
<path style="mix-blend-mode:screen" opacity="0.2" d="M-17.9966 916.87L60.0034 855.62C119.553 808.85 202.243 769.97 299.113 743.17C397.463 715.97 509.463 701.59 622.993 701.59C736.523 701.59 848.523 715.97 946.873 743.17C1043.75 769.96 1126.43 808.85 1185.98 855.62L1263.98 916.87H-17.9966Z" fill="url(#paint57_linear_1607_1644)"/>
<path style="mix-blend-mode:screen" opacity="0.2" d="M31.5933 899.73L70.5933 869.1C128.373 823.72 208.983 785.89 303.683 759.69C400.563 732.89 510.983 718.73 622.993 718.73C735.003 718.73 845.423 732.89 942.303 759.69C1037.01 785.88 1117.61 823.72 1175.39 869.1L1214.39 899.73H31.5933Z" fill="url(#paint58_linear_1607_1644)"/>
<g filter="url(#filter0_d_1607_1644)">
<path d="M1164.8 882.59C1052.7 794.55 851.974 735.89 622.994 735.89C394.014 735.89 193.274 794.56 81.1836 882.59H1164.81H1164.8Z" fill="url(#paint59_linear_1607_1644)"/>
</g>
<path style="mix-blend-mode:multiply" opacity="0.4" d="M1164.8 882.59H864.423C872.493 880.87 880.753 879.7 888.363 876.53C896.213 873.27 903.083 868 910.863 864.6C923.583 859.04 937.883 858.77 951.763 858.58C976.803 858.25 1001.99 857.93 1026.69 862.06C1051.21 866.17 1077.83 874.32 1099.71 862.52C1106.56 858.82 1113.49 853.14 1120.76 852.25C1136.64 861.91 1151.36 872.03 1164.8 882.58V882.59ZM842.753 772.74C683.163 779.93 521.163 809.44 379.983 882.59H485.933C531.023 860.76 577.273 841.59 625.803 829.53C714.783 807.42 814.963 793.51 906.643 793.22C940.503 793.11 974.563 794.59 1007.98 798.77C980.413 788.59 951.093 779.48 920.253 771.56C894.303 771.08 868.373 771.59 842.763 772.74H842.753ZM802.003 815.5C772.233 819.36 742.783 825.57 713.893 833.7C688.173 840.94 662.884 849.7 638.094 859.66C622.274 866.02 600.713 872.03 585.413 882.58H692.464C698.994 880.66 705.393 878.39 711.553 875.48C729.313 867.12 744.733 853.71 763.553 848.12C778.033 843.82 793.073 844.65 807.893 846.25C820.423 847.6 833.723 851.26 846.133 847.98C854.773 845.7 862.743 841.47 870.953 837.93C899.083 825.8 931.424 821.89 960.674 831C980.594 837.21 1000.72 849.37 1020.84 843.84C1035.68 839.76 1046.22 831.7 1062.02 830.88C1068.28 830.55 1074.67 830.24 1081.07 830.29C1073.36 826.41 1065.45 822.63 1057.34 818.95C1032 814.72 1006.01 813.3 980.304 812.14C920.844 809.46 861.043 807.83 802.013 815.48L802.003 815.5ZM418.534 760.84C444.954 754.29 473.113 751.53 498.143 741.83C350.933 756.04 222.033 794.88 130.443 849.12C185.323 838.41 240.373 828.47 292.683 809.04C334.833 793.38 374.883 771.66 418.523 760.84H418.534ZM571.993 772.98C540.333 782.19 509.803 794.87 479.503 807.87C424.083 831.64 369.163 856.56 314.773 882.59H340.813C368.653 862.6 398.453 845.63 430.803 834.55C457.823 825.3 486.124 820.32 513.404 811.85C537.034 804.52 559.803 794.59 583.573 787.71C610.703 779.86 638.833 776.07 666.923 773.14C738.933 765.65 811.393 763.7 883.803 762.92C876.793 761.39 869.713 759.93 862.573 758.52C764.833 749.93 665.723 745.71 572.003 772.98H571.993ZM402.173 829.37C453.113 807.15 499.663 775.02 552.373 757.39C608.173 738.73 667.834 737.3 726.904 739.99C693.094 737.3 658.383 735.89 622.993 735.89C601.203 735.89 579.673 736.42 558.443 737.46C496.033 764.77 434.913 795.33 369.963 815.72C306.683 835.59 240.673 845.52 177.003 864.13C158.993 869.39 141.033 875.47 123.543 882.59H245.883C297.493 863.42 351.703 851.38 402.173 829.37Z" fill="url(#paint60_linear_1607_1644)"/>
<path style="mix-blend-mode:screen" opacity="0.8" d="M1164.8 882.59C1052.7 794.55 851.974 735.89 622.994 735.89C394.014 735.89 193.274 794.56 81.1836 882.59H1164.81H1164.8Z" fill="url(#paint61_radial_1607_1644)"/>
<path style="mix-blend-mode:screen" d="M622.993 775.44C772.061 775.44 892.904 757.41 892.904 735.17C892.904 712.929 772.061 694.9 622.993 694.9C473.926 694.9 353.083 712.929 353.083 735.17C353.083 757.41 473.926 775.44 622.993 775.44Z" fill="url(#paint62_radial_1607_1644)"/>
<path style="mix-blend-mode:screen" d="M782.36 756.215C783.493 747.619 713.072 731.245 625.07 719.644C537.068 708.043 464.81 705.607 463.677 714.203C462.544 722.8 532.965 739.173 620.966 750.775C708.968 762.376 781.226 764.812 782.36 756.215Z" fill="url(#paint63_radial_1607_1644)"/>
<path style="mix-blend-mode:screen" d="M633.148 747.115C665.146 719.959 686.537 692.585 680.927 685.974C675.316 679.363 644.828 696.018 612.83 723.174C580.832 750.33 559.44 777.703 565.051 784.314C570.661 790.925 601.149 774.27 633.148 747.115Z" fill="url(#paint64_radial_1607_1644)"/>
</g>
</g>
<defs>
<filter id="filter0_d_1607_1644" x="-58.8164" y="595.89" width="1363.63" height="426.7" filterUnits="userSpaceOnUse" color-interpolation-filters="sRGB">
<feFlood flood-opacity="0" result="BackgroundImageFix"/>
<feColorMatrix in="SourceAlpha" type="matrix" values="0 0 0 0 0 0 0 0 0 0 0 0 0 0 0 0 0 0 127 0" result="hardAlpha"/>
<feOffset/>
<feGaussianBlur stdDeviation="70"/>
<feColorMatrix type="matrix" values="0 0 0 0 0.368627 0 0 0 0 0.368627 0 0 0 0 0.368627 0 0 0 0.75 0"/>
<feBlend mode="normal" in2="BackgroundImageFix" result="effect1_dropShadow_1607_1644"/>
<feBlend mode="normal" in="SourceGraphic" in2="effect1_dropShadow_1607_1644" result="shape"/>
</filter>
<linearGradient id="paint0_linear_1607_1644" x1="403.454" y1="549.23" x2="518.244" y2="434.44" gradientUnits="userSpaceOnUse">
<stop stop-color="#FAFAFA"/>
<stop offset="0.05" stop-color="#818181"/>
<stop offset="0.06" stop-color="#7E7E7E" stop-opacity="0.97"/>
<stop offset="0.13" stop-color="#656565" stop-opacity="0.71"/>
<stop offset="0.2" stop-color="#515151" stop-opacity="0.49"/>
<stop offset="0.29" stop-color="#404040" stop-opacity="0.31"/>
<stop offset="0.39" stop-color="#333333" stop-opacity="0.17"/>
<stop offset="0.5" stop-color="#292929" stop-opacity="0.07"/>
<stop offset="0.66" stop-color="#242424" stop-opacity="0.02"/>
<stop offset="1" stop-color="#232323" stop-opacity="0"/>
</linearGradient>
<linearGradient id="paint1_linear_1607_1644" x1="833.743" y1="600.2" x2="948.533" y2="485.41" gradientUnits="userSpaceOnUse">
<stop stop-color="#BBBBBB"/>
<stop offset="0.05" stop-color="#5B5B5B"/>
<stop offset="0.13" stop-color="#4E4E4E" stop-opacity="0.69"/>
<stop offset="0.23" stop-color="#444444" stop-opacity="0.44"/>
<stop offset="0.33" stop-color="#3C3C3C" stop-opacity="0.24"/>
<stop offset="0.46" stop-color="#373737" stop-opacity="0.1"/>
<stop offset="0.62" stop-color="#333333" stop-opacity="0.02"/>
<stop offset="1" stop-color="#333333" stop-opacity="0"/>
</linearGradient>
<linearGradient id="paint2_linear_1607_1644" x1="970.153" y1="471.39" x2="1100.51" y2="341.03" gradientUnits="userSpaceOnUse">
<stop stop-color="#B1B1B1"/>
<stop offset="0.09" stop-color="#848484"/>
<stop offset="0.15" stop-color="#6B6B6B"/>
<stop offset="1" stop-color="#363636"/>
</linearGradient>
<linearGradient id="paint3_linear_1607_1644" x1="967.493" y1="473.99" x2="972.023" y2="469.46" gradientUnits="userSpaceOnUse">
<stop stop-color="#B1B1B1"/>
<stop offset="0.18" stop-color="#8F8F8F" stop-opacity="0.73"/>
<stop offset="0.37" stop-color="#6F6F6F" stop-opacity="0.47"/>
<stop offset="0.55" stop-color="#565656" stop-opacity="0.26"/>
<stop offset="0.72" stop-color="#444444" stop-opacity="0.12"/>
<stop offset="0.88" stop-color="#393939" stop-opacity="0.03"/>
<stop offset="1" stop-color="#363636" stop-opacity="0"/>
</linearGradient>
<linearGradient id="paint4_linear_1607_1644" x1="353.553" y1="696.54" x2="419.263" y2="630.83" gradientUnits="userSpaceOnUse">
<stop stop-color="#B1B1B1"/>
<stop offset="0.09" stop-color="#848484"/>
<stop offset="0.15" stop-color="#6B6B6B"/>
<stop offset="1" stop-color="#363636"/>
</linearGradient>
<linearGradient id="paint5_linear_1607_1644" x1="374.553" y1="172.136" x2="875.943" y2="306.596" gradientUnits="userSpaceOnUse">
<stop offset="0.22" stop-color="#656565"/>
<stop offset="0.35" stop-color="#5F5F5F" stop-opacity="0.92"/>
<stop offset="0.55" stop-color="#4F4F4F" stop-opacity="0.7"/>
<stop offset="0.8" stop-color="#363636" stop-opacity="0.34"/>
<stop offset="1" stop-color="#1F1F1F" stop-opacity="0"/>
</linearGradient>
<linearGradient id="paint6_linear_1607_1644" x1="393.704" y1="177.276" x2="856.054" y2="301.256" gradientUnits="userSpaceOnUse">
<stop offset="0.22" stop-color="#656565"/>
<stop offset="0.35" stop-color="#5F5F5F" stop-opacity="0.92"/>
<stop offset="0.55" stop-color="#4F4F4F" stop-opacity="0.7"/>
<stop offset="0.8" stop-color="#363636" stop-opacity="0.34"/>
<stop offset="1" stop-color="#1F1F1F" stop-opacity="0"/>
</linearGradient>
<linearGradient id="paint7_linear_1607_1644" x1="812.254" y1="113.456" x2="511.674" y2="308.846" gradientUnits="userSpaceOnUse">
<stop stop-color="#363636"/>
<stop offset="0.61" stop-color="#6B6B6B"/>
<stop offset="0.77" stop-color="#848484"/>
<stop offset="1" stop-color="#B1B1B1"/>
</linearGradient>
<linearGradient id="paint8_linear_1607_1644" x1="901.194" y1="212.2" x2="408.383" y2="257.98" gradientUnits="userSpaceOnUse">
<stop stop-color="#1E1E1E"/>
<stop offset="0.33" stop-color="#454545"/>
<stop offset="0.61" stop-color="#6B6B6B"/>
<stop offset="0.77" stop-color="#848484"/>
<stop offset="1" stop-color="#B1B1B1"/>
</linearGradient>
<linearGradient id="paint9_linear_1607_1644" x1="802.484" y1="94.2199" x2="470.863" y2="356.35" gradientUnits="userSpaceOnUse">
<stop stop-color="#272727"/>
<stop offset="0.49" stop-color="#5C5C5C"/>
<stop offset="0.61" stop-color="#6B6B6B"/>
<stop offset="0.77" stop-color="#848484"/>
<stop offset="1" stop-color="#B1B1B1"/>
</linearGradient>
<radialGradient id="paint10_radial_1607_1644" cx="0" cy="0" r="1" gradientUnits="userSpaceOnUse" gradientTransform="translate(637.071 190.186) rotate(-28.51) scale(212.58)">
<stop offset="0.63"/>
<stop offset="0.77" stop-color="#010101"/>
<stop offset="0.82" stop-color="#080808"/>
<stop offset="0.85" stop-color="#141414"/>
<stop offset="0.88" stop-color="#252525"/>
<stop offset="0.91" stop-color="#3B3B3B"/>
<stop offset="0.93" stop-color="#565656"/>
<stop offset="0.95" stop-color="#777777"/>
<stop offset="0.96" stop-color="#9C9C9C"/>
<stop offset="0.98" stop-color="#C7C7C7"/>
<stop offset="1" stop-color="white"/>
</radialGradient>
<radialGradient id="paint11_radial_1607_1644" cx="0" cy="0" r="1" gradientUnits="userSpaceOnUse" gradientTransform="translate(654.855 384.705) rotate(164.33) scale(118.83 13.0713)">
<stop stop-color="#F9F9F9"/>
<stop offset="0.05" stop-color="#F8F8F8" stop-opacity="0.88"/>
<stop offset="0.15" stop-color="#F8F8F8" stop-opacity="0.68"/>
<stop offset="0.25" stop-color="#F7F7F7" stop-opacity="0.5"/>
<stop offset="0.36" stop-color="#F7F7F7" stop-opacity="0.34"/>
<stop offset="0.47" stop-color="#F6F6F6" stop-opacity="0.22"/>
<stop offset="0.59" stop-color="#F6F6F6" stop-opacity="0.12"/>
<stop offset="0.71" stop-color="#F6F6F6" stop-opacity="0.05"/>
<stop offset="0.84" stop-color="#F6F6F6" stop-opacity="0.01"/>
<stop offset="1" stop-color="#F6F6F6" stop-opacity="0"/>
</radialGradient>
<radialGradient id="paint12_radial_1607_1644" cx="0" cy="0" r="1" gradientUnits="userSpaceOnUse" gradientTransform="translate(677.44 413.01) rotate(-47.39) scale(27.14 5.6994)">
<stop stop-color="#F9F9F9"/>
<stop offset="0.05" stop-color="#F8F8F8" stop-opacity="0.88"/>
<stop offset="0.15" stop-color="#F8F8F8" stop-opacity="0.68"/>
<stop offset="0.25" stop-color="#F7F7F7" stop-opacity="0.5"/>
<stop offset="0.36" stop-color="#F7F7F7" stop-opacity="0.34"/>
<stop offset="0.47" stop-color="#F6F6F6" stop-opacity="0.22"/>
<stop offset="0.59" stop-color="#F6F6F6" stop-opacity="0.12"/>
<stop offset="0.71" stop-color="#F6F6F6" stop-opacity="0.05"/>
<stop offset="0.84" stop-color="#F6F6F6" stop-opacity="0.01"/>
<stop offset="1" stop-color="#F6F6F6" stop-opacity="0"/>
</radialGradient>
<radialGradient id="paint13_radial_1607_1644" cx="0" cy="0" r="1" gradientUnits="userSpaceOnUse" gradientTransform="translate(679.949 392.682) rotate(-95.22) scale(27.14 5.69941)">
<stop stop-color="#F9F9F9"/>
<stop offset="0.05" stop-color="#F8F8F8" stop-opacity="0.88"/>
<stop offset="0.15" stop-color="#F8F8F8" stop-opacity="0.68"/>
<stop offset="0.25" stop-color="#F7F7F7" stop-opacity="0.5"/>
<stop offset="0.36" stop-color="#F7F7F7" stop-opacity="0.34"/>
<stop offset="0.47" stop-color="#F6F6F6" stop-opacity="0.22"/>
<stop offset="0.59" stop-color="#F6F6F6" stop-opacity="0.12"/>
<stop offset="0.71" stop-color="#F6F6F6" stop-opacity="0.05"/>
<stop offset="0.84" stop-color="#F6F6F6" stop-opacity="0.01"/>
<stop offset="1" stop-color="#F6F6F6" stop-opacity="0"/>
</radialGradient>
<linearGradient id="paint14_linear_1607_1644" x1="108.113" y1="398.89" x2="379.673" y2="471.71" gradientUnits="userSpaceOnUse">
<stop offset="0.22" stop-color="#454545"/>
<stop offset="0.39" stop-color="#404040" stop-opacity="0.88"/>
<stop offset="0.66" stop-color="#333333" stop-opacity="0.56"/>
<stop offset="0.98" stop-color="#1F1F1F" stop-opacity="0.04"/>
<stop offset="1" stop-color="#1E1E1E" stop-opacity="0"/>
</linearGradient>
<linearGradient id="paint15_linear_1607_1644" x1="124.813" y1="403.37" x2="362.333" y2="467.06" gradientUnits="userSpaceOnUse">
<stop offset="0.22" stop-color="#454545"/>
<stop offset="0.39" stop-color="#404040" stop-opacity="0.88"/>
<stop offset="0.66" stop-color="#333333" stop-opacity="0.56"/>
<stop offset="0.98" stop-color="#1F1F1F" stop-opacity="0.04"/>
<stop offset="1" stop-color="#1E1E1E" stop-opacity="0"/>
</linearGradient>
<linearGradient id="paint16_linear_1607_1644" x1="159.973" y1="527.51" x2="314.053" y2="351.58" gradientUnits="userSpaceOnUse">
<stop stop-color="#1E1E1E"/>
<stop offset="0.2" stop-color="#232323"/>
<stop offset="0.47" stop-color="#333333"/>
<stop offset="0.62" stop-color="#414141"/>
<stop offset="0.68" stop-color="#464646"/>
<stop offset="0.75" stop-color="#565656"/>
<stop offset="0.83" stop-color="#717171"/>
<stop offset="0.91" stop-color="#959595"/>
<stop offset="0.99" stop-color="#BDBDBD"/>
</linearGradient>
<linearGradient id="paint17_linear_1607_1644" x1="160.573" y1="434.54" x2="322.083" y2="434.54" gradientUnits="userSpaceOnUse">
<stop/>
<stop offset="0.38" stop-color="#010101"/>
<stop offset="0.51" stop-color="#080808"/>
<stop offset="0.61" stop-color="#141414"/>
<stop offset="0.68" stop-color="#252525"/>
<stop offset="0.75" stop-color="#3B3B3B"/>
<stop offset="0.81" stop-color="#565656"/>
<stop offset="0.86" stop-color="#777777"/>
<stop offset="0.91" stop-color="#9C9C9C"/>
<stop offset="0.95" stop-color="#C7C7C7"/>
<stop offset="0.99" stop-color="#F5F5F5"/>
<stop offset="1" stop-color="white"/>
</linearGradient>
<radialGradient id="paint18_radial_1607_1644" cx="0" cy="0" r="1" gradientUnits="userSpaceOnUse" gradientTransform="translate(204.603 424.319) rotate(-28.51) scale(118.27)">
<stop offset="0.29"/>
<stop offset="0.56" stop-color="#010101"/>
<stop offset="0.66" stop-color="#080808"/>
<stop offset="0.73" stop-color="#141414"/>
<stop offset="0.79" stop-color="#252525"/>
<stop offset="0.84" stop-color="#3B3B3B"/>
<stop offset="0.88" stop-color="#565656"/>
<stop offset="0.92" stop-color="#767676"/>
<stop offset="0.96" stop-color="#9C9C9C"/>
<stop offset="0.99" stop-color="#C5C5C5"/>
<stop offset="1" stop-color="#D3D3D3"/>
</radialGradient>
<radialGradient id="paint19_radial_1607_1644" cx="0" cy="0" r="1" gradientUnits="userSpaceOnUse" gradientTransform="translate(721.813 406.67) scale(21.15 21.15)">
<stop stop-color="#B0B0B0" stop-opacity="0.98"/>
<stop offset="0.08" stop-color="#8E8E8E" stop-opacity="0.75"/>
<stop offset="0.16" stop-color="#6F6F6F" stop-opacity="0.55"/>
<stop offset="0.25" stop-color="#555555" stop-opacity="0.38"/>
<stop offset="0.34" stop-color="#404040" stop-opacity="0.24"/>
<stop offset="0.44" stop-color="#303030" stop-opacity="0.13"/>
<stop offset="0.56" stop-color="#242424" stop-opacity="0.06"/>
<stop offset="0.72" stop-color="#1D1D1D" stop-opacity="0.01"/>
<stop offset="1" stop-color="#1C1C1C" stop-opacity="0"/>
</radialGradient>
<radialGradient id="paint20_radial_1607_1644" cx="0" cy="0" r="1" gradientUnits="userSpaceOnUse" gradientTransform="translate(717.883 441.32) rotate(-90) scale(21.15 21.15)">
<stop stop-color="#B0B0B0" stop-opacity="0.98"/>
<stop offset="0.08" stop-color="#8E8E8E" stop-opacity="0.75"/>
<stop offset="0.16" stop-color="#6F6F6F" stop-opacity="0.55"/>
<stop offset="0.25" stop-color="#555555" stop-opacity="0.38"/>
<stop offset="0.34" stop-color="#404040" stop-opacity="0.24"/>
<stop offset="0.44" stop-color="#303030" stop-opacity="0.13"/>
<stop offset="0.56" stop-color="#242424" stop-opacity="0.06"/>
<stop offset="0.72" stop-color="#1D1D1D" stop-opacity="0.01"/>
<stop offset="1" stop-color="#1C1C1C" stop-opacity="0"/>
</radialGradient>
<radialGradient id="paint21_radial_1607_1644" cx="0" cy="0" r="1" gradientUnits="userSpaceOnUse" gradientTransform="translate(889.363 647.05) scale(13.5 13.5)">
<stop stop-color="#B3B3B3" stop-opacity="0.98"/>
<stop offset="0.08" stop-color="#ACACAC" stop-opacity="0.75"/>
<stop offset="0.16" stop-color="#A6A6A6" stop-opacity="0.55"/>
<stop offset="0.25" stop-color="#A1A1A1" stop-opacity="0.38"/>
<stop offset="0.34" stop-color="#9D9D9D" stop-opacity="0.24"/>
<stop offset="0.44" stop-color="#999999" stop-opacity="0.13"/>
<stop offset="0.56" stop-color="#979797" stop-opacity="0.06"/>
<stop offset="0.72" stop-color="#969696" stop-opacity="0.01"/>
<stop offset="1" stop-color="#969696" stop-opacity="0"/>
</radialGradient>
<radialGradient id="paint22_radial_1607_1644" cx="0" cy="0" r="1" gradientUnits="userSpaceOnUse" gradientTransform="translate(884.073 680.75) rotate(-90) scale(13.5 13.4999)">
<stop stop-color="#B3B3B3" stop-opacity="0.98"/>
<stop offset="0.08" stop-color="#ACACAC" stop-opacity="0.75"/>
<stop offset="0.16" stop-color="#A6A6A6" stop-opacity="0.55"/>
<stop offset="0.25" stop-color="#A1A1A1" stop-opacity="0.38"/>
<stop offset="0.34" stop-color="#9D9D9D" stop-opacity="0.24"/>
<stop offset="0.44" stop-color="#999999" stop-opacity="0.13"/>
<stop offset="0.56" stop-color="#979797" stop-opacity="0.06"/>
<stop offset="0.72" stop-color="#969696" stop-opacity="0.01"/>
<stop offset="1" stop-color="#969696" stop-opacity="0"/>
</radialGradient>
<radialGradient id="paint23_radial_1607_1644" cx="0" cy="0" r="1" gradientUnits="userSpaceOnUse" gradientTransform="translate(343.353 535.49) scale(13.5 13.5)">
<stop stop-color="#B3B3B3" stop-opacity="0.98"/>
<stop offset="0.08" stop-color="#ACACAC" stop-opacity="0.75"/>
<stop offset="0.16" stop-color="#A6A6A6" stop-opacity="0.55"/>
<stop offset="0.25" stop-color="#A1A1A1" stop-opacity="0.38"/>
<stop offset="0.34" stop-color="#9D9D9D" stop-opacity="0.24"/>
<stop offset="0.44" stop-color="#999999" stop-opacity="0.13"/>
<stop offset="0.56" stop-color="#979797" stop-opacity="0.06"/>
<stop offset="0.72" stop-color="#969696" stop-opacity="0.01"/>
<stop offset="1" stop-color="#969696" stop-opacity="0"/>
</radialGradient>
<radialGradient id="paint24_radial_1607_1644" cx="0" cy="0" r="1" gradientUnits="userSpaceOnUse" gradientTransform="translate(338.673 572.31) rotate(-90) scale(13.5 13.5)">
<stop stop-color="#B3B3B3" stop-opacity="0.98"/>
<stop offset="0.08" stop-color="#ACACAC" stop-opacity="0.75"/>
<stop offset="0.16" stop-color="#A6A6A6" stop-opacity="0.55"/>
<stop offset="0.25" stop-color="#A1A1A1" stop-opacity="0.38"/>
<stop offset="0.34" stop-color="#9D9D9D" stop-opacity="0.24"/>
<stop offset="0.44" stop-color="#999999" stop-opacity="0.13"/>
<stop offset="0.56" stop-color="#979797" stop-opacity="0.06"/>
<stop offset="0.72" stop-color="#969696" stop-opacity="0.01"/>
<stop offset="1" stop-color="#969696" stop-opacity="0"/>
</radialGradient>
<radialGradient id="paint25_radial_1607_1644" cx="0" cy="0" r="1" gradientUnits="userSpaceOnUse" gradientTransform="translate(242.26 694.082) rotate(34.08) scale(7.6014 18.54)">
<stop stop-color="#CDCDCD"/>
<stop offset="0.04" stop-color="#D2D2D2" stop-opacity="0.86"/>
<stop offset="0.11" stop-color="#DADADA" stop-opacity="0.66"/>
<stop offset="0.19" stop-color="#E2E2E2" stop-opacity="0.48"/>
<stop offset="0.27" stop-color="#E8E8E8" stop-opacity="0.33"/>
<stop offset="0.36" stop-color="#EDEDED" stop-opacity="0.21"/>
<stop offset="0.46" stop-color="#F1F1F1" stop-opacity="0.12"/>
<stop offset="0.58" stop-color="#F3F3F3" stop-opacity="0.05"/>
<stop offset="0.73" stop-color="#F5F5F5" stop-opacity="0.01"/>
<stop offset="1" stop-color="#F6F6F6" stop-opacity="0"/>
</radialGradient>
<radialGradient id="paint26_radial_1607_1644" cx="0" cy="0" r="1" gradientUnits="userSpaceOnUse" gradientTransform="translate(201.582 711.111) rotate(-55.92) scale(7.6014 18.54)">
<stop stop-color="#CDCDCD"/>
<stop offset="0.04" stop-color="#D2D2D2" stop-opacity="0.86"/>
<stop offset="0.11" stop-color="#DADADA" stop-opacity="0.66"/>
<stop offset="0.19" stop-color="#E2E2E2" stop-opacity="0.48"/>
<stop offset="0.27" stop-color="#E8E8E8" stop-opacity="0.33"/>
<stop offset="0.36" stop-color="#EDEDED" stop-opacity="0.21"/>
<stop offset="0.46" stop-color="#F1F1F1" stop-opacity="0.12"/>
<stop offset="0.58" stop-color="#F3F3F3" stop-opacity="0.05"/>
<stop offset="0.73" stop-color="#F5F5F5" stop-opacity="0.01"/>
<stop offset="1" stop-color="#F6F6F6" stop-opacity="0"/>
</radialGradient>
<radialGradient id="paint27_radial_1607_1644" cx="0" cy="0" r="1" gradientUnits="userSpaceOnUse" gradientTransform="translate(569.43 466.229) rotate(34.08) scale(7.6014 18.54)">
<stop stop-color="#CDCDCD"/>
<stop offset="0.04" stop-color="#D2D2D2" stop-opacity="0.86"/>
<stop offset="0.11" stop-color="#DADADA" stop-opacity="0.66"/>
<stop offset="0.19" stop-color="#E2E2E2" stop-opacity="0.48"/>
<stop offset="0.27" stop-color="#E8E8E8" stop-opacity="0.33"/>
<stop offset="0.36" stop-color="#EDEDED" stop-opacity="0.21"/>
<stop offset="0.46" stop-color="#F1F1F1" stop-opacity="0.12"/>
<stop offset="0.58" stop-color="#F3F3F3" stop-opacity="0.05"/>
<stop offset="0.73" stop-color="#F5F5F5" stop-opacity="0.01"/>
<stop offset="1" stop-color="#F6F6F6" stop-opacity="0"/>
</radialGradient>
<radialGradient id="paint28_radial_1607_1644" cx="0" cy="0" r="1" gradientUnits="userSpaceOnUse" gradientTransform="translate(528.041 486.321) rotate(-55.92) scale(7.60139 18.54)">
<stop stop-color="#CDCDCD"/>
<stop offset="0.04" stop-color="#D2D2D2" stop-opacity="0.86"/>
<stop offset="0.11" stop-color="#DADADA" stop-opacity="0.66"/>
<stop offset="0.19" stop-color="#E2E2E2" stop-opacity="0.48"/>
<stop offset="0.27" stop-color="#E8E8E8" stop-opacity="0.33"/>
<stop offset="0.36" stop-color="#EDEDED" stop-opacity="0.21"/>
<stop offset="0.46" stop-color="#F1F1F1" stop-opacity="0.12"/>
<stop offset="0.58" stop-color="#F3F3F3" stop-opacity="0.05"/>
<stop offset="0.73" stop-color="#F5F5F5" stop-opacity="0.01"/>
<stop offset="1" stop-color="#F6F6F6" stop-opacity="0"/>
</radialGradient>
<radialGradient id="paint29_radial_1607_1644" cx="0" cy="0" r="1" gradientUnits="userSpaceOnUse" gradientTransform="translate(930.295 341.172) rotate(34.08) scale(7.60141 18.54)">
<stop stop-color="#CDCDCD"/>
<stop offset="0.04" stop-color="#D2D2D2" stop-opacity="0.86"/>
<stop offset="0.11" stop-color="#DADADA" stop-opacity="0.66"/>
<stop offset="0.19" stop-color="#E2E2E2" stop-opacity="0.48"/>
<stop offset="0.27" stop-color="#E8E8E8" stop-opacity="0.33"/>
<stop offset="0.36" stop-color="#EDEDED" stop-opacity="0.21"/>
<stop offset="0.46" stop-color="#F1F1F1" stop-opacity="0.12"/>
<stop offset="0.58" stop-color="#F3F3F3" stop-opacity="0.05"/>
<stop offset="0.73" stop-color="#F5F5F5" stop-opacity="0.01"/>
<stop offset="1" stop-color="#F6F6F6" stop-opacity="0"/>
</radialGradient>
<radialGradient id="paint30_radial_1607_1644" cx="0" cy="0" r="1" gradientUnits="userSpaceOnUse" gradientTransform="translate(889.053 364.289) rotate(-55.92) scale(7.6014 18.54)">
<stop stop-color="#CDCDCD"/>
<stop offset="0.04" stop-color="#D2D2D2" stop-opacity="0.86"/>
<stop offset="0.11" stop-color="#DADADA" stop-opacity="0.66"/>
<stop offset="0.19" stop-color="#E2E2E2" stop-opacity="0.48"/>
<stop offset="0.27" stop-color="#E8E8E8" stop-opacity="0.33"/>
<stop offset="0.36" stop-color="#EDEDED" stop-opacity="0.21"/>
<stop offset="0.46" stop-color="#F1F1F1" stop-opacity="0.12"/>
<stop offset="0.58" stop-color="#F3F3F3" stop-opacity="0.05"/>
<stop offset="0.73" stop-color="#F5F5F5" stop-opacity="0.01"/>
<stop offset="1" stop-color="#F6F6F6" stop-opacity="0"/>
</radialGradient>
<radialGradient id="paint31_radial_1607_1644" cx="0" cy="0" r="1" gradientUnits="userSpaceOnUse" gradientTransform="translate(572.963 619.33) scale(4.53)">
<stop stop-color="#595959"/>
<stop offset="0.18" stop-color="#444444" stop-opacity="0.65"/>
<stop offset="0.37" stop-color="#343434" stop-opacity="0.37"/>
<stop offset="0.56" stop-color="#282828" stop-opacity="0.16"/>
<stop offset="0.77" stop-color="#212121" stop-opacity="0.04"/>
<stop offset="1" stop-color="#1F1F1F" stop-opacity="0"/>
</radialGradient>
<radialGradient id="paint32_radial_1607_1644" cx="0" cy="0" r="1" gradientUnits="userSpaceOnUse" gradientTransform="translate(991.713 532.63) scale(4.53003 4.53)">
<stop stop-color="#595959"/>
<stop offset="0.18" stop-color="#444444" stop-opacity="0.65"/>
<stop offset="0.37" stop-color="#343434" stop-opacity="0.37"/>
<stop offset="0.56" stop-color="#282828" stop-opacity="0.16"/>
<stop offset="0.77" stop-color="#212121" stop-opacity="0.04"/>
<stop offset="1" stop-color="#1F1F1F" stop-opacity="0"/>
</radialGradient>
<radialGradient id="paint33_radial_1607_1644" cx="0" cy="0" r="1" gradientUnits="userSpaceOnUse" gradientTransform="translate(835.183 558.46) scale(4.53)">
<stop stop-color="#595959"/>
<stop offset="0.18" stop-color="#444444" stop-opacity="0.65"/>
<stop offset="0.37" stop-color="#343434" stop-opacity="0.37"/>
<stop offset="0.56" stop-color="#282828" stop-opacity="0.16"/>
<stop offset="0.77" stop-color="#212121" stop-opacity="0.04"/>
<stop offset="1" stop-color="#1F1F1F" stop-opacity="0"/>
</radialGradient>
<radialGradient id="paint34_radial_1607_1644" cx="0" cy="0" r="1" gradientUnits="userSpaceOnUse" gradientTransform="translate(409.853 455.69) scale(4.53)">
<stop stop-color="#595959"/>
<stop offset="0.18" stop-color="#444444" stop-opacity="0.65"/>
<stop offset="0.37" stop-color="#343434" stop-opacity="0.37"/>
<stop offset="0.56" stop-color="#282828" stop-opacity="0.16"/>
<stop offset="0.77" stop-color="#212121" stop-opacity="0.04"/>
<stop offset="1" stop-color="#1F1F1F" stop-opacity="0"/>
</radialGradient>
<radialGradient id="paint35_radial_1607_1644" cx="0" cy="0" r="1" gradientUnits="userSpaceOnUse" gradientTransform="translate(290.634 380.04) scale(4.53)">
<stop stop-color="#595959"/>
<stop offset="0.18" stop-color="#444444" stop-opacity="0.65"/>
<stop offset="0.37" stop-color="#343434" stop-opacity="0.37"/>
<stop offset="0.56" stop-color="#282828" stop-opacity="0.16"/>
<stop offset="0.77" stop-color="#212121" stop-opacity="0.04"/>
<stop offset="1" stop-color="#1F1F1F" stop-opacity="0"/>
</radialGradient>
<radialGradient id="paint36_radial_1607_1644" cx="0" cy="0" r="1" gradientUnits="userSpaceOnUse" gradientTransform="translate(425.273 599.32) scale(7.07999 7.08002)">
<stop stop-color="#595959"/>
<stop offset="0.18" stop-color="#444444" stop-opacity="0.65"/>
<stop offset="0.37" stop-color="#343434" stop-opacity="0.37"/>
<stop offset="0.56" stop-color="#282828" stop-opacity="0.16"/>
<stop offset="0.77" stop-color="#212121" stop-opacity="0.04"/>
<stop offset="1" stop-color="#1F1F1F" stop-opacity="0"/>
</radialGradient>
<radialGradient id="paint37_radial_1607_1644" cx="0" cy="0" r="1" gradientUnits="userSpaceOnUse" gradientTransform="translate(889.823 703.17) scale(7.08002 7.07999)">
<stop stop-color="#595959"/>
<stop offset="0.18" stop-color="#444444" stop-opacity="0.65"/>
<stop offset="0.37" stop-color="#343434" stop-opacity="0.37"/>
<stop offset="0.56" stop-color="#282828" stop-opacity="0.16"/>
<stop offset="0.77" stop-color="#212121" stop-opacity="0.04"/>
<stop offset="1" stop-color="#1F1F1F" stop-opacity="0"/>
</radialGradient>
<radialGradient id="paint38_radial_1607_1644" cx="0" cy="0" r="1" gradientUnits="userSpaceOnUse" gradientTransform="translate(721.443 439.9) scale(7.08002 7.08)">
<stop stop-color="#595959"/>
<stop offset="0.18" stop-color="#444444" stop-opacity="0.65"/>
<stop offset="0.37" stop-color="#343434" stop-opacity="0.37"/>
<stop offset="0.56" stop-color="#282828" stop-opacity="0.16"/>
<stop offset="0.77" stop-color="#212121" stop-opacity="0.04"/>
<stop offset="1" stop-color="#1F1F1F" stop-opacity="0"/>
</radialGradient>
<radialGradient id="paint39_radial_1607_1644" cx="0" cy="0" r="1" gradientUnits="userSpaceOnUse" gradientTransform="translate(699.353 564.29) scale(7.07999)">
<stop stop-color="#595959"/>
<stop offset="0.18" stop-color="#444444" stop-opacity="0.65"/>
<stop offset="0.37" stop-color="#343434" stop-opacity="0.37"/>
<stop offset="0.56" stop-color="#282828" stop-opacity="0.16"/>
<stop offset="0.77" stop-color="#212121" stop-opacity="0.04"/>
<stop offset="1" stop-color="#1F1F1F" stop-opacity="0"/>
</radialGradient>
<radialGradient id="paint40_radial_1607_1644" cx="0" cy="0" r="1" gradientUnits="userSpaceOnUse" gradientTransform="translate(530.523 677.44) scale(7.07999 7.08002)">
<stop stop-color="#595959"/>
<stop offset="0.18" stop-color="#444444" stop-opacity="0.65"/>
<stop offset="0.37" stop-color="#343434" stop-opacity="0.37"/>
<stop offset="0.56" stop-color="#282828" stop-opacity="0.16"/>
<stop offset="0.77" stop-color="#212121" stop-opacity="0.04"/>
<stop offset="1" stop-color="#1F1F1F" stop-opacity="0"/>
</radialGradient>
<radialGradient id="paint41_radial_1607_1644" cx="0" cy="0" r="1" gradientUnits="userSpaceOnUse" gradientTransform="translate(936.054 360.37) scale(7.08002 7.08)">
<stop stop-color="#595959"/>
<stop offset="0.18" stop-color="#444444" stop-opacity="0.65"/>
<stop offset="0.37" stop-color="#343434" stop-opacity="0.37"/>
<stop offset="0.56" stop-color="#282828" stop-opacity="0.16"/>
<stop offset="0.77" stop-color="#212121" stop-opacity="0.04"/>
<stop offset="1" stop-color="#1F1F1F" stop-opacity="0"/>
</radialGradient>
<radialGradient id="paint42_radial_1607_1644" cx="0" cy="0" r="1" gradientUnits="userSpaceOnUse" gradientTransform="translate(416.933 693.56) scale(7.08002)">
<stop stop-color="#595959"/>
<stop offset="0.18" stop-color="#444444" stop-opacity="0.65"/>
<stop offset="0.37" stop-color="#343434" stop-opacity="0.37"/>
<stop offset="0.56" stop-color="#282828" stop-opacity="0.16"/>
<stop offset="0.77" stop-color="#212121" stop-opacity="0.04"/>
<stop offset="1" stop-color="#1F1F1F" stop-opacity="0"/>
</radialGradient>
<radialGradient id="paint43_radial_1607_1644" cx="0" cy="0" r="1" gradientUnits="userSpaceOnUse" gradientTransform="translate(344.273 583.95) scale(4.53)">
<stop stop-color="#595959"/>
<stop offset="0.18" stop-color="#444444" stop-opacity="0.65"/>
<stop offset="0.37" stop-color="#343434" stop-opacity="0.37"/>
<stop offset="0.56" stop-color="#282828" stop-opacity="0.16"/>
<stop offset="0.77" stop-color="#212121" stop-opacity="0.04"/>
<stop offset="1" stop-color="#1F1F1F" stop-opacity="0"/>
</radialGradient>
<linearGradient id="paint44_linear_1607_1644" x1="908.16" y1="370.343" x2="1018.21" y2="516.397" gradientUnits="userSpaceOnUse">
<stop offset="0.22" stop-color="#656565"/>
<stop offset="0.35" stop-color="#5F5F5F" stop-opacity="0.92"/>
<stop offset="0.55" stop-color="#4F4F4F" stop-opacity="0.7"/>
<stop offset="0.8" stop-color="#363636" stop-opacity="0.34"/>
<stop offset="1" stop-color="#1F1F1F" stop-opacity="0"/>
</linearGradient>
<linearGradient id="paint45_linear_1607_1644" x1="911.679" y1="375.032" x2="1014.6" y2="511.61" gradientUnits="userSpaceOnUse">
<stop offset="0.22" stop-color="#656565"/>
<stop offset="0.35" stop-color="#5F5F5F" stop-opacity="0.92"/>
<stop offset="0.55" stop-color="#4F4F4F" stop-opacity="0.7"/>
<stop offset="0.8" stop-color="#363636" stop-opacity="0.34"/>
<stop offset="1" stop-color="#1F1F1F" stop-opacity="0"/>
</linearGradient>
<linearGradient id="paint46_linear_1607_1644" x1="1039.34" y1="448.697" x2="905.983" y2="437.11" gradientUnits="userSpaceOnUse">
<stop stop-color="#1E1E1E"/>
<stop offset="0.15" stop-color="#232323"/>
<stop offset="0.34" stop-color="#333333"/>
<stop offset="0.56" stop-color="#4E4E4E"/>
<stop offset="0.62" stop-color="#575757"/>
<stop offset="0.69" stop-color="#5C5C5C"/>
<stop offset="0.78" stop-color="#6C6C6C"/>
<stop offset="0.88" stop-color="#878787"/>
<stop offset="0.98" stop-color="#ACACAC"/>
<stop offset="1" stop-color="#B1B1B1"/>
</linearGradient>
<radialGradient id="paint47_radial_1607_1644" cx="0" cy="0" r="1" gradientUnits="userSpaceOnUse" gradientTransform="translate(990.567 437.651) rotate(9.48) scale(89.06 89.06)">
<stop/>
<stop offset="0.38" stop-color="#010101"/>
<stop offset="0.51" stop-color="#080808"/>
<stop offset="0.61" stop-color="#141414"/>
<stop offset="0.68" stop-color="#252525"/>
<stop offset="0.75" stop-color="#3B3B3B"/>
<stop offset="0.81" stop-color="#565656"/>
<stop offset="0.86" stop-color="#777777"/>
<stop offset="0.91" stop-color="#9C9C9C"/>
<stop offset="0.95" stop-color="#C7C7C7"/>
<stop offset="0.99" stop-color="#F5F5F5"/>
<stop offset="1" stop-color="white"/>
</radialGradient>
<linearGradient id="paint48_linear_1607_1644" x1="951.669" y1="409.982" x2="969.517" y2="466.9" gradientUnits="userSpaceOnUse">
<stop stop-color="#1E1E1E" stop-opacity="0"/>
<stop offset="0.12" stop-color="#212121" stop-opacity="0.07"/>
<stop offset="0.27" stop-color="#2C2C2C" stop-opacity="0.25"/>
<stop offset="0.43" stop-color="#3D3D3D" stop-opacity="0.56"/>
<stop offset="0.61" stop-color="#555555" stop-opacity="0.98"/>
<stop offset="0.62" stop-color="#575757"/>
<stop offset="0.69" stop-color="#5C5C5C"/>
<stop offset="0.78" stop-color="#6C6C6C"/>
<stop offset="0.88" stop-color="#878787"/>
<stop offset="0.98" stop-color="#ACACAC"/>
<stop offset="1" stop-color="#B1B1B1"/>
</linearGradient>
<linearGradient id="paint49_linear_1607_1644" x1="956.856" y1="420.718" x2="967.03" y2="461.418" gradientUnits="userSpaceOnUse">
<stop stop-color="#E3E3E3" stop-opacity="0"/>
<stop offset="1" stop-color="#EDEDED"/>
</linearGradient>
<linearGradient id="paint50_linear_1607_1644" x1="956.846" y1="420.718" x2="967.03" y2="461.418" gradientUnits="userSpaceOnUse">
<stop stop-color="#E3E3E3" stop-opacity="0"/>
<stop offset="1" stop-color="#EDEDED"/>
</linearGradient>
<radialGradient id="paint51_radial_1607_1644" cx="0" cy="0" r="1" gradientUnits="userSpaceOnUse" gradientTransform="translate(875.365 529.391) rotate(85.74) scale(50.1556 12.5389)">
<stop stop-color="#F9F9F9"/>
<stop offset="0.05" stop-color="#DEDEDE" stop-opacity="0.88"/>
<stop offset="0.15" stop-color="#B0B0B0" stop-opacity="0.68"/>
<stop offset="0.25" stop-color="#878787" stop-opacity="0.5"/>
<stop offset="0.36" stop-color="#656565" stop-opacity="0.34"/>
<stop offset="0.47" stop-color="#494949" stop-opacity="0.22"/>
<stop offset="0.59" stop-color="#333333" stop-opacity="0.12"/>
<stop offset="0.71" stop-color="#242424" stop-opacity="0.05"/>
<stop offset="0.84" stop-color="#1A1A1A" stop-opacity="0.01"/>
<stop offset="1" stop-color="#181818" stop-opacity="0"/>
</radialGradient>
<radialGradient id="paint52_radial_1607_1644" cx="0" cy="0" r="1" gradientUnits="userSpaceOnUse" gradientTransform="translate(915.707 437.427) rotate(-125.98) scale(26.03 5.46633)">
<stop stop-color="#F9F9F9"/>
<stop offset="0.05" stop-color="#DEDEDE" stop-opacity="0.88"/>
<stop offset="0.15" stop-color="#B0B0B0" stop-opacity="0.68"/>
<stop offset="0.25" stop-color="#878787" stop-opacity="0.5"/>
<stop offset="0.36" stop-color="#656565" stop-opacity="0.34"/>
<stop offset="0.47" stop-color="#494949" stop-opacity="0.22"/>
<stop offset="0.59" stop-color="#333333" stop-opacity="0.12"/>
<stop offset="0.71" stop-color="#242424" stop-opacity="0.05"/>
<stop offset="0.84" stop-color="#1A1A1A" stop-opacity="0.01"/>
<stop offset="1" stop-color="#181818" stop-opacity="0"/>
</radialGradient>
<radialGradient id="paint53_radial_1607_1644" cx="0" cy="0" r="1" gradientUnits="userSpaceOnUse" gradientTransform="translate(903.507 430.646) rotate(-173.81) scale(26.04 10.1556)">
<stop stop-color="#F9F9F9"/>
<stop offset="0.05" stop-color="#DEDEDE" stop-opacity="0.88"/>
<stop offset="0.15" stop-color="#B0B0B0" stop-opacity="0.68"/>
<stop offset="0.25" stop-color="#878787" stop-opacity="0.5"/>
<stop offset="0.36" stop-color="#656565" stop-opacity="0.34"/>
<stop offset="0.47" stop-color="#494949" stop-opacity="0.22"/>
<stop offset="0.59" stop-color="#333333" stop-opacity="0.12"/>
<stop offset="0.71" stop-color="#242424" stop-opacity="0.05"/>
<stop offset="0.84" stop-color="#1A1A1A" stop-opacity="0.01"/>
<stop offset="1" stop-color="#181818" stop-opacity="0"/>
</radialGradient>
<radialGradient id="paint54_radial_1607_1644" cx="0" cy="0" r="1" gradientUnits="userSpaceOnUse" gradientTransform="translate(269.183 637.75) scale(64.16 64.16)">
<stop offset="0.57" stop-color="#262626" stop-opacity="0"/>
<stop offset="0.64" stop-color="#282828" stop-opacity="0.02"/>
<stop offset="0.7" stop-color="#323232" stop-opacity="0.09"/>
<stop offset="0.77" stop-color="#414141" stop-opacity="0.2"/>
<stop offset="0.83" stop-color="#565656" stop-opacity="0.36"/>
<stop offset="0.9" stop-color="#717171" stop-opacity="0.57"/>
<stop offset="0.96" stop-color="#929292" stop-opacity="0.81"/>
<stop offset="1" stop-color="#ACACAC"/>
</radialGradient>
<radialGradient id="paint55_radial_1607_1644" cx="0" cy="0" r="1" gradientUnits="userSpaceOnUse" gradientTransform="translate(739.23 583.243) scale(77.77)">
<stop offset="0.26" stop-color="#262626" stop-opacity="0"/>
<stop offset="0.4" stop-color="#282828" stop-opacity="0.03"/>
<stop offset="0.54" stop-color="#303030" stop-opacity="0.14"/>
<stop offset="0.68" stop-color="#3D3D3D" stop-opacity="0.31"/>
<stop offset="0.81" stop-color="#4F4F4F" stop-opacity="0.54"/>
<stop offset="0.94" stop-color="#666666" stop-opacity="0.85"/>
<stop offset="1" stop-color="#727272"/>
</radialGradient>
<radialGradient id="paint56_radial_1607_1644" cx="0" cy="0" r="1" gradientUnits="userSpaceOnUse" gradientTransform="translate(858.764 339) scale(48.4101 48.41)">
<stop offset="0.57" stop-color="#262626" stop-opacity="0"/>
<stop offset="0.65" stop-color="#282828" stop-opacity="0.03"/>
<stop offset="0.73" stop-color="#303030" stop-opacity="0.14"/>
<stop offset="0.81" stop-color="#3D3D3D" stop-opacity="0.31"/>
<stop offset="0.89" stop-color="#4F4F4F" stop-opacity="0.54"/>
<stop offset="0.97" stop-color="#666666" stop-opacity="0.85"/>
<stop offset="1" stop-color="#727272"/>
</radialGradient>
<linearGradient id="paint57_linear_1607_1644" x1="-17.9966" y1="809.23" x2="1263.97" y2="809.23" gradientUnits="userSpaceOnUse">
<stop offset="0.22" stop-color="#6E6E6E"/>
<stop offset="0.34" stop-color="#686868" stop-opacity="0.93"/>
<stop offset="0.53" stop-color="#5A5A5A" stop-opacity="0.72"/>
<stop offset="0.76" stop-color="#424242" stop-opacity="0.39"/>
<stop offset="1" stop-color="#272727" stop-opacity="0"/>
</linearGradient>
<linearGradient id="paint58_linear_1607_1644" x1="31.5933" y1="809.23" x2="1214.39" y2="809.23" gradientUnits="userSpaceOnUse">
<stop offset="0.22" stop-color="#6E6E6E"/>
<stop offset="0.34" stop-color="#686868" stop-opacity="0.93"/>
<stop offset="0.53" stop-color="#5A5A5A" stop-opacity="0.72"/>
<stop offset="0.76" stop-color="#424242" stop-opacity="0.39"/>
<stop offset="1" stop-color="#272727" stop-opacity="0"/>
</linearGradient>
<linearGradient id="paint59_linear_1607_1644" x1="1115.99" y1="753.18" x2="80.1136" y2="957.3" gradientUnits="userSpaceOnUse">
<stop stop-color="#515151"/>
<stop offset="0.21" stop-color="#565656"/>
<stop offset="0.49" stop-color="#666666"/>
<stop offset="0.52" stop-color="#696969"/>
<stop offset="0.63" stop-color="#6E6E6E"/>
<stop offset="0.77" stop-color="#7E7E7E"/>
<stop offset="0.93" stop-color="#999999"/>
<stop offset="0.99" stop-color="#A4A4A4"/>
</linearGradient>
<linearGradient id="paint60_linear_1607_1644" x1="1371.78" y1="395.15" x2="139.753" y2="1195.97" gradientUnits="userSpaceOnUse">
<stop stop-color="#272727"/>
<stop offset="0.26" stop-color="#2C2C2C"/>
<stop offset="0.59" stop-color="#3C3C3C"/>
<stop offset="0.62" stop-color="#3F3F3F"/>
<stop offset="0.69" stop-color="#444444"/>
<stop offset="0.77" stop-color="#545454"/>
<stop offset="0.86" stop-color="#6F6F6F"/>
<stop offset="0.95" stop-color="#949494"/>
<stop offset="0.99" stop-color="#A4A4A4"/>
</linearGradient>
<radialGradient id="paint61_radial_1607_1644" cx="0" cy="0" r="1" gradientUnits="userSpaceOnUse" gradientTransform="translate(616.844 1147.29) scale(745.43 417.441)">
<stop offset="0.77" stop-color="#171717"/>
<stop offset="0.86" stop-color="#181818"/>
<stop offset="0.89" stop-color="#1F1F1F"/>
<stop offset="0.91" stop-color="#2B2B2B"/>
<stop offset="0.93" stop-color="#3C3C3C"/>
<stop offset="0.95" stop-color="#525252"/>
<stop offset="0.96" stop-color="#6D6D6D"/>
<stop offset="0.97" stop-color="#8E8E8E"/>
<stop offset="0.99" stop-color="#B3B3B3"/>
<stop offset="1" stop-color="#E6E6E6"/>
</radialGradient>
<radialGradient id="paint62_radial_1607_1644" cx="0" cy="0" r="1" gradientUnits="userSpaceOnUse" gradientTransform="translate(622.993 733.669) rotate(180) scale(259.89 38.9835)">
<stop stop-color="#F9F9F9"/>
<stop offset="0.05" stop-color="#DCDCDC" stop-opacity="0.88"/>
<stop offset="0.15" stop-color="#A8A8A8" stop-opacity="0.68"/>
<stop offset="0.25" stop-color="#7B7B7B" stop-opacity="0.5"/>
<stop offset="0.36" stop-color="#555555" stop-opacity="0.34"/>
<stop offset="0.47" stop-color="#363636" stop-opacity="0.22"/>
<stop offset="0.59" stop-color="#1E1E1E" stop-opacity="0.12"/>
<stop offset="0.71" stop-color="#0D0D0D" stop-opacity="0.05"/>
<stop offset="0.84" stop-color="#030303" stop-opacity="0.01"/>
<stop offset="1" stop-opacity="0"/>
</radialGradient>
<radialGradient id="paint63_radial_1607_1644" cx="0" cy="0" r="1" gradientUnits="userSpaceOnUse" gradientTransform="translate(640.142 764.549) rotate(7.51) scale(155.12 15.3657)">
<stop stop-color="#F9F9F9"/>
<stop offset="0.05" stop-color="#DCDCDC" stop-opacity="0.88"/>
<stop offset="0.15" stop-color="#A8A8A8" stop-opacity="0.68"/>
<stop offset="0.25" stop-color="#7B7B7B" stop-opacity="0.5"/>
<stop offset="0.36" stop-color="#555555" stop-opacity="0.34"/>
<stop offset="0.47" stop-color="#363636" stop-opacity="0.22"/>
<stop offset="0.59" stop-color="#1E1E1E" stop-opacity="0.12"/>
<stop offset="0.71" stop-color="#0D0D0D" stop-opacity="0.05"/>
<stop offset="0.84" stop-color="#030303" stop-opacity="0.01"/>
<stop offset="1" stop-opacity="0"/>
</radialGradient>
<radialGradient id="paint64_radial_1607_1644" cx="0" cy="0" r="1" gradientUnits="userSpaceOnUse" gradientTransform="translate(640.245 755.539) rotate(-40.32) scale(73.17 15.3657)">
<stop stop-color="#F9F9F9"/>
<stop offset="0.05" stop-color="#DCDCDC" stop-opacity="0.88"/>
<stop offset="0.15" stop-color="#A8A8A8" stop-opacity="0.68"/>
<stop offset="0.25" stop-color="#7B7B7B" stop-opacity="0.5"/>
<stop offset="0.36" stop-color="#555555" stop-opacity="0.34"/>
<stop offset="0.47" stop-color="#363636" stop-opacity="0.22"/>
<stop offset="0.59" stop-color="#1E1E1E" stop-opacity="0.12"/>
<stop offset="0.71" stop-color="#0D0D0D" stop-opacity="0.05"/>
<stop offset="0.84" stop-color="#030303" stop-opacity="0.01"/>
<stop offset="1" stop-opacity="0"/>
</radialGradient>
</defs>
</svg>
