<svg width="77" height="74" viewBox="0 0 77 74" fill="none" xmlns="http://www.w3.org/2000/svg">
<g clip-path="url(#clip0_1639_3004)">
<path d="M57.4902 5.18018L52.4902 13.8402" stroke="#ED2E7B" stroke-width="2" stroke-miterlimit="10"/>
<path d="M38.1499 0V9.99" stroke="#ED2E7B" stroke-width="2" stroke-miterlimit="10"/>
<path d="M18.8198 5.18018L23.8098 13.8402" stroke="#ED2E7B" stroke-width="2" stroke-miterlimit="10"/>
<path d="M57.4902 68.5101L52.4902 59.8501" stroke="#CDF425" stroke-width="2" stroke-miterlimit="10"/>
<path d="M38.1499 73.6899V63.6899" stroke="#CDF425" stroke-width="2" stroke-miterlimit="10"/>
<path d="M18.8198 68.5101L23.8098 59.8501" stroke="#CDF425" stroke-width="2" stroke-miterlimit="10"/>
<path d="M38.1499 31.8799C39.4999 33.4699 40.3099 35.5299 40.3099 37.7699C40.3099 40.0099 39.4899 42.0699 38.1499 43.6599C39.8199 45.6399 42.3099 46.8999 45.0899 46.9099C46.8199 44.2799 47.8399 41.1399 47.8399 37.7599C47.8399 34.3799 46.8199 31.2399 45.0899 28.6099C42.3099 28.6299 39.8199 29.8899 38.1499 31.8599V31.8799Z" fill="#ED2E7B"/>
<path d="M31.22 46.9198C31.22 46.9198 31.19 46.9198 31.17 46.9198H16.68C11.63 46.9198 7.53 42.8198 7.53 37.7698C7.53 32.7198 11.63 28.6198 16.68 28.6198H31.17C31.17 28.6198 31.2 28.6198 31.22 28.6198C32.92 26.0398 35.33 23.9598 38.16 22.6498C36.03 21.6598 33.67 21.0898 31.17 21.0898H16.68C7.48 21.0998 0 28.5798 0 37.7698C0 46.9598 7.48 54.4398 16.67 54.4398H31.16C33.66 54.4398 36.02 53.8698 38.15 52.8798C35.32 51.5698 32.92 49.4898 31.21 46.9098L31.22 46.9198Z" fill="#ED2E7B"/>
<path d="M38.15 31.8799C36.48 29.8999 33.99 28.6399 31.21 28.6299C29.48 31.2599 28.46 34.3999 28.46 37.7799C28.46 41.1599 29.48 44.2999 31.21 46.9299C33.99 46.9099 36.48 45.6499 38.15 43.6799C36.8 42.0899 35.99 40.0299 35.99 37.7899C35.99 35.5499 36.81 33.4899 38.15 31.8999V31.8799Z" fill="#CDF425"/>
<path d="M59.6299 21.1001H45.1399C42.6399 21.1001 40.2799 21.6701 38.1499 22.6601C40.9799 23.9701 43.3799 26.0501 45.0899 28.6301C45.1099 28.6301 45.1199 28.6301 45.1399 28.6301H59.6299C64.6799 28.6301 68.7799 32.7301 68.7799 37.7801C68.7799 42.8301 64.6799 46.9301 59.6299 46.9301H45.1399C45.1399 46.9301 45.1099 46.9301 45.0899 46.9301C43.3899 49.5101 40.9799 51.5901 38.1499 52.9001C40.2799 53.8901 42.6399 54.4601 45.1399 54.4601H59.6299C68.8199 54.4601 76.2999 46.9801 76.2999 37.7901C76.2999 28.6001 68.8199 21.1201 59.6299 21.1201V21.1001Z" fill="#CDF425"/>
<path d="M45.09 46.9199C42.31 46.8999 39.82 45.6399 38.15 43.6699C36.48 45.6499 33.99 46.9099 31.21 46.9199C32.91 49.4999 35.32 51.5799 38.15 52.8899C40.98 51.5799 43.38 49.4999 45.09 46.9199Z" fill="#CDF425"/>
<path d="M31.2202 28.6302C34.0002 28.6502 36.4902 29.9102 38.1602 31.8802C39.8302 29.9002 42.3202 28.6402 45.1002 28.6302C43.4002 26.0502 40.9902 23.9702 38.1602 22.6602C35.3302 23.9702 32.9302 26.0502 31.2202 28.6302Z" fill="#ED2E7B"/>
</g>
<defs>
<clipPath id="clip0_1639_3004">
<rect width="76.31" height="73.69" fill="white"/>
</clipPath>
</defs>
</svg>
