<svg width="81" height="100" viewBox="0 0 81 100" fill="none" xmlns="http://www.w3.org/2000/svg">
<g clip-path="url(#clip0_1602_20)">
<path d="M40.3646 10.4312C22.3553 10.4312 7.69482 25.0763 7.69482 43.0856C7.69482 53.5023 12.6022 62.7925 20.2103 68.7647C20.2103 67.9314 20.1331 67.0981 19.9633 66.3264C19.8399 65.7092 19.7936 65.0919 19.809 64.4592C16.3059 61.0949 13.6362 56.8974 12.1084 52.1752L12.0158 52.2678L12.093 52.1443C12.0312 51.9591 11.9849 51.7739 11.9232 51.5733L11.8306 51.2492C11.0899 48.6566 10.6732 45.9097 10.6732 43.0856C10.6732 26.7276 23.9911 13.4096 40.3491 13.4096C41.1053 13.4096 41.7226 13.4405 42.3399 13.5022C43.2504 12.5454 44.13 11.6503 44.9788 10.817C43.4819 10.5547 42.0621 10.4158 40.3491 10.4158L40.3646 10.4312Z" fill="#00DA90"/>
<path d="M66.0436 22.9312C65.7041 24.0423 65.3337 25.2151 64.9016 26.4343C68.1424 31.1874 70.0405 36.9127 70.0405 43.0855C70.0405 59.4436 56.7226 72.7616 40.3646 72.7616C37.4171 72.7616 34.5621 72.314 31.8769 71.4961C30.7967 72.0363 29.7627 72.7616 28.7905 73.5949C32.3862 74.9684 36.2905 75.7554 40.3646 75.7554C58.3739 75.7554 73.0343 61.0949 73.0343 43.0855C73.0343 35.4775 70.4109 28.4867 66.0436 22.9312Z" fill="#00DA90"/>
<path d="M65.5499 0.554565C65.5499 0.554565 65.519 0.554565 65.4727 0.554565C64.5776 0.58543 55.4418 1.21815 42.1857 16.8201C42.1857 16.8201 37.1239 22.4682 36.5992 30.1843L27.6949 30.8633L13.9912 52.2677L20.6733 46.0948L27.1857 43.0084L32.4943 45.9251L30.6116 53.1165L35.1023 55.8788L40.5961 50.8788L45.6424 54.2276L45.9357 61.419L43.5745 70.1999L56.1826 48.1319L52.6641 39.922C59.2536 35.8942 61.9079 28.78 61.9079 28.78C69.5776 9.81386 65.9357 1.35704 65.5499 0.554565Z" fill="#ED2E7B"/>
<path d="M64.6703 2.88489C64.6703 2.88489 67.232 22.9158 43.6055 45.8634C43.6055 45.8634 61.9234 12.4683 64.6703 2.88489Z" fill="#231F20"/>
<path d="M53.8368 5.73975C53.8368 5.73975 60.7195 11.0484 66.4294 12.5916C66.4294 12.5916 66.2905 14.1348 65.7813 16.3571C65.7813 16.3571 60.3029 15.2768 50.627 8.25519C50.627 8.25519 52.2628 6.82 53.8368 5.73975Z" fill="#231F20"/>
<path d="M34.3615 58.6103C34.0992 57.993 33.7597 57.3603 33.2967 56.8202C33.0035 56.3727 32.6177 56.0795 32.2473 55.8788C32.201 55.848 32.1547 55.8171 32.1084 55.7862C32.1084 55.7862 31.9541 55.7245 31.8769 55.6937C31.4603 55.5239 31.1516 55.493 31.1516 55.493C30.2411 55.3387 29.3152 55.4313 28.4973 55.6319C26.2134 56.2029 24.2381 57.7307 23.1115 59.814C22.4016 61.1258 22.093 62.4221 21.9541 63.4869C21.8307 64.4437 21.8461 65.4005 22.0467 66.3418C23.1732 71.882 20.0405 79.6906 20.0405 79.6906C20.0405 79.6906 24.4541 72.5456 29.593 70.1536C30.4572 69.7523 31.2597 69.1813 31.9541 68.5332C32.7257 67.7925 33.5899 66.7739 34.2226 65.4313C35.2257 63.3017 35.2874 60.8017 34.3924 58.6258L34.3615 58.6103Z" fill="#CDF425"/>
<path d="M45.3025 33.2707C45.1019 33.1473 44.855 33.209 44.747 33.4096C43.0957 36.1874 32.2778 54.4128 31.9229 54.8912C30.3488 56.9899 28.4507 62.1443 28.4507 62.1443C28.4507 62.1443 32.1081 58.0393 33.2192 55.6628C33.4661 55.1226 44.4538 36.9899 46.1204 34.2275C46.2439 34.0269 46.1667 33.78 45.9815 33.6719L45.3025 33.2707Z" fill="#231F20"/>
<path d="M2.58659 90.0301C3.50706 90.0301 4.25326 89.2839 4.25326 88.3635C4.25326 87.443 3.50706 86.6968 2.58659 86.6968C1.66611 86.6968 0.919922 87.443 0.919922 88.3635C0.919922 89.2839 1.66611 90.0301 2.58659 90.0301Z" fill="#CDF425"/>
<path d="M1.04346 91.4036H3.99099V99.5826H1.04346V91.4036Z" fill="#00DA90"/>
<path d="M14.6544 99.4745L12.3088 96.0795H9.71616V99.4745H6.89209V87.2986H12.1699C13.2501 87.2986 14.1915 87.4838 14.9785 87.8387C15.7655 88.1937 16.3828 88.7029 16.8149 89.3665C17.247 90.0301 17.4631 90.8171 17.4631 91.7122C17.4631 92.6072 17.247 93.3943 16.8149 94.0579C16.3828 94.706 15.7655 95.2153 14.9631 95.5702L17.6946 99.49H14.6699L14.6544 99.4745ZM13.9446 90.1381C13.497 89.7677 12.8643 89.5825 12.0155 89.5825H9.71616V93.8264H12.0155C12.8643 93.8264 13.5125 93.6412 13.9446 93.2708C14.3921 92.9005 14.6081 92.3758 14.6081 91.7122C14.6081 91.0486 14.3921 90.5085 13.9446 90.1381Z" fill="#00DA90"/>
<path d="M22.1548 98.8573C21.1363 98.3171 20.3492 97.561 19.7783 96.6042C19.2073 95.6474 18.9141 94.5671 18.9141 93.3788C18.9141 92.1906 19.2073 91.1103 19.7783 90.1535C20.3492 89.1967 21.1517 88.4405 22.1548 87.9004C23.1733 87.3603 24.3153 87.0825 25.5807 87.0825C26.8462 87.0825 27.9881 87.3603 28.9912 87.9004C29.9943 88.4405 30.7968 89.1967 31.3678 90.1535C31.9542 91.1103 32.232 92.1906 32.232 93.3788C32.232 94.5671 31.9388 95.6474 31.3678 96.6042C30.7813 97.561 29.9943 98.3171 28.9912 98.8573C27.9881 99.3974 26.8462 99.6752 25.5807 99.6752C24.3153 99.6752 23.1733 99.3974 22.1548 98.8573ZM27.5252 96.7739C28.1116 96.4498 28.5591 95.9869 28.8986 95.385C29.2227 94.7986 29.3925 94.1196 29.3925 93.3634C29.3925 92.6072 29.2227 91.9437 28.8986 91.3418C28.5746 90.7399 28.1116 90.2924 27.5252 89.9529C26.9388 89.6288 26.2906 89.4591 25.5807 89.4591C24.8709 89.4591 24.2073 89.6288 23.6363 89.9529C23.0653 90.277 22.6023 90.7399 22.2628 91.3418C21.9233 91.9437 21.769 92.6072 21.769 93.3634C21.769 94.1196 21.9388 94.7832 22.2628 95.385C22.5869 95.9714 23.0499 96.4344 23.6363 96.7739C24.2227 97.1134 24.8709 97.2677 25.5807 97.2677C26.2906 97.2677 26.9542 97.098 27.5252 96.7739Z" fill="#00DA90"/>
<path d="M36.8308 98.8728C35.8277 98.3327 35.0407 97.592 34.4697 96.6352C33.8987 95.6784 33.6055 94.5981 33.6055 93.3944C33.6055 92.1907 33.8987 91.1105 34.4697 90.1537C35.0407 89.1969 35.8277 88.4561 36.8308 87.916C37.8339 87.3759 38.9604 87.1135 40.2104 87.1135C41.2598 87.1135 42.2166 87.2987 43.0808 87.6691C43.9295 88.0395 44.6548 88.5796 45.2258 89.274L43.4203 90.9407C42.6024 89.9839 41.5684 89.5209 40.3647 89.5209C39.6086 89.5209 38.945 89.6907 38.3431 90.0148C37.7413 90.3388 37.2937 90.8018 36.9542 91.4037C36.6147 92.0055 36.4604 92.6691 36.4604 93.4253C36.4604 94.1814 36.6302 94.845 36.9542 95.4469C37.2783 96.0333 37.7413 96.4963 38.3431 96.8358C38.945 97.1753 39.6086 97.3296 40.3647 97.3296C41.5839 97.3296 42.6024 96.8512 43.4203 95.879L45.2258 97.5457C44.6394 98.2555 43.9295 98.7957 43.0653 99.166C42.2011 99.5364 41.2444 99.7216 40.195 99.7216C38.9604 99.7216 37.8339 99.4592 36.8308 98.9191V98.8728Z" fill="#00DA90"/>
<path d="M51.5528 94.6908L49.917 96.4037V99.4902H47.1084V87.3142H49.917V93.0087L55.3183 87.3142H58.451L53.4047 92.7463L58.7442 99.5056H55.4572L51.5528 94.7216V94.6908Z" fill="#00DA90"/>
<path d="M69.4383 97.206V99.4745H60.0093V87.2986H69.2222V89.5671H62.8179V92.206H68.4661V94.3974H62.8179V97.2215H69.4537L69.4383 97.206Z" fill="#00DA90"/>
<path d="M74.2071 89.5826H70.3027V87.2832H80.92V89.5826H77.0157V99.4592H74.1916V89.5826H74.2071Z" fill="#00DA90"/>
</g>
<defs>
<clipPath id="clip0_1602_20">
<rect width="80" height="99.1207" fill="white" transform="translate(0.919922 0.554688)"/>
</clipPath>
</defs>
</svg>
