<svg width="209" height="454" viewBox="0 0 209 454" fill="none" xmlns="http://www.w3.org/2000/svg">
<path fill-rule="evenodd" clip-rule="evenodd" d="M76.31 450.93C75.16 450.93 74.04 450.67 72.99 450.15C72.82 450.1 72.66 450.02 72.51 449.93L4.43997 409.4C3.71997 408.97 3.25997 408.21 3.21997 407.38C2.84997 399.9 2.86997 49.2696 3.23997 46.6396V46.5196C3.19997 45.1596 3.20997 45.1096 3.23997 44.8696L3.27997 44.5496C3.40997 43.3596 3.67997 40.8996 6.00997 39.0096C7.44997 37.8396 17.22 35.0096 35.04 30.6096L156.25 3.48959C156.73 3.37959 157.21 3.32959 157.7 3.32959C161.26 3.32959 164.14 6.11959 164.27 9.66959C165.11 32.6996 164.74 34.4196 164.59 35.0696C164.44 35.7596 164.05 36.4796 163.33 37.3896C163.15 37.6296 162.93 37.8796 162.7 38.1496C162.47 38.4096 162.23 38.6796 161.96 38.9796C161.79 39.1596 161.61 39.3496 161.42 39.5496C158.87 42.1996 155.07 45.6096 152.01 48.3496C151.18 49.0996 150.42 49.7796 149.77 50.3596C149.48 50.6296 149.21 50.8696 148.97 51.0896C148.24 51.7696 148.08 51.9496 148.05 51.9796C148.05 51.9796 147.82 52.3196 147.7 53.4496C147.67 53.7296 147.65 54.0196 147.64 54.2896C147.64 54.4396 147.64 54.5796 147.64 54.7196C147.64 55.0196 147.64 55.2896 147.65 55.5196L147.67 55.8596C147.68 56.0596 147.71 56.3996 147.71 56.3996L151.1 73.7696C159.69 117.78 164.72 143.3 165.29 145.64C165.99 148.55 169.75 151.51 171.01 152.31C171.22 152.45 189.17 164.28 198.77 171.69L200.07 172.71L200.7 173.21C201.55 173.9 202.26 174.5 202.85 175.03C202.85 175.03 203.39 175.52 203.39 175.53L203.81 175.93L204.18 176.31L204.5 176.67C204.57 176.76 204.82 177.06 204.82 177.06C204.88 177.14 204.94 177.22 204.99 177.29L205.1 177.45C205.17 177.57 205.23 177.66 205.28 177.75C205.3 177.78 205.35 177.88 205.37 177.92C205.47 178.12 205.53 178.3 205.58 178.46C205.59 178.5 205.6 178.53 205.61 178.57C205.68 178.86 205.73 179.11 205.77 179.35C205.77 179.39 205.79 179.5 205.8 179.54C205.83 179.71 205.85 179.89 205.87 180.06C205.87 180.1 205.88 180.23 205.88 180.26C205.89 180.43 205.9 180.59 205.9 180.74C205.9 180.78 205.9 180.89 205.9 180.93C205.9 181.1 205.9 181.25 205.88 181.39C205.88 181.42 205.87 181.53 205.86 181.57C205.84 181.72 205.83 181.86 205.81 181.99C205.81 182.03 205.78 182.13 205.78 182.17C205.75 182.3 205.72 182.45 205.69 182.58C205.69 182.61 205.66 182.69 205.65 182.71C205.61 182.84 205.57 182.97 205.53 183.1C205.53 183.11 205.5 183.19 205.49 183.2C205.43 183.35 205.38 183.47 205.33 183.58C205.32 183.61 205.28 183.68 205.27 183.71C205.23 183.79 205.17 183.9 205.11 184C205 184.19 204.93 184.29 204.87 184.38C204.76 184.53 204.7 184.62 204.63 184.7C204.51 184.84 204.45 184.91 204.39 184.98C204.3 185.07 204.24 185.14 204.18 185.19C204.1 185.26 204.05 185.31 204.01 185.34L203.27 225.44C203.25 226.51 202.56 227.44 201.54 227.77L195.91 229.59V231.44C195.61 296.51 195.13 405.96 195.1 407.79C195.06 411.11 191.46 413.69 188.39 413.69C187.04 413.69 185.82 413.24 184.85 412.4C184.59 412.18 184.36 411.95 184.14 411.72L82.16 444.77C82.16 445.65 82.16 445.72 82.16 445.8C82.05 447.85 81.37 450.63 76.78 450.9C76.63 450.9 76.47 450.91 76.32 450.91L76.31 450.93Z" fill="#CDF425"/>
<path d="M157.7 5.82982C159.84 5.82982 161.69 7.51982 161.78 9.76982C162.07 17.7198 162.56 32.7298 162.16 34.5398C162.09 34.8498 161.81 35.2998 161.38 35.8598C161.22 36.0598 161.03 36.2898 160.83 36.5198C160.62 36.7598 160.4 37.0098 160.15 37.2798C159.99 37.4498 159.82 37.6298 159.64 37.8198C156.45 41.1298 151.05 45.8498 148.11 48.5198C147.81 48.7898 147.54 49.0398 147.3 49.2698C147.28 49.2898 147.26 49.3098 147.24 49.3198C146.73 49.7998 146.36 50.1598 146.18 50.3698C145.62 51.0198 145.35 52.1098 145.24 53.1998C145.2 53.5398 145.18 53.8898 145.17 54.2198C145.17 54.3898 145.17 54.5598 145.17 54.7298C145.17 55.0598 145.17 55.3698 145.19 55.6398C145.19 55.7798 145.2 55.9098 145.21 56.0198C145.22 56.2498 145.24 56.4398 145.25 56.5798C145.26 56.7098 145.27 56.7898 145.27 56.7898C145.27 56.7898 145.28 56.8498 145.3 56.9398C145.32 57.0398 145.35 57.1798 145.38 57.3598C145.42 57.5498 145.47 57.8098 145.52 58.0998C145.62 58.6098 145.75 59.2598 145.9 60.0498C145.93 60.2098 145.96 60.3698 146 60.5398C146.6 63.6398 147.54 68.4598 148.68 74.2798C153.58 99.3898 162.12 143.04 162.89 146.26C163.98 150.8 169.69 154.46 169.69 154.46C169.69 154.46 187.64 166.28 197.27 173.71C197.27 173.71 197.29 173.73 197.3 173.73C197.51 173.89 197.72 174.05 197.92 174.21C197.94 174.22 197.95 174.23 197.97 174.25C198.17 174.4 198.36 174.56 198.55 174.71C198.57 174.72 198.58 174.74 198.6 174.75C198.79 174.9 198.98 175.05 199.16 175.2C199.16 175.2 199.18 175.22 199.19 175.22C199.96 175.84 200.64 176.42 201.22 176.93C201.24 176.95 201.26 176.97 201.28 176.99C201.4 177.09 201.51 177.2 201.61 177.3C201.64 177.33 201.68 177.36 201.71 177.39C201.8 177.47 201.88 177.56 201.97 177.63C202.01 177.67 202.04 177.7 202.08 177.74C202.15 177.81 202.22 177.88 202.28 177.95C202.32 177.99 202.35 178.03 202.39 178.06C202.45 178.12 202.5 178.18 202.56 178.24C202.59 178.28 202.63 178.31 202.66 178.35C202.71 178.41 202.75 178.46 202.79 178.51C202.82 178.54 202.85 178.58 202.87 178.61C202.91 178.66 202.94 178.71 202.97 178.75C202.99 178.78 203.01 178.81 203.03 178.84C203.06 178.89 203.09 178.93 203.11 178.98C203.12 179 203.14 179.03 203.15 179.05C203.18 179.11 203.2 179.17 203.21 179.22C203.26 179.42 203.3 179.61 203.33 179.79C203.33 179.84 203.34 179.88 203.35 179.93C203.37 180.06 203.39 180.19 203.4 180.31C203.4 180.36 203.4 180.41 203.4 180.46C203.4 180.57 203.41 180.68 203.42 180.79C203.42 180.84 203.42 180.88 203.42 180.93C203.42 181.03 203.42 181.13 203.41 181.23C203.41 181.27 203.41 181.31 203.4 181.35C203.4 181.44 203.38 181.54 203.37 181.62C203.37 181.65 203.36 181.69 203.35 181.72C203.33 181.81 203.32 181.89 203.3 181.97C203.3 182 203.28 182.02 203.28 182.05C203.26 182.13 203.23 182.21 203.21 182.28C203.21 182.3 203.19 182.32 203.18 182.35C203.15 182.42 203.12 182.49 203.09 182.56C203.09 182.58 203.07 182.59 203.06 182.61C203.03 182.68 203 182.74 202.96 182.79C202.96 182.8 202.94 182.82 202.94 182.83C202.91 182.89 202.87 182.94 202.84 182.99C202.84 183 202.83 183.01 202.82 183.02C202.79 183.07 202.75 183.11 202.72 183.16C202.72 183.16 202.71 183.18 202.7 183.18C202.67 183.22 202.64 183.26 202.61 183.29C202.61 183.29 202.6 183.3 202.59 183.31C202.56 183.34 202.53 183.37 202.51 183.39C202.51 183.39 202.5 183.4 202.49 183.41C202.47 183.43 202.45 183.45 202.43 183.46C202.43 183.46 202.42 183.47 202.41 183.48C202.4 183.49 202.39 183.5 202.38 183.5C202.36 183.51 202.35 183.52 202.35 183.52L201.57 183.75L200.8 225.43L193.44 227.81C193.39 238.37 192.65 405.57 192.63 407.81C192.61 409.53 190.41 411.23 188.42 411.23C187.73 411.23 187.07 411.03 186.52 410.55C185.77 409.9 185.38 409.3 185.18 408.79L79.69 442.98C79.69 444.64 79.69 445.58 79.69 445.69C79.61 447.21 79.35 448.27 76.66 448.44C76.56 448.44 76.46 448.44 76.36 448.44C75.34 448.44 74.49 448.13 73.84 447.76C73.84 447.78 73.84 447.8 73.84 447.8L5.77003 407.27C5.30003 397.79 5.64003 47.9598 5.77003 46.9998C5.79003 46.8898 5.80003 46.7598 5.81003 46.6298C5.77003 45.7598 5.76003 45.2798 5.77003 45.2298C5.91003 44.2498 5.90002 42.3798 7.64002 40.9598C9.38002 39.5498 35.69 33.0398 35.69 33.0398L156.85 5.92982C157.15 5.85982 157.45 5.82982 157.75 5.82982M157.7 0.829824C157.03 0.829824 156.36 0.899825 155.71 1.04982L34.55 28.1598C34.55 28.1598 34.48 28.1798 34.44 28.1898C7.04003 34.9598 5.35003 36.3398 4.43003 37.0798C1.31003 39.6198 0.950026 42.8898 0.790026 44.2898C0.790026 44.3798 0.770024 44.4598 0.760024 44.5298C0.690024 45.0198 0.700024 45.2898 0.760024 46.6498C0.620024 59.1098 0.180027 396.52 0.720027 407.51C0.800027 409.18 1.72003 410.7 3.16003 411.56L71.23 452.09C71.49 452.24 71.76 452.37 72.04 452.48C73.4 453.12 74.83 453.44 76.32 453.44C76.52 453.44 76.72 453.44 76.92 453.42C79.56 453.26 83.96 452.15 84.59 446.63L183.52 414.57C184.9 415.65 186.57 416.22 188.39 416.22C192.7 416.22 197.54 412.78 197.6 407.85C197.62 405.74 198.27 261.15 198.4 231.43L202.31 230.16C204.34 229.5 205.73 227.63 205.77 225.5L206.49 186.39C206.49 186.39 206.51 186.37 206.52 186.35C206.52 186.34 206.56 186.3 206.57 186.29C206.68 186.15 206.78 186.02 206.88 185.88C206.9 185.86 206.91 185.83 206.92 185.82C207.02 185.67 207.12 185.52 207.21 185.37C207.23 185.34 207.26 185.28 207.28 185.25C207.36 185.11 207.45 184.94 207.53 184.77L207.59 184.64C207.67 184.47 207.74 184.3 207.81 184.11C207.82 184.07 207.85 184.02 207.87 183.96C207.94 183.77 208 183.59 208.05 183.4C208.06 183.36 208.08 183.29 208.1 183.21C208.15 183.03 208.19 182.84 208.23 182.64C208.24 182.59 208.26 182.5 208.27 182.41C208.3 182.23 208.32 182.05 208.34 181.86C208.35 181.77 208.36 181.67 208.37 181.58C208.38 181.4 208.39 181.21 208.39 181.02C208.39 180.92 208.39 180.82 208.39 180.72C208.39 180.54 208.38 180.34 208.37 180.14C208.37 180.04 208.36 179.94 208.35 179.84C208.33 179.64 208.3 179.43 208.27 179.22C208.26 179.12 208.24 179.03 208.23 178.93C208.18 178.62 208.11 178.31 208.04 178.01C208.02 177.93 208 177.85 207.97 177.77C207.88 177.47 207.76 177.16 207.62 176.87C207.57 176.77 207.5 176.64 207.44 176.53C207.37 176.4 207.29 176.26 207.19 176.11C207.13 176.02 207.08 175.94 207.02 175.86C206.95 175.76 206.87 175.65 206.78 175.53C206.73 175.46 206.68 175.4 206.62 175.33C206.55 175.24 206.47 175.14 206.38 175.05L206.23 174.88C206.15 174.79 206.06 174.7 205.97 174.6L205.82 174.45C205.74 174.36 205.65 174.27 205.55 174.18L205.51 174.14L205.4 174.03C205.3 173.93 205.19 173.83 205.08 173.72L204.96 173.61C204.83 173.49 204.7 173.37 204.56 173.25L204.49 173.19C203.87 172.63 203.12 172 202.27 171.31C202.05 171.13 201.85 170.97 201.65 170.81C201.65 170.81 201.62 170.78 201.61 170.78L201 170.3L200.95 170.26C200.74 170.09 200.52 169.93 200.3 169.76L200.26 169.73C190.6 162.28 173.13 150.76 172.39 150.27C172.37 150.26 172.35 150.25 172.33 150.23C170.71 149.18 168.11 146.81 167.69 145.08C167.14 142.8 161.98 116.64 153.53 73.3098L150.85 59.5698L150.82 59.4298L150.75 59.0798L150.5 57.7698L150.38 57.1298L150.24 56.3898V56.3098L150.17 56.0498C150.17 55.9598 150.15 55.8398 150.15 55.7098C150.15 55.6198 150.14 55.5298 150.14 55.4198C150.14 55.2098 150.13 54.9798 150.13 54.7398C150.13 54.6198 150.13 54.4998 150.13 54.3798C150.13 54.1498 150.15 53.9298 150.18 53.7198C150.2 53.5598 150.22 53.4298 150.23 53.3298C150.33 53.2398 150.45 53.1198 150.62 52.9698L150.69 52.9098C150.91 52.7098 151.17 52.4698 151.45 52.2098C152.09 51.6298 152.84 50.9498 153.67 50.2098C156.76 47.4398 160.61 43.9898 163.22 41.2698C163.41 41.0698 163.6 40.8698 163.78 40.6698C164.07 40.3598 164.34 40.0598 164.58 39.7798C164.84 39.4798 165.08 39.1898 165.29 38.9298C166.25 37.7098 166.78 36.6798 167.02 35.5998C167.23 34.6698 167.61 32.9298 166.75 9.56982C166.57 4.65982 162.59 0.819824 157.68 0.819824L157.7 0.829824Z" fill="#CDF425"/>
<path fill-rule="evenodd" clip-rule="evenodd" d="M193.41 227.27C193.41 227.27 192.62 405.48 192.59 407.79C192.56 410.1 188.6 412.39 186.48 410.54C184.36 408.69 185.07 407.26 185.07 407.26L184.74 227.27H193.41Z" fill="url(#paint0_linear_1611_478)"/>
<path fill-rule="evenodd" clip-rule="evenodd" d="M15.6101 249.63L23.5601 258.38C23.5601 258.38 24.7601 260.18 25.9501 261.26C27.1501 262.35 72.2901 446.54 72.2901 446.54C72.2901 446.54 73.9201 448.58 76.6201 448.42C79.3101 448.26 79.5701 447.2 79.6501 445.67C79.7301 444.15 78.9901 266.64 78.9901 266.64C78.9901 266.64 78.8401 265.78 79.5801 265.78C80.3201 265.78 83.5001 266.76 84.5901 265.86C85.6801 264.96 86.2801 264.5 86.2501 261.81C86.2201 259.12 86.0301 217.73 86.0301 217.73L202.32 183.5C202.32 183.5 203.98 182.41 203.19 179.2C202.4 175.99 169.67 154.44 169.67 154.44C169.67 154.44 163.95 150.79 162.87 146.24C161.78 141.7 145.25 56.7797 145.25 56.7797C145.25 56.7797 144.71 52.0697 146.17 50.3597C147.64 48.6497 161.61 37.0097 162.15 34.5397C162.55 32.7297 162.06 17.7297 161.77 9.76969C161.68 7.21969 159.29 5.37969 156.79 5.92969L35.6301 33.0397C35.6301 33.0397 9.32007 39.5397 7.58007 40.9597C5.84007 42.3697 5.85007 44.2497 5.71007 45.2297C5.57007 46.2097 15.6001 249.64 15.6001 249.64L15.6101 249.63Z" fill="url(#paint1_linear_1611_478)"/>
<path fill-rule="evenodd" clip-rule="evenodd" d="M145.25 56.78C145.25 56.78 144.71 52.07 146.17 50.36C147.64 48.65 161.61 37.01 162.15 34.54C162.19 34.35 162.22 33.23 162.25 32.75L34.97 63.52L15.86 76.79L17.37 102.96L148.65 74.27C146.64 63.97 145.24 56.78 145.24 56.78H145.25Z" fill="url(#paint2_linear_1611_478)"/>
<path fill-rule="evenodd" clip-rule="evenodd" d="M203.19 179.2C202.97 178.31 200.31 176.02 196.58 173.18L63.4299 205.64L80.3699 216.73C80.3699 216.73 189.48 187.06 201.53 183.73C201.8 183.65 202.06 183.58 202.33 183.51C202.45 183.43 203.95 182.31 203.19 179.22V179.2Z" fill="url(#paint3_linear_1611_478)"/>
<path fill-rule="evenodd" clip-rule="evenodd" d="M80.37 216.72L45.51 186.82C43.3 184.92 41.79 182.34 41.24 179.48C37.86 162.05 26.16 101.53 25.13 97.21C23.93 92.2 22.69 83.27 23.67 78.43C24.28 75.4 28.02 70.96 31.65 68.49C34.03 66.87 35.36 64.11 35.12 61.25C34.48 53.52 33.27 39.05 33.19 38.21C33.19 38.21 8.59001 44.52 7.02001 45.31C6.40001 45.62 6.02001 46.03 5.79001 46.41C5.77001 46.63 5.75001 46.83 5.72001 47C5.59001 47.96 5.25001 397.79 5.72001 407.27L73.79 447.8C73.79 447.8 73.3 277.18 73.14 270.11C72.98 263.04 74.02 262.7 74.98 261.99C75.93 261.28 77.67 261.26 78.48 261.66C79.28 262.07 81.01 262.05 81.01 262.05L80.38 216.72H80.37Z" fill="url(#paint4_linear_1611_478)"/>
<path fill-rule="evenodd" clip-rule="evenodd" d="M40.35 37.6199L155.52 11.6499L156.44 34.1299L41.88 61.5999L40.35 37.6199Z" fill="url(#paint5_linear_1611_478)"/>
<path fill-rule="evenodd" clip-rule="evenodd" d="M34.8501 74.6599C34.8501 74.6599 31.7201 76.2399 30.0601 78.5499C28.4001 80.8599 28.7501 85.4599 29.2701 88.4299C29.7901 91.3999 41.3301 156.93 48.0201 179.09C48.3901 180.32 49.2101 181.66 50.3901 182.64C51.5401 183.6 51.7801 183.36 51.7801 183.36L158.51 151.59L137.9 50.8799L34.8501 74.6599Z" fill="url(#paint6_linear_1611_478)"/>
<path fill-rule="evenodd" clip-rule="evenodd" d="M42.0001 63.1299C42.0001 63.1299 42.4401 65.7099 41.5101 67.6999C40.5801 69.6899 33.4301 75.4799 33.4301 75.4799L134.72 51.6299C134.72 51.6299 150.4 37.5299 148.14 38.2099C145.88 38.8899 42.0001 63.1299 42.0001 63.1299Z" fill="url(#paint7_linear_1611_478)"/>
<path fill-rule="evenodd" clip-rule="evenodd" d="M53.1201 169.62L35.7101 85.04L132.74 63.52L149.51 143.29L53.1201 169.62Z" fill="#222222"/>
<path fill-rule="evenodd" clip-rule="evenodd" d="M59.17 164.03L42.79 89.2596L128.28 68.8496L143.96 140.95L59.17 164.03Z" fill="url(#paint8_linear_1611_478)"/>
<path fill-rule="evenodd" clip-rule="evenodd" d="M50.39 182.64L82.44 210.88L193.46 179.67C193.46 179.67 195.61 179.32 195.01 178.47C194.41 177.62 158.51 151.59 158.51 151.59L50.39 182.63V182.64Z" fill="url(#paint9_linear_1611_478)"/>
<path opacity="0.54" d="M172.22 172.94C175.766 172.94 178.64 171.717 178.64 170.21C178.64 168.702 175.766 167.48 172.22 167.48C168.674 167.48 165.8 168.702 165.8 170.21C165.8 171.717 168.674 172.94 172.22 172.94Z" fill="#222222"/>
<path opacity="0.54" d="M162.16 165.03C165.706 165.03 168.58 163.808 168.58 162.3C168.58 160.792 165.706 159.57 162.16 159.57C158.614 159.57 155.74 160.792 155.74 162.3C155.74 163.808 158.614 165.03 162.16 165.03Z" fill="#222222"/>
<path opacity="0.54" fill-rule="evenodd" clip-rule="evenodd" d="M155.21 165.79C155.21 167.3 152.33 168.52 148.79 168.52C145.24 168.52 142.37 167.3 142.37 165.79C142.37 164.28 145.25 163.06 148.79 163.06C152.33 163.06 155.21 164.28 155.21 165.79Z" fill="#222222"/>
<path opacity="0.54" d="M158.51 176.45C162.056 176.45 164.93 175.227 164.93 173.72C164.93 172.212 162.056 170.99 158.51 170.99C154.964 170.99 152.09 172.212 152.09 173.72C152.09 175.227 154.964 176.45 158.51 176.45Z" fill="#222222"/>
<path opacity="0.54" fill-rule="evenodd" clip-rule="evenodd" d="M91.3001 196.07C98.8601 196.07 105.02 193.84 105.02 191.1C105.02 188.36 98.8601 186.13 91.3001 186.13C83.7401 186.13 77.5801 188.36 77.5801 191.1C77.5801 193.84 83.7401 196.07 91.3001 196.07Z" fill="#222222"/>
<path d="M91.09 192.48C94.7571 192.48 97.7299 191.629 97.7299 190.58C97.7299 189.53 94.7571 188.68 91.09 188.68C87.4228 188.68 84.45 189.53 84.45 190.58C84.45 191.629 87.4228 192.48 91.09 192.48Z" fill="url(#paint10_linear_1611_478)"/>
<path fill-rule="evenodd" clip-rule="evenodd" d="M116.94 172.08V172.11V172.14C116.9 172.76 115.72 173.25 114.27 173.25C112.82 173.25 111.6 172.74 111.6 172.11V170.42H116.93V172.08H116.94Z" fill="url(#paint11_linear_1611_478)"/>
<path fill-rule="evenodd" clip-rule="evenodd" d="M87.1699 181.11H95.1699V190.61C94.1299 190.91 92.6899 191.1 91.0899 191.1C89.5699 191.1 88.1899 190.93 87.1699 190.66V181.12V181.11Z" fill="url(#paint12_linear_1611_478)"/>
<path d="M99.5954 180.466C104.153 175.909 104.153 168.52 99.5954 163.962C95.038 159.405 87.649 159.405 83.0915 163.962C78.5341 168.52 78.5341 175.909 83.0915 180.466C87.649 185.024 95.038 185.024 99.5954 180.466Z" fill="url(#paint13_linear_1611_478)"/>
<path fill-rule="evenodd" clip-rule="evenodd" d="M114.27 171.56C115.74 171.56 116.94 171.05 116.94 170.42C116.94 169.79 115.74 169.28 114.27 169.28C112.8 169.28 111.6 169.79 111.6 170.42C111.6 171.05 112.8 171.56 114.27 171.56Z" fill="#ED2E7B"/>
<path fill-rule="evenodd" clip-rule="evenodd" d="M167.76 161.6C167.76 161.6 167.76 161.68 167.76 161.72C167.76 163.07 165.07 164.16 161.74 164.16C158.52 164.16 155.89 163.13 155.73 161.84C155.73 161.84 155.73 161.76 155.73 161.72C155.73 161.68 155.73 161.64 155.73 161.6V158.84L167.75 158.72V161.61L167.76 161.6Z" fill="url(#paint14_linear_1611_478)"/>
<path fill-rule="evenodd" clip-rule="evenodd" d="M161.76 161.27C165.07 161.27 167.78 160.17 167.78 158.83C167.78 157.48 165.08 156.39 161.76 156.39C158.45 156.39 155.74 157.49 155.74 158.83C155.74 160.17 158.44 161.27 161.76 161.27Z" fill="#ED2E7B"/>
<path fill-rule="evenodd" clip-rule="evenodd" d="M163.92 173.27C163.92 173.27 163.92 173.35 163.92 173.39C163.92 174.74 161.23 175.83 157.9 175.83C154.68 175.83 152.05 174.8 151.89 173.51C151.89 173.51 151.89 173.43 151.89 173.39C151.89 173.35 151.89 173.31 151.89 173.27V170.51L163.91 170.39V173.28L163.92 173.27Z" fill="url(#paint15_linear_1611_478)"/>
<path fill-rule="evenodd" clip-rule="evenodd" d="M157.91 172.94C161.22 172.94 163.93 171.84 163.93 170.5C163.93 169.15 161.23 168.06 157.91 168.06C154.6 168.06 151.89 169.16 151.89 170.5C151.89 171.84 154.59 172.94 157.91 172.94Z" fill="#ED2E7B"/>
<path fill-rule="evenodd" clip-rule="evenodd" d="M154.38 165.19C154.38 165.19 154.38 165.27 154.38 165.31C154.38 165.35 151.69 167.75 148.36 167.75C145.03 167.75 142.51 166.72 142.35 165.43C142.35 165.43 142.35 165.35 142.35 165.31C142.35 165.27 142.35 165.23 142.35 165.19V162.43L154.37 162.31V165.2L154.38 165.19Z" fill="url(#paint16_linear_1611_478)"/>
<path fill-rule="evenodd" clip-rule="evenodd" d="M148.37 164.86C151.68 164.86 154.39 163.76 154.39 162.42C154.39 161.07 151.69 159.98 148.37 159.98C145.05 159.98 142.35 161.08 142.35 162.42C142.35 163.76 145.05 164.86 148.37 164.86Z" fill="#ED2E7B"/>
<path fill-rule="evenodd" clip-rule="evenodd" d="M177.6 169.38C177.6 169.38 177.6 169.46 177.6 169.5C177.6 169.54 174.91 171.94 171.58 171.94C168.36 171.94 165.73 170.91 165.57 169.62C165.57 169.62 165.57 169.54 165.57 169.5C165.57 169.46 165.57 169.42 165.57 169.38V166.62L177.59 166.5V169.39L177.6 169.38Z" fill="url(#paint17_linear_1611_478)"/>
<path fill-rule="evenodd" clip-rule="evenodd" d="M171.59 169.05C174.9 169.05 177.61 167.95 177.61 166.61C177.61 165.26 174.91 164.17 171.59 164.17C168.27 164.17 165.57 165.27 165.57 166.61C165.57 167.95 168.27 169.05 171.59 169.05Z" fill="#ED2E7B"/>
<path fill-rule="evenodd" clip-rule="evenodd" d="M133.75 167.26V167.29V167.32C133.71 167.94 132.53 168.43 131.08 168.43C129.63 168.43 128.41 167.92 128.41 167.29V165.6H133.74V167.26H133.75Z" fill="url(#paint18_linear_1611_478)"/>
<path fill-rule="evenodd" clip-rule="evenodd" d="M131.08 166.75C132.55 166.75 133.75 166.24 133.75 165.61C133.75 164.98 132.55 164.47 131.08 164.47C129.61 164.47 128.41 164.98 128.41 165.61C128.41 166.24 129.61 166.75 131.08 166.75Z" fill="#ED2E7B"/>
<path fill-rule="evenodd" clip-rule="evenodd" d="M84.7999 262.96L200.76 225.41L201.53 183.72L84.4199 216.1L84.7999 262.96Z" fill="url(#paint19_linear_1611_478)"/>
<path fill-rule="evenodd" clip-rule="evenodd" d="M79.6099 442.98L187.57 408L187.88 229.58L84.7999 262.96L78.8999 261.74L79.6099 442.98Z" fill="url(#paint20_linear_1611_478)"/>
<path fill-rule="evenodd" clip-rule="evenodd" d="M127.85 79.3199C127.09 75.8499 123.64 73.6598 120.18 74.4498L51.48 90.2398L115.36 85.3199C118.15 85.0999 120.76 86.7398 121.79 89.3398L140.19 135.92L127.85 79.3199Z" fill="url(#paint21_linear_1611_478)"/>
<path fill-rule="evenodd" clip-rule="evenodd" d="M47.73 52.9999L90.39 31.6799L89.11 38.1799L110.21 26.4899L107.28 33.6599L129.46 21.2999L128.04 26.1999L150.6 16.1099L120.02 38.1799L121.25 32.7499L100.58 43.9399L101.43 36.6299L80.29 48.6599L82.65 40.6399L47.73 52.9999Z" fill="#CDF425"/>
<defs>
<linearGradient id="paint0_linear_1611_478" x1="-67.9199" y1="-697.84" x2="133.67" y2="98.4198" gradientUnits="userSpaceOnUse">
<stop stop-color="#222222"/>
<stop offset="0.27" stop-color="#212423"/>
<stop offset="0.42" stop-color="#202C28"/>
<stop offset="0.54" stop-color="#1D3A30"/>
<stop offset="0.65" stop-color="#194E3C"/>
<stop offset="0.75" stop-color="#15674B"/>
<stop offset="0.83" stop-color="#0F865E"/>
<stop offset="0.92" stop-color="#08AC74"/>
<stop offset="0.99" stop-color="#00D68D"/>
<stop offset="1" stop-color="#00DA90"/>
</linearGradient>
<linearGradient id="paint1_linear_1611_478" x1="78.7101" y1="8.40969" x2="112.49" y2="235.03" gradientUnits="userSpaceOnUse">
<stop offset="0.26" stop-color="#00A46B"/>
<stop offset="0.32" stop-color="#12AE74"/>
<stop offset="0.45" stop-color="#42CB8B"/>
<stop offset="0.63" stop-color="#8EF8B1"/>
<stop offset="0.65" stop-color="#98FEB6"/>
<stop offset="0.71" stop-color="#84F5AF"/>
<stop offset="0.83" stop-color="#51E19C"/>
<stop offset="1" stop-color="#00C080"/>
</linearGradient>
<linearGradient id="paint2_linear_1611_478" x1="87.68" y1="47.25" x2="97.54" y2="142.26" gradientUnits="userSpaceOnUse">
<stop stop-color="#00DA90"/>
<stop offset="1" stop-color="#007651"/>
</linearGradient>
<linearGradient id="paint3_linear_1611_478" x1="135.63" y1="200.46" x2="133.49" y2="193.03" gradientUnits="userSpaceOnUse">
<stop stop-color="#00BE7F"/>
<stop offset="1" stop-color="#80F0AA" stop-opacity="0"/>
</linearGradient>
<linearGradient id="paint4_linear_1611_478" x1="182.35" y1="241.78" x2="-41.98" y2="243.9" gradientUnits="userSpaceOnUse">
<stop stop-color="#222222"/>
<stop offset="0.27" stop-color="#212423"/>
<stop offset="0.42" stop-color="#202C28"/>
<stop offset="0.54" stop-color="#1D3A30"/>
<stop offset="0.65" stop-color="#194E3C"/>
<stop offset="0.75" stop-color="#15674B"/>
<stop offset="0.83" stop-color="#0F865E"/>
<stop offset="0.92" stop-color="#08AC74"/>
<stop offset="0.99" stop-color="#00D68D"/>
<stop offset="1" stop-color="#00DA90"/>
</linearGradient>
<linearGradient id="paint5_linear_1611_478" x1="89.58" y1="-1.8801" x2="100.4" y2="43.7799" gradientUnits="userSpaceOnUse">
<stop offset="0.26" stop-color="#00A46B"/>
<stop offset="0.77" stop-color="#00B678"/>
<stop offset="1" stop-color="#00C080"/>
</linearGradient>
<linearGradient id="paint6_linear_1611_478" x1="78.6901" y1="64.9099" x2="113.17" y2="185.96" gradientUnits="userSpaceOnUse">
<stop stop-color="#004D37"/>
<stop offset="0.1" stop-color="#006848"/>
<stop offset="0.35" stop-color="#00A56E"/>
<stop offset="0.54" stop-color="#00CB86"/>
<stop offset="0.63" stop-color="#00DA90"/>
<stop offset="0.68" stop-color="#00D28B"/>
<stop offset="0.75" stop-color="#00BE7E"/>
<stop offset="0.84" stop-color="#009E6A"/>
<stop offset="0.94" stop-color="#00714E"/>
<stop offset="1" stop-color="#005039"/>
</linearGradient>
<linearGradient id="paint7_linear_1611_478" x1="91.9501" y1="62.4299" x2="89.8301" y2="51.1299" gradientUnits="userSpaceOnUse">
<stop stop-color="#1B4738"/>
<stop offset="0.54" stop-color="#194D3C"/>
<stop offset="1" stop-color="#185842"/>
</linearGradient>
<linearGradient id="paint8_linear_1611_478" x1="105.01" y1="146.55" x2="69.53" y2="51.7996" gradientUnits="userSpaceOnUse">
<stop stop-color="#ED2E7B"/>
<stop offset="1" stop-color="#222222"/>
</linearGradient>
<linearGradient id="paint9_linear_1611_478" x1="142.79" y1="229.05" x2="101.27" y2="128.76" gradientUnits="userSpaceOnUse">
<stop stop-color="#00DA90"/>
<stop offset="1" stop-color="#007651"/>
</linearGradient>
<linearGradient id="paint10_linear_1611_478" x1="84.45" y1="190.58" x2="97.7399" y2="190.58" gradientUnits="userSpaceOnUse">
<stop stop-color="#882E55"/>
<stop offset="0.16" stop-color="#B13369"/>
<stop offset="0.36" stop-color="#E73A85"/>
<stop offset="0.44" stop-color="#E23982"/>
<stop offset="0.53" stop-color="#D3377B"/>
<stop offset="0.63" stop-color="#BB346F"/>
<stop offset="0.73" stop-color="#99305E"/>
<stop offset="0.84" stop-color="#6E2B48"/>
<stop offset="0.95" stop-color="#3A252E"/>
<stop offset="1" stop-color="#222222"/>
</linearGradient>
<linearGradient id="paint11_linear_1611_478" x1="111.61" y1="171.83" x2="116.94" y2="171.83" gradientUnits="userSpaceOnUse">
<stop stop-color="#882E55"/>
<stop offset="0.16" stop-color="#B13369"/>
<stop offset="0.36" stop-color="#E73A85"/>
<stop offset="0.44" stop-color="#E23982"/>
<stop offset="0.53" stop-color="#D3377B"/>
<stop offset="0.63" stop-color="#BB346F"/>
<stop offset="0.73" stop-color="#99305E"/>
<stop offset="0.84" stop-color="#6E2B48"/>
<stop offset="0.95" stop-color="#3A252E"/>
<stop offset="1" stop-color="#222222"/>
</linearGradient>
<linearGradient id="paint12_linear_1611_478" x1="94.9199" y1="186.71" x2="87.1799" y2="185.01" gradientUnits="userSpaceOnUse">
<stop stop-color="#222222"/>
<stop offset="0.19" stop-color="#282828"/>
<stop offset="0.46" stop-color="#3B3B3B"/>
<stop offset="0.65" stop-color="#4D4D4D"/>
<stop offset="0.83" stop-color="#393939"/>
<stop offset="1" stop-color="#222222"/>
</linearGradient>
<linearGradient id="paint13_linear_1611_478" x1="96.4204" y1="182.5" x2="88.9304" y2="167.33" gradientUnits="userSpaceOnUse">
<stop stop-color="#CA971A"/>
<stop offset="0.99" stop-color="#CDF425"/>
</linearGradient>
<linearGradient id="paint14_linear_1611_478" x1="155.74" y1="161.44" x2="167.78" y2="161.44" gradientUnits="userSpaceOnUse">
<stop stop-color="#882E55"/>
<stop offset="0.16" stop-color="#B13369"/>
<stop offset="0.36" stop-color="#E73A85"/>
<stop offset="0.44" stop-color="#E23982"/>
<stop offset="0.53" stop-color="#D3377B"/>
<stop offset="0.63" stop-color="#BB346F"/>
<stop offset="0.73" stop-color="#99305E"/>
<stop offset="0.84" stop-color="#6E2B48"/>
<stop offset="0.95" stop-color="#3A252E"/>
<stop offset="1" stop-color="#222222"/>
</linearGradient>
<linearGradient id="paint15_linear_1611_478" x1="151.9" y1="173.1" x2="163.93" y2="173.1" gradientUnits="userSpaceOnUse">
<stop stop-color="#882E55"/>
<stop offset="0.16" stop-color="#B13369"/>
<stop offset="0.36" stop-color="#E73A85"/>
<stop offset="0.44" stop-color="#E23982"/>
<stop offset="0.53" stop-color="#D3377B"/>
<stop offset="0.63" stop-color="#BB346F"/>
<stop offset="0.73" stop-color="#99305E"/>
<stop offset="0.84" stop-color="#6E2B48"/>
<stop offset="0.95" stop-color="#3A252E"/>
<stop offset="1" stop-color="#222222"/>
</linearGradient>
<linearGradient id="paint16_linear_1611_478" x1="142.36" y1="165.03" x2="154.39" y2="165.03" gradientUnits="userSpaceOnUse">
<stop stop-color="#882E55"/>
<stop offset="0.16" stop-color="#B13369"/>
<stop offset="0.36" stop-color="#E73A85"/>
<stop offset="0.44" stop-color="#E23982"/>
<stop offset="0.53" stop-color="#D3377B"/>
<stop offset="0.63" stop-color="#BB346F"/>
<stop offset="0.73" stop-color="#99305E"/>
<stop offset="0.84" stop-color="#6E2B48"/>
<stop offset="0.95" stop-color="#3A252E"/>
<stop offset="1" stop-color="#222222"/>
</linearGradient>
<linearGradient id="paint17_linear_1611_478" x1="165.58" y1="169.21" x2="177.61" y2="169.21" gradientUnits="userSpaceOnUse">
<stop stop-color="#882E55"/>
<stop offset="0.16" stop-color="#B13369"/>
<stop offset="0.36" stop-color="#E73A85"/>
<stop offset="0.44" stop-color="#E23982"/>
<stop offset="0.53" stop-color="#D3377B"/>
<stop offset="0.63" stop-color="#BB346F"/>
<stop offset="0.73" stop-color="#99305E"/>
<stop offset="0.84" stop-color="#6E2B48"/>
<stop offset="0.95" stop-color="#3A252E"/>
<stop offset="1" stop-color="#222222"/>
</linearGradient>
<linearGradient id="paint18_linear_1611_478" x1="128.42" y1="167.02" x2="133.75" y2="167.02" gradientUnits="userSpaceOnUse">
<stop stop-color="#882E55"/>
<stop offset="0.16" stop-color="#B13369"/>
<stop offset="0.36" stop-color="#E73A85"/>
<stop offset="0.44" stop-color="#E23982"/>
<stop offset="0.53" stop-color="#D3377B"/>
<stop offset="0.63" stop-color="#BB346F"/>
<stop offset="0.73" stop-color="#99305E"/>
<stop offset="0.84" stop-color="#6E2B48"/>
<stop offset="0.95" stop-color="#3A252E"/>
<stop offset="1" stop-color="#222222"/>
</linearGradient>
<linearGradient id="paint19_linear_1611_478" x1="141.92" y1="185.85" x2="144.56" y2="265.02" gradientUnits="userSpaceOnUse">
<stop stop-color="#007651"/>
<stop offset="1" stop-color="#00DA90"/>
</linearGradient>
<linearGradient id="paint20_linear_1611_478" x1="99.4399" y1="282.75" x2="180.22" y2="408.82" gradientUnits="userSpaceOnUse">
<stop stop-color="#007651"/>
<stop offset="1" stop-color="#00DA90"/>
</linearGradient>
<linearGradient id="paint21_linear_1611_478" x1="150.08" y1="70.8798" x2="97.36" y2="111.9" gradientUnits="userSpaceOnUse">
<stop stop-color="white" stop-opacity="0.5"/>
<stop offset="1" stop-color="white" stop-opacity="0"/>
</linearGradient>
</defs>
</svg>
