<svg width="168" height="223" viewBox="0 0 168 223" fill="none" xmlns="http://www.w3.org/2000/svg">
<path d="M72.2199 217.78L66.3599 214.27L71.2599 207.92C71.3999 207.74 71.6499 207.69 71.8499 207.81L76.5199 210.6L81.1899 213.39C81.3899 213.51 81.4599 213.75 81.3699 213.96L78.0899 221.27L72.2299 217.76L72.2199 217.78Z" fill="url(#paint0_linear_1607_1885)"/>
<path d="M79.3598 219.05L73.5498 215.57L67.7398 212.09C67.5298 211.96 67.4798 211.68 67.6398 211.49L68.0198 211.05C68.1498 210.91 68.3598 210.87 68.5198 210.97L74.2398 214.4L79.9698 217.83C80.1298 217.93 80.1998 218.13 80.1398 218.31L79.9298 218.86C79.8398 219.09 79.5698 219.19 79.3598 219.06V219.05Z" fill="url(#paint1_linear_1607_1885)"/>
<path d="M80.5001 216.36L75.0401 213.09L69.5801 209.82C69.3701 209.69 69.3201 209.41 69.4801 209.22L69.8601 208.78C69.9901 208.64 70.2001 208.6 70.3601 208.7L75.7301 211.92L81.1001 215.14C81.2601 215.24 81.3301 215.44 81.2701 215.62L81.0601 216.17C80.9701 216.4 80.7001 216.5 80.4901 216.37L80.5001 216.36Z" fill="url(#paint2_linear_1607_1885)"/>
<path d="M77.3701 186.42C75.0401 191.58 64.3101 200.29 64.3101 200.29L59.2301 200.78L58.6401 202.44L67.8901 207.98L77.4401 190.62L77.3701 186.41V186.42Z" fill="url(#paint3_linear_1607_1885)"/>
<path d="M97.4402 198.43C93.9902 202.93 91.3801 216.49 91.3801 216.49L93.3502 221.19L92.1602 222.5L82.9102 216.96L93.7001 200.34L97.4402 198.42V198.43Z" fill="url(#paint4_linear_1607_1885)"/>
<path d="M106.61 129.59C125.58 98.61 145.56 95.28 145.56 95.28C145.56 95.28 152.07 114.46 133.72 145.82C115.37 177.18 82.9101 216.98 82.9101 216.98L75.4001 212.48L67.8901 207.98C67.8901 207.98 87.6401 160.57 106.61 129.59Z" fill="url(#paint5_linear_1607_1885)"/>
<path d="M73.0001 209.03L75.9501 207.77L87.0501 193.01L79.2901 209.77L79.5701 212.97L78.9701 214.61L75.4001 212.48L71.8301 210.34L73.0001 209.03Z" fill="url(#paint6_linear_1607_1885)"/>
<g style="mix-blend-mode:multiply" opacity="0.4">
<g style="mix-blend-mode:multiply" opacity="0.4">
<path d="M137.33 123.98C137.2 124.2 136.92 124.27 136.7 124.14C136.48 124.01 136.41 123.73 136.54 123.51C136.67 123.29 136.95 123.22 137.17 123.35C137.39 123.48 137.46 123.76 137.33 123.98ZM135.63 125.92C135.41 125.79 135.13 125.86 135 126.08C134.87 126.3 134.94 126.58 135.16 126.71C135.38 126.84 135.66 126.77 135.79 126.55C135.92 126.33 135.85 126.05 135.63 125.92ZM134.09 128.5C133.87 128.37 133.59 128.44 133.46 128.66C133.33 128.88 133.4 129.16 133.62 129.29C133.84 129.42 134.12 129.35 134.25 129.13C134.38 128.91 134.31 128.63 134.09 128.5ZM132.55 131.08C132.33 130.95 132.05 131.02 131.92 131.24C131.79 131.46 131.86 131.74 132.08 131.87C132.3 132 132.58 131.93 132.71 131.71C132.84 131.49 132.77 131.21 132.55 131.08ZM131.01 133.66C130.79 133.53 130.51 133.6 130.38 133.82C130.25 134.04 130.32 134.32 130.54 134.45C130.76 134.58 131.04 134.51 131.17 134.29C131.3 134.07 131.23 133.79 131.01 133.66ZM129.47 136.24C129.25 136.11 128.97 136.18 128.84 136.4C128.71 136.62 128.78 136.9 129 137.03C129.22 137.16 129.5 137.09 129.63 136.87C129.76 136.65 129.69 136.37 129.47 136.24ZM127.93 138.82C127.71 138.69 127.43 138.76 127.3 138.98C127.17 139.2 127.24 139.48 127.46 139.61C127.68 139.74 127.96 139.67 128.09 139.45C128.22 139.23 128.15 138.95 127.93 138.82ZM126.39 141.4C126.17 141.27 125.89 141.34 125.76 141.56C125.63 141.78 125.7 142.06 125.92 142.19C126.14 142.32 126.42 142.25 126.55 142.03C126.68 141.81 126.61 141.53 126.39 141.4ZM124.85 143.98C124.63 143.85 124.35 143.92 124.22 144.14C124.09 144.36 124.16 144.64 124.38 144.77C124.6 144.9 124.88 144.83 125.01 144.61C125.14 144.39 125.07 144.11 124.85 143.98ZM123.31 146.56C123.09 146.43 122.81 146.5 122.68 146.72C122.55 146.94 122.62 147.22 122.84 147.35C123.06 147.48 123.34 147.41 123.47 147.19C123.6 146.97 123.53 146.69 123.31 146.56ZM121.77 149.14C121.55 149.01 121.27 149.08 121.14 149.3C121.01 149.52 121.08 149.8 121.3 149.93C121.52 150.06 121.8 149.99 121.93 149.77C122.06 149.55 121.99 149.27 121.77 149.14ZM120.23 151.72C120.01 151.59 119.73 151.66 119.6 151.88C119.47 152.1 119.54 152.38 119.76 152.51C119.98 152.64 120.26 152.57 120.39 152.35C120.52 152.13 120.45 151.85 120.23 151.72ZM118.69 154.3C118.47 154.17 118.19 154.24 118.06 154.46C117.93 154.68 118 154.96 118.22 155.09C118.44 155.22 118.72 155.15 118.85 154.93C118.98 154.71 118.91 154.43 118.69 154.3ZM117.15 156.88C116.93 156.75 116.65 156.82 116.52 157.04C116.39 157.26 116.46 157.54 116.68 157.67C116.9 157.8 117.18 157.73 117.31 157.51C117.44 157.29 117.37 157.01 117.15 156.88ZM115.61 159.46C115.39 159.33 115.11 159.4 114.98 159.62C114.85 159.84 114.92 160.12 115.14 160.25C115.36 160.38 115.64 160.31 115.77 160.09C115.9 159.87 115.83 159.59 115.61 159.46ZM114.07 162.04C113.85 161.91 113.57 161.98 113.44 162.2C113.31 162.42 113.38 162.7 113.6 162.83C113.82 162.96 114.1 162.89 114.23 162.67C114.36 162.45 114.29 162.17 114.07 162.04ZM112.53 164.62C112.31 164.49 112.03 164.56 111.9 164.78C111.77 165 111.84 165.28 112.06 165.41C112.28 165.54 112.56 165.47 112.69 165.25C112.82 165.03 112.75 164.75 112.53 164.62ZM110.99 167.2C110.77 167.07 110.49 167.14 110.36 167.36C110.23 167.58 110.3 167.86 110.52 167.99C110.74 168.12 111.02 168.05 111.15 167.83C111.28 167.61 111.21 167.33 110.99 167.2ZM109.45 169.78C109.23 169.65 108.95 169.72 108.82 169.94C108.69 170.16 108.76 170.44 108.98 170.57C109.2 170.7 109.48 170.63 109.61 170.41C109.74 170.19 109.67 169.91 109.45 169.78ZM107.91 172.36C107.69 172.23 107.41 172.3 107.28 172.52C107.15 172.74 107.22 173.02 107.44 173.15C107.66 173.28 107.94 173.21 108.07 172.99C108.2 172.77 108.13 172.49 107.91 172.36ZM106.37 174.94C106.15 174.81 105.87 174.88 105.74 175.1C105.61 175.32 105.68 175.6 105.9 175.73C106.12 175.86 106.4 175.79 106.53 175.57C106.66 175.35 106.59 175.07 106.37 174.94ZM104.83 177.52C104.61 177.39 104.33 177.46 104.2 177.68C104.07 177.9 104.14 178.18 104.36 178.31C104.58 178.44 104.86 178.37 104.99 178.15C105.12 177.93 105.05 177.65 104.83 177.52ZM103.29 180.1C103.07 179.97 102.79 180.04 102.66 180.26C102.53 180.48 102.6 180.76 102.82 180.89C103.04 181.02 103.32 180.95 103.45 180.73C103.58 180.51 103.51 180.23 103.29 180.1ZM101.75 182.68C101.53 182.55 101.25 182.62 101.12 182.84C100.99 183.06 101.06 183.34 101.28 183.47C101.5 183.6 101.78 183.53 101.91 183.31C102.04 183.09 101.97 182.81 101.75 182.68ZM100.21 185.26C99.9899 185.13 99.7099 185.2 99.5799 185.42C99.4499 185.64 99.5199 185.92 99.7399 186.05C99.9599 186.18 100.24 186.11 100.37 185.89C100.5 185.67 100.43 185.39 100.21 185.26ZM98.6699 187.84C98.4499 187.71 98.1699 187.78 98.0399 188C97.9099 188.22 97.9799 188.5 98.1999 188.63C98.4199 188.76 98.6999 188.69 98.8299 188.47C98.9599 188.25 98.8899 187.97 98.6699 187.84ZM97.1299 190.42C96.9099 190.29 96.6299 190.36 96.4999 190.58C96.3699 190.8 96.4399 191.08 96.6599 191.21C96.8799 191.34 97.1599 191.27 97.2899 191.05C97.4199 190.83 97.3499 190.55 97.1299 190.42ZM95.5899 193C95.3699 192.87 95.0899 192.94 94.9599 193.16C94.8299 193.38 94.8999 193.66 95.1199 193.79C95.3399 193.92 95.6199 193.85 95.7499 193.63C95.8799 193.41 95.8099 193.13 95.5899 193ZM94.0499 195.58C93.8299 195.45 93.5499 195.52 93.4199 195.74C93.2899 195.96 93.3599 196.24 93.5799 196.37C93.7999 196.5 94.0799 196.43 94.2099 196.21C94.3399 195.99 94.2699 195.71 94.0499 195.58ZM92.5099 198.16C92.2899 198.03 92.0099 198.1 91.8799 198.32C91.7499 198.54 91.8199 198.82 92.0399 198.95C92.2599 199.08 92.5399 199.01 92.6699 198.79C92.7999 198.57 92.7299 198.29 92.5099 198.16ZM90.9699 200.74C90.7499 200.61 90.4699 200.68 90.3399 200.9C90.2099 201.12 90.2799 201.4 90.4999 201.53C90.7199 201.66 90.9999 201.59 91.1299 201.37C91.2599 201.15 91.1899 200.87 90.9699 200.74ZM89.4299 203.32C89.2099 203.19 88.9299 203.26 88.7999 203.48C88.6699 203.7 88.7399 203.98 88.9599 204.11C89.1799 204.24 89.4599 204.17 89.5899 203.95C89.7199 203.73 89.6499 203.45 89.4299 203.32ZM87.8899 205.9C87.6699 205.77 87.3899 205.84 87.2599 206.06C87.1299 206.28 87.1999 206.56 87.4199 206.69C87.6399 206.82 87.9199 206.75 88.0499 206.53C88.1799 206.31 88.1099 206.03 87.8899 205.9ZM86.3499 208.48C86.1299 208.35 85.8499 208.42 85.7199 208.64C85.5899 208.86 85.6599 209.14 85.8799 209.27C86.0999 209.4 86.3799 209.33 86.5099 209.11C86.6399 208.89 86.5699 208.61 86.3499 208.48ZM84.8099 211.06C84.5899 210.93 84.3099 211 84.1799 211.22C84.0499 211.44 84.1199 211.72 84.3399 211.85C84.5599 211.98 84.8399 211.91 84.9699 211.69C85.0999 211.47 85.0299 211.19 84.8099 211.06ZM83.2699 213.64C83.0499 213.51 82.7699 213.58 82.6399 213.8C82.5099 214.02 82.5799 214.3 82.7999 214.43C83.0199 214.56 83.2999 214.49 83.4299 214.27C83.5599 214.05 83.4899 213.77 83.2699 213.64Z" fill="#827A1E"/>
</g>
</g>
<path d="M13.58 182.68L19.44 186.19L22.72 178.88C22.81 178.67 22.74 178.43 22.54 178.31L17.87 175.52L13.2 172.73C13 172.61 12.75 172.66 12.61 172.84L7.70996 179.19L13.57 182.7L13.58 182.68Z" fill="url(#paint7_linear_1607_1885)"/>
<path d="M9.10015 176.98L14.9102 180.46L20.7202 183.94C20.9302 184.07 21.2102 183.97 21.2902 183.74L21.5002 183.19C21.5702 183.01 21.5002 182.81 21.3302 182.71L15.6002 179.28L9.88015 175.85C9.72015 175.75 9.50015 175.79 9.38015 175.93L9.00015 176.37C8.84015 176.56 8.88015 176.84 9.10015 176.97V176.98Z" fill="url(#paint8_linear_1607_1885)"/>
<path d="M10.93 174.72L16.39 177.99L21.85 181.26C22.06 181.39 22.34 181.29 22.42 181.06L22.63 180.51C22.7 180.33 22.63 180.13 22.46 180.03L17.09 176.81L11.72 173.59C11.56 173.49 11.34 173.53 11.22 173.67L10.84 174.11C10.68 174.3 10.72 174.58 10.94 174.71L10.93 174.72Z" fill="url(#paint9_linear_1607_1885)"/>
<path d="M38.8 163.33C35.35 167.83 32.74 181.39 32.74 181.39L34.71 186.09L33.52 187.4L24.27 181.86L35.06 165.24L38.8 163.32V163.33Z" fill="url(#paint10_linear_1607_1885)"/>
<path d="M18.73 151.31C16.4 156.47 5.67 165.18 5.67 165.18L0.59 165.67L0 167.33L9.25 172.87L18.8 155.51L18.73 151.3V151.31Z" fill="url(#paint11_linear_1607_1885)"/>
<path d="M75.08 110.71C93.43 79.35 86.92 60.17 86.92 60.17C86.92 60.17 66.94 63.49 47.97 94.48C29 125.46 9.25 172.87 9.25 172.87L16.76 177.37L24.27 181.87C24.27 181.87 56.73 142.07 75.08 110.71Z" fill="url(#paint12_linear_1607_1885)"/>
<g style="mix-blend-mode:multiply" opacity="0.2">
<path d="M61.3701 76.77L84.3601 90.53C84.5001 90.09 84.6401 89.66 84.7801 89.23L62.3201 75.79C62.0001 76.11 61.6901 76.44 61.3701 76.78V76.77Z" fill="#333333"/>
</g>
<g style="mix-blend-mode:multiply" opacity="0.2">
<path d="M143 125.64L120.01 111.88C120.33 111.54 120.65 111.22 120.96 110.89L143.42 124.33C143.29 124.76 143.15 125.2 143 125.63V125.64Z" fill="#333333"/>
</g>
<path d="M20.9299 177.86L20.6499 174.67L28.4099 157.91L17.3099 172.66L14.3599 173.93L13.1899 175.23L16.7599 177.37L20.3299 179.51L20.9299 177.86Z" fill="url(#paint13_linear_1607_1885)"/>
<g style="mix-blend-mode:multiply" opacity="0.4">
<g style="mix-blend-mode:multiply" opacity="0.4">
<path d="M66.3402 81.48C66.2102 81.7 65.9302 81.77 65.7102 81.64C65.4902 81.51 65.4202 81.23 65.5502 81.01C65.6802 80.79 65.9602 80.72 66.1802 80.85C66.4002 80.98 66.4702 81.26 66.3402 81.48ZM64.6402 83.42C64.4202 83.29 64.1402 83.36 64.0102 83.58C63.8802 83.8 63.9502 84.08 64.1702 84.21C64.3902 84.34 64.6702 84.27 64.8002 84.05C64.9302 83.83 64.8602 83.55 64.6402 83.42ZM63.1002 86C62.8802 85.87 62.6002 85.94 62.4702 86.16C62.3402 86.38 62.4102 86.66 62.6302 86.79C62.8502 86.92 63.1302 86.85 63.2602 86.63C63.3902 86.41 63.3202 86.13 63.1002 86ZM61.5602 88.58C61.3402 88.45 61.0602 88.52 60.9302 88.74C60.8002 88.96 60.8702 89.24 61.0902 89.37C61.3102 89.5 61.5902 89.43 61.7202 89.21C61.8502 88.99 61.7802 88.71 61.5602 88.58ZM60.0202 91.16C59.8002 91.03 59.5202 91.1 59.3902 91.32C59.2602 91.54 59.3302 91.82 59.5502 91.95C59.7702 92.08 60.0502 92.01 60.1802 91.79C60.3102 91.57 60.2402 91.29 60.0202 91.16ZM58.4802 93.74C58.2602 93.61 57.9802 93.68 57.8502 93.9C57.7202 94.12 57.7902 94.4 58.0102 94.53C58.2302 94.66 58.5102 94.59 58.6402 94.37C58.7702 94.15 58.7002 93.87 58.4802 93.74ZM56.9402 96.32C56.7202 96.19 56.4402 96.26 56.3102 96.48C56.1802 96.7 56.2502 96.98 56.4702 97.11C56.6902 97.24 56.9702 97.17 57.1002 96.95C57.2302 96.73 57.1602 96.45 56.9402 96.32ZM55.4002 98.9C55.1802 98.77 54.9002 98.84 54.7702 99.06C54.6402 99.28 54.7102 99.56 54.9302 99.69C55.1502 99.82 55.4302 99.75 55.5602 99.53C55.6902 99.31 55.6202 99.03 55.4002 98.9ZM53.8602 101.48C53.6402 101.35 53.3602 101.42 53.2302 101.64C53.1002 101.86 53.1702 102.14 53.3902 102.27C53.6102 102.4 53.8902 102.33 54.0202 102.11C54.1502 101.89 54.0802 101.61 53.8602 101.48ZM52.3202 104.06C52.1002 103.93 51.8202 104 51.6902 104.22C51.5602 104.44 51.6302 104.72 51.8502 104.85C52.0702 104.98 52.3502 104.91 52.4802 104.69C52.6102 104.47 52.5402 104.19 52.3202 104.06ZM50.7802 106.64C50.5602 106.51 50.2802 106.58 50.1502 106.8C50.0202 107.02 50.0902 107.3 50.3102 107.43C50.5302 107.56 50.8102 107.49 50.9402 107.27C51.0702 107.05 51.0002 106.77 50.7802 106.64ZM49.2402 109.22C49.0202 109.09 48.7402 109.16 48.6102 109.38C48.4802 109.6 48.5502 109.88 48.7702 110.01C48.9902 110.14 49.2702 110.07 49.4002 109.85C49.5302 109.63 49.4602 109.35 49.2402 109.22ZM47.7002 111.8C47.4802 111.67 47.2002 111.74 47.0702 111.96C46.9402 112.18 47.0102 112.46 47.2302 112.59C47.4502 112.72 47.7302 112.65 47.8602 112.43C47.9902 112.21 47.9202 111.93 47.7002 111.8ZM46.1602 114.38C45.9402 114.25 45.6602 114.32 45.5302 114.54C45.4002 114.76 45.4702 115.04 45.6902 115.17C45.9102 115.3 46.1902 115.23 46.3202 115.01C46.4502 114.79 46.3802 114.51 46.1602 114.38ZM44.6202 116.96C44.4002 116.83 44.1202 116.9 43.9902 117.12C43.8602 117.34 43.9302 117.62 44.1502 117.75C44.3702 117.88 44.6502 117.81 44.7802 117.59C44.9102 117.37 44.8402 117.09 44.6202 116.96ZM43.0802 119.54C42.8602 119.41 42.5802 119.48 42.4502 119.7C42.3202 119.92 42.3902 120.2 42.6102 120.33C42.8302 120.46 43.1102 120.39 43.2402 120.17C43.3702 119.95 43.3002 119.67 43.0802 119.54ZM41.5402 122.12C41.3202 121.99 41.0402 122.06 40.9102 122.28C40.7802 122.5 40.8502 122.78 41.0702 122.91C41.2902 123.04 41.5702 122.97 41.7002 122.75C41.8302 122.53 41.7602 122.25 41.5402 122.12ZM40.0002 124.7C39.7802 124.57 39.5002 124.64 39.3702 124.86C39.2402 125.08 39.3102 125.36 39.5302 125.49C39.7502 125.62 40.0302 125.55 40.1602 125.33C40.2902 125.11 40.2202 124.83 40.0002 124.7ZM38.4602 127.28C38.2402 127.15 37.9602 127.22 37.8302 127.44C37.7002 127.66 37.7702 127.94 37.9902 128.07C38.2102 128.2 38.4902 128.13 38.6202 127.91C38.7502 127.69 38.6802 127.41 38.4602 127.28ZM36.9202 129.86C36.7002 129.73 36.4202 129.8 36.2902 130.02C36.1602 130.24 36.2302 130.52 36.4502 130.65C36.6702 130.78 36.9502 130.71 37.0802 130.49C37.2102 130.27 37.1402 129.99 36.9202 129.86ZM35.3802 132.44C35.1602 132.31 34.8802 132.38 34.7502 132.6C34.6202 132.82 34.6902 133.1 34.9102 133.23C35.1302 133.36 35.4102 133.29 35.5402 133.07C35.6702 132.85 35.6002 132.57 35.3802 132.44ZM33.8402 135.02C33.6202 134.89 33.3402 134.96 33.2102 135.18C33.0802 135.4 33.1502 135.68 33.3702 135.81C33.5902 135.94 33.8702 135.87 34.0002 135.65C34.1302 135.43 34.0602 135.15 33.8402 135.02ZM32.3002 137.6C32.0802 137.47 31.8002 137.54 31.6702 137.76C31.5402 137.98 31.6102 138.26 31.8302 138.39C32.0502 138.52 32.3302 138.45 32.4602 138.23C32.5902 138.01 32.5202 137.73 32.3002 137.6ZM30.7602 140.18C30.5402 140.05 30.2602 140.12 30.1302 140.34C30.0002 140.56 30.0702 140.84 30.2902 140.97C30.5102 141.1 30.7902 141.03 30.9202 140.81C31.0502 140.59 30.9802 140.31 30.7602 140.18ZM29.2202 142.76C29.0002 142.63 28.7202 142.7 28.5902 142.92C28.4602 143.14 28.5302 143.42 28.7502 143.55C28.9702 143.68 29.2502 143.61 29.3802 143.39C29.5102 143.17 29.4402 142.89 29.2202 142.76ZM27.6802 145.34C27.4602 145.21 27.1802 145.28 27.0502 145.5C26.9202 145.72 26.9902 146 27.2102 146.13C27.4302 146.26 27.7102 146.19 27.8402 145.97C27.9702 145.75 27.9002 145.47 27.6802 145.34ZM26.1402 147.92C25.9202 147.79 25.6402 147.86 25.5102 148.08C25.3802 148.3 25.4502 148.58 25.6702 148.71C25.8902 148.84 26.1702 148.77 26.3002 148.55C26.4302 148.33 26.3602 148.05 26.1402 147.92ZM24.6002 150.5C24.3802 150.37 24.1002 150.44 23.9702 150.66C23.8402 150.88 23.9102 151.16 24.1302 151.29C24.3502 151.42 24.6302 151.35 24.7602 151.13C24.8902 150.91 24.8202 150.63 24.6002 150.5ZM23.0602 153.08C22.8402 152.95 22.5602 153.02 22.4302 153.24C22.3002 153.46 22.3702 153.74 22.5902 153.87C22.8102 154 23.0902 153.93 23.2202 153.71C23.3502 153.49 23.2802 153.21 23.0602 153.08ZM21.5202 155.66C21.3002 155.53 21.0202 155.6 20.8902 155.82C20.7602 156.04 20.8302 156.32 21.0502 156.45C21.2702 156.58 21.5502 156.51 21.6802 156.29C21.8102 156.07 21.7402 155.79 21.5202 155.66ZM19.9802 158.24C19.7602 158.11 19.4802 158.18 19.3502 158.4C19.2202 158.62 19.2902 158.9 19.5102 159.03C19.7302 159.16 20.0102 159.09 20.1402 158.87C20.2702 158.65 20.2002 158.37 19.9802 158.24ZM18.4402 160.82C18.2202 160.69 17.9402 160.76 17.8102 160.98C17.6802 161.2 17.7502 161.48 17.9702 161.61C18.1902 161.74 18.4702 161.67 18.6002 161.45C18.7302 161.23 18.6602 160.95 18.4402 160.82ZM16.9002 163.4C16.6802 163.27 16.4002 163.34 16.2702 163.56C16.1402 163.78 16.2102 164.06 16.4302 164.19C16.6502 164.32 16.9302 164.25 17.0602 164.03C17.1902 163.81 17.1202 163.53 16.9002 163.4ZM15.3602 165.98C15.1402 165.85 14.8602 165.92 14.7302 166.14C14.6002 166.36 14.6702 166.64 14.8902 166.77C15.1102 166.9 15.3902 166.83 15.5202 166.61C15.6502 166.39 15.5802 166.11 15.3602 165.98ZM13.8202 168.56C13.6002 168.43 13.3202 168.5 13.1902 168.72C13.0602 168.94 13.1302 169.22 13.3502 169.35C13.5702 169.48 13.8502 169.41 13.9802 169.19C14.1102 168.97 14.0402 168.69 13.8202 168.56ZM12.2802 171.14C12.0602 171.01 11.7802 171.08 11.6502 171.3C11.5202 171.52 11.5902 171.8 11.8102 171.93C12.0302 172.06 12.3102 171.99 12.4402 171.77C12.5702 171.55 12.5002 171.27 12.2802 171.14Z" fill="#827A1E"/>
</g>
</g>
<path d="M77.3402 185.57C95.4602 196.42 116.55 209.04 116.55 209.04C116.55 209.04 126.82 196.71 124.95 182.53C123.08 168.35 111.55 138.23 129.01 113.27C146.47 88.31 58.4502 174.26 58.4502 174.26L77.3402 185.57Z" fill="url(#paint14_linear_1607_1885)"/>
<path d="M39.5601 162.95C21.4401 152.1 0.350098 139.48 0.350098 139.48C0.350098 139.48 6.3701 124.6 19.7501 119.56C33.1301 114.51 65.1201 110.45 78.8801 83.26C92.6401 56.08 58.4501 174.26 58.4501 174.26L39.5601 162.95Z" fill="url(#paint15_linear_1607_1885)"/>
<g style="mix-blend-mode:screen" opacity="0.3">
<path d="M44.3301 153.11L83.7601 176.72C84.2101 176.11 84.6601 175.48 85.1201 174.85L45.3401 151.03C45.0001 151.73 44.6701 152.42 44.3301 153.11Z" fill="#FEB46F"/>
</g>
<path opacity="0.4" d="M43.3301 155.18L82.4201 178.58C82.8701 177.97 83.3201 177.34 83.7801 176.71L44.3501 153.1C44.0101 153.8 43.6701 154.49 43.3401 155.18H43.3301Z" fill="#5F0043"/>
<path d="M48.7699 190.43L33.9399 181.55L46.3399 165.49C46.6899 165.03 47.3299 164.91 47.8299 165.21L59.6399 172.28L71.4499 179.35C71.9499 179.65 72.1399 180.27 71.9099 180.8L63.6099 199.31L48.7799 190.43H48.7699Z" fill="url(#paint16_linear_1607_1885)"/>
<path d="M66.8501 193.63L52.1301 184.82L37.4101 176.01C36.8701 175.69 36.7601 174.96 37.1701 174.49L38.1401 173.37C38.4601 173 38.9901 172.92 39.4101 173.17L53.9001 181.85L68.3901 190.53C68.8101 190.78 68.9801 191.29 68.8101 191.75L68.2801 193.14C68.0601 193.72 67.3601 193.97 66.8301 193.64L66.8501 193.63Z" fill="url(#paint17_linear_1607_1885)"/>
<path d="M69.7098 186.83L55.8798 178.55L42.0498 170.27C41.5098 169.95 41.3998 169.22 41.8098 168.75L42.7798 167.63C43.0998 167.26 43.6298 167.18 44.0498 167.43L57.6598 175.57L71.2698 183.71C71.6898 183.96 71.8598 184.47 71.6898 184.93L71.1598 186.32C70.9398 186.9 70.2398 187.15 69.7098 186.82V186.83Z" fill="url(#paint18_linear_1607_1885)"/>
<path d="M113.39 27.44C135.14 1.08 162.77 0 162.77 0C162.77 0 174.87 24.87 161.91 56.49C148.95 88.11 100 154.23 77.3401 185.58L58.4501 174.27L39.5601 162.96C56.4901 128.18 91.6501 53.8 113.39 27.45V27.44Z" fill="url(#paint19_linear_1607_1885)"/>
<g style="mix-blend-mode:multiply" opacity="0.4">
<path d="M153.23 15.94C147.86 12.73 130.76 17.55 129.78 20.74C129.46 21.77 130.46 22.4 132.18 22.87C141.68 25.44 150.31 30.61 157.07 37.77C158.29 39.07 159.32 39.64 160.08 38.88C162.43 36.51 158.61 19.16 153.24 15.94H153.23Z" fill="#212019"/>
</g>
<path d="M131.65 20.95C132.47 20.26 134.79 18.98 139.04 17.84C144.8 16.29 150.29 16.09 152.39 17.35C154.49 18.61 156.9 23.54 158.26 29.35C159.26 33.63 159.23 36.29 159.01 37.33C158.83 37.19 158.58 36.97 158.27 36.63C154.81 32.96 150.85 29.78 146.5 27.18C142.16 24.58 137.48 22.59 132.61 21.27C132.16 21.15 131.86 21.04 131.65 20.94V20.95Z" fill="url(#paint20_linear_1607_1885)"/>
<g style="mix-blend-mode:multiply" opacity="0.4">
<path d="M163.33 8.47008C163.1 8.33008 163.02 8.03008 163.16 7.79008C163.3 7.55008 163.6 7.48008 163.84 7.62008C164.08 7.76008 164.15 8.06008 164.01 8.30008C163.87 8.54008 163.57 8.61008 163.33 8.47008ZM161.25 6.64008C161.39 6.41008 161.31 6.10008 161.08 5.96008C160.85 5.82008 160.54 5.90008 160.4 6.13008C160.26 6.36008 160.34 6.67008 160.57 6.81008C160.8 6.95008 161.11 6.87008 161.25 6.64008ZM158.49 4.99008C158.63 4.76008 158.55 4.45008 158.32 4.31008C158.09 4.17008 157.78 4.25008 157.64 4.48008C157.5 4.71008 157.58 5.02008 157.81 5.16008C158.04 5.30008 158.35 5.22008 158.49 4.99008ZM155.73 3.34008C155.87 3.11008 155.79 2.80008 155.56 2.66008C155.33 2.52008 155.02 2.60008 154.88 2.83008C154.74 3.06008 154.82 3.37008 155.05 3.51008C155.28 3.65008 155.59 3.57008 155.73 3.34008Z" fill="#E3D2B4"/>
</g>
<g style="mix-blend-mode:multiply" opacity="0.4">
<path d="M93.4099 64.67C93.1199 64.5 93.0298 64.12 93.1998 63.84L94.0799 62.36C94.2499 62.07 94.6299 61.98 94.9099 62.15C95.1999 62.32 95.2899 62.7 95.1199 62.98L94.2398 64.46C94.0698 64.75 93.6899 64.84 93.4099 64.67Z" fill="#827A1E"/>
<path d="M98.5031 64.306L98.4774 64.2906C98.1978 64.1232 97.8355 64.2142 97.6681 64.4938L96.764 66.0038C96.5966 66.2834 96.6876 66.6457 96.9671 66.8131L96.9929 66.8285C97.2725 66.9959 97.6348 66.9049 97.8022 66.6254L98.7063 65.1153C98.8736 64.8358 98.7827 64.4734 98.5031 64.306Z" fill="#827A1E"/>
<path d="M100.59 68.96C100.3 68.79 100.21 68.41 100.38 68.13L101.26 66.65C101.43 66.36 101.81 66.27 102.09 66.44C102.38 66.61 102.47 66.99 102.3 67.27L101.42 68.75C101.25 69.04 100.87 69.13 100.59 68.96Z" fill="#827A1E"/>
<path d="M104.17 71.11C103.88 70.94 103.79 70.56 103.96 70.28L104.84 68.8C105.01 68.51 105.39 68.42 105.67 68.59C105.96 68.76 106.05 69.14 105.88 69.42L105 70.9C104.83 71.19 104.45 71.28 104.17 71.11Z" fill="#827A1E"/>
<path d="M107.76 73.26C107.47 73.09 107.38 72.71 107.55 72.43L108.43 70.9499C108.6 70.6599 108.97 70.5699 109.26 70.7399C109.55 70.9099 109.64 71.29 109.47 71.57L108.59 73.05C108.42 73.34 108.04 73.43 107.76 73.26Z" fill="#827A1E"/>
<path d="M111.35 75.41C111.06 75.24 110.97 74.86 111.14 74.58L112.02 73.1C112.19 72.81 112.57 72.72 112.85 72.89C113.14 73.06 113.23 73.44 113.06 73.72L112.18 75.2C112.01 75.49 111.63 75.58 111.35 75.41Z" fill="#827A1E"/>
<path d="M114.94 77.55C114.65 77.38 114.56 77 114.73 76.72L115.61 75.24C115.78 74.95 116.16 74.86 116.44 75.03C116.73 75.2 116.82 75.58 116.65 75.86L115.77 77.34C115.6 77.63 115.22 77.72 114.94 77.55Z" fill="#827A1E"/>
<path d="M118.52 79.6999C118.23 79.5299 118.14 79.15 118.31 78.87L119.19 77.3899C119.36 77.0999 119.74 77.01 120.02 77.18C120.31 77.35 120.4 77.73 120.23 78.01L119.35 79.4899C119.18 79.7799 118.8 79.8699 118.52 79.6999Z" fill="#827A1E"/>
<path d="M122.11 81.85C121.82 81.68 121.73 81.3 121.9 81.02L122.78 79.54C122.95 79.25 123.33 79.16 123.61 79.33C123.9 79.5 123.99 79.88 123.82 80.16L122.94 81.64C122.77 81.93 122.39 82.02 122.11 81.85Z" fill="#827A1E"/>
<path d="M125.7 84C125.41 83.83 125.32 83.45 125.49 83.17L126.37 81.69C126.54 81.4 126.92 81.31 127.2 81.48C127.49 81.65 127.58 82.03 127.41 82.31L126.53 83.79C126.36 84.08 125.98 84.17 125.7 84Z" fill="#827A1E"/>
<path d="M129.29 86.14C129 85.97 128.91 85.5899 129.08 85.3099L129.96 83.83C130.13 83.54 130.51 83.45 130.79 83.62C131.08 83.79 131.17 84.1699 131 84.4499L130.12 85.93C129.95 86.22 129.57 86.31 129.29 86.14Z" fill="#827A1E"/>
<path d="M132.87 88.29C132.58 88.12 132.49 87.74 132.66 87.46L133.54 85.98C133.71 85.69 134.09 85.6 134.37 85.77C134.66 85.94 134.75 86.32 134.58 86.6L133.7 88.08C133.53 88.37 133.15 88.46 132.87 88.29Z" fill="#827A1E"/>
<path d="M136.46 90.44C136.17 90.27 136.08 89.89 136.25 89.61L137.13 88.13C137.3 87.84 137.68 87.75 137.96 87.92C138.25 88.09 138.34 88.47 138.17 88.75L137.29 90.23C137.12 90.52 136.74 90.61 136.46 90.44Z" fill="#827A1E"/>
<path d="M140.05 92.59C139.76 92.42 139.67 92.04 139.84 91.76L140.72 90.28C140.89 89.99 141.27 89.9 141.55 90.07C141.84 90.24 141.93 90.62 141.76 90.9L140.88 92.38C140.71 92.67 140.33 92.76 140.05 92.59Z" fill="#827A1E"/>
</g>
<g style="mix-blend-mode:multiply" opacity="0.4">
<g style="mix-blend-mode:multiply" opacity="0.4">
<path d="M112.25 114.63C112.08 114.92 111.7 115.02 111.41 114.84C111.12 114.66 111.02 114.29 111.2 114C111.38 113.71 111.75 113.61 112.04 113.79C112.33 113.97 112.43 114.34 112.25 114.63ZM109.98 117.22C109.69 117.05 109.31 117.14 109.14 117.43C108.97 117.72 109.06 118.1 109.35 118.27C109.64 118.44 110.02 118.35 110.19 118.06C110.36 117.77 110.27 117.39 109.98 117.22ZM107.92 120.66C107.63 120.49 107.25 120.58 107.08 120.87C106.91 121.16 107 121.54 107.29 121.71C107.58 121.88 107.96 121.79 108.13 121.5C108.3 121.21 108.21 120.83 107.92 120.66ZM105.86 124.1C105.57 123.93 105.19 124.02 105.02 124.31C104.85 124.6 104.94 124.98 105.23 125.15C105.52 125.32 105.9 125.23 106.07 124.94C106.24 124.65 106.15 124.27 105.86 124.1ZM103.8 127.54C103.51 127.37 103.13 127.46 102.96 127.75C102.79 128.04 102.88 128.42 103.17 128.59C103.46 128.76 103.84 128.67 104.01 128.38C104.18 128.09 104.09 127.71 103.8 127.54ZM101.74 130.98C101.45 130.81 101.07 130.9 100.9 131.19C100.73 131.48 100.82 131.86 101.11 132.03C101.4 132.2 101.78 132.11 101.95 131.82C102.12 131.53 102.03 131.15 101.74 130.98ZM99.6802 134.42C99.3902 134.25 99.0102 134.34 98.8402 134.63C98.6702 134.92 98.7602 135.3 99.0502 135.47C99.3402 135.64 99.7202 135.55 99.8902 135.26C100.06 134.97 99.9702 134.59 99.6802 134.42ZM97.6202 137.86C97.3302 137.69 96.9502 137.78 96.7802 138.07C96.6102 138.36 96.7002 138.74 96.9902 138.91C97.2802 139.08 97.6602 138.99 97.8302 138.7C98.0002 138.41 97.9102 138.03 97.6202 137.86ZM95.5602 141.3C95.2702 141.13 94.8902 141.22 94.7202 141.51C94.5502 141.8 94.6402 142.18 94.9302 142.35C95.2202 142.52 95.6002 142.43 95.7702 142.14C95.9402 141.85 95.8502 141.47 95.5602 141.3ZM93.5002 144.74C93.2102 144.57 92.8302 144.66 92.6602 144.95C92.4902 145.24 92.5802 145.62 92.8702 145.79C93.1602 145.96 93.5402 145.87 93.7102 145.58C93.8802 145.29 93.7902 144.91 93.5002 144.74ZM91.4402 148.18C91.1502 148.01 90.7702 148.1 90.6002 148.39C90.4302 148.68 90.5202 149.06 90.8102 149.23C91.1002 149.4 91.4802 149.31 91.6502 149.02C91.8202 148.73 91.7302 148.35 91.4402 148.18ZM89.3802 151.62C89.0902 151.45 88.7102 151.54 88.5402 151.83C88.3702 152.12 88.4602 152.5 88.7502 152.67C89.0402 152.84 89.4202 152.75 89.5902 152.46C89.7602 152.17 89.6702 151.79 89.3802 151.62Z" fill="#827A1E"/>
</g>
</g>
<g style="mix-blend-mode:multiply" opacity="0.4">
<path d="M140.14 95.66C140.05 95.8 139.96 95.95 139.86 96.09L92.0302 67.46C77.4402 91.92 46.1402 158.56 44.1802 162.73L78.8502 183.48C78.7502 183.62 78.6502 183.76 78.5502 183.9L40.4502 161.09C40.5202 160.94 40.6002 160.78 40.6802 160.63L43.7402 162.46C45.9302 157.79 77.0502 91.57 91.5902 67.19L88.8902 65.57C88.9702 65.42 89.0602 65.27 89.1402 65.12L140.14 95.65V95.66ZM124.88 118.76C124.98 118.62 125.07 118.48 125.17 118.33L111.23 109.98C111.11 109.91 110.95 109.95 110.88 110.07L84.9602 153.36C84.8902 153.48 84.9302 153.64 85.0502 153.71L95.7702 160.13C95.8702 159.99 95.9702 159.85 96.0702 159.71L85.5302 153.4L111.18 110.55L124.88 118.75V118.76ZM137.77 42.65C137.89 42.72 138.05 42.68 138.12 42.56L139.7 39.93C139.7 39.93 139.7 39.88 139.71 39.86L160.13 52.08L162.96 53.7799C163.02 53.6199 163.08 53.45 163.14 53.29L160.58 51.7599C166.1 38.3499 167.29 24.87 164.23 10.59L166.42 11.9C166.37 11.67 166.33 11.44 166.28 11.22L151.21 2.19995C150.99 2.25995 150.77 2.32995 150.54 2.39995L163.62 10.23C166.78 24.55 165.63 38.05 160.12 51.49L115.61 24.85C115.49 24.98 115.38 25.11 115.26 25.24L139.3 39.63C139.3 39.63 139.25 39.6499 139.24 39.6699L137.8 42.08L113.36 27.45C113.25 27.58 113.14 27.72 113.03 27.85L137.75 42.65H137.77Z" fill="#827A1E"/>
</g>
<g style="mix-blend-mode:multiply" opacity="0.2">
<g style="mix-blend-mode:multiply" opacity="0.4">
<path d="M6.86986 143.39L7.30986 143.65L22.2499 118.69C21.9899 118.77 21.7499 118.86 21.4999 118.94L6.85986 143.39H6.86986Z" fill="#827A1E"/>
</g>
<g style="mix-blend-mode:multiply" opacity="0.4">
<path d="M25.3998 154.48L26.8398 152.07L12.1698 143.29L22.5898 125.89L56.6498 115.14L56.7398 115.11L66.2298 99.25C65.8398 99.59 65.4398 99.91 65.0398 100.24L56.3998 114.68L22.9898 125.23L27.9298 116.99C27.6898 117.06 27.4398 117.13 27.2098 117.2L22.2098 125.55L21.8598 126.13L10.2998 145.44L10.7398 145.7L11.9198 143.73L26.1498 152.25L24.9698 154.22L25.4098 154.48H25.3998Z" fill="#827A1E"/>
</g>
</g>
<g style="mix-blend-mode:multiply" opacity="0.2">
<g style="mix-blend-mode:multiply" opacity="0.4">
<path d="M110.03 205.14L109.59 204.88L124.53 179.92C124.58 180.18 124.62 180.44 124.66 180.7L110.02 205.15L110.03 205.14Z" fill="#827A1E"/>
</g>
<g style="mix-blend-mode:multiply" opacity="0.4">
<path d="M91.5 194.05L92.94 191.64L107.61 200.42L118.03 183.02L111.42 147.92L111.4 147.82L120.89 131.96C120.78 132.46 120.68 132.97 120.58 133.47L111.94 147.91L118.42 182.34L123.36 174.1C123.41 174.35 123.47 174.6 123.52 174.84L118.52 183.19L118.17 183.77L106.61 203.08L106.17 202.82L107.35 200.85L93.12 192.33L91.94 194.3L91.5 194.04V194.05Z" fill="#827A1E"/>
</g>
</g>
<defs>
<linearGradient id="paint0_linear_1607_1885" x1="75.1251" y1="213.008" x2="70.7793" y2="220.267" gradientUnits="userSpaceOnUse">
<stop offset="0.49" stop-color="#4D4D4D"/>
<stop offset="0.5" stop-color="#4E4E4E"/>
<stop offset="0.64" stop-color="#6F6F6F"/>
<stop offset="0.77" stop-color="#868686"/>
<stop offset="0.89" stop-color="#949494"/>
<stop offset="1" stop-color="#999999"/>
</linearGradient>
<linearGradient id="paint1_linear_1607_1885" x1="76.4453" y1="210.803" x2="74.7604" y2="213.617" gradientUnits="userSpaceOnUse">
<stop stop-color="#4D4D4D"/>
<stop offset="0.57" stop-color="#B3A900"/>
<stop offset="0.67" stop-color="#B8B908"/>
<stop offset="1" stop-color="#CDF425"/>
</linearGradient>
<linearGradient id="paint2_linear_1607_1885" x1="76.4456" y1="210.803" x2="74.7607" y2="213.617" gradientUnits="userSpaceOnUse">
<stop offset="0.49" stop-color="#4D4D4D"/>
<stop offset="1" stop-color="#808080"/>
</linearGradient>
<linearGradient id="paint3_linear_1607_1885" x1="73.5965" y1="197.477" x2="61.8358" y2="192.767" gradientUnits="userSpaceOnUse">
<stop stop-color="#4D4D4D"/>
<stop offset="0.57" stop-color="#B3A900"/>
<stop offset="0.67" stop-color="#B8B908"/>
<stop offset="1" stop-color="#CDF425"/>
</linearGradient>
<linearGradient id="paint4_linear_1607_1885" x1="90.5624" y1="207.938" x2="98.4591" y2="216.163" gradientUnits="userSpaceOnUse">
<stop stop-color="#4D4D4D"/>
<stop offset="0.57" stop-color="#B3A900"/>
<stop offset="0.67" stop-color="#B8B908"/>
<stop offset="1" stop-color="#CDF425"/>
</linearGradient>
<linearGradient id="paint5_linear_1607_1885" x1="100.12" y1="147.551" x2="126.64" y2="163.429" gradientUnits="userSpaceOnUse">
<stop stop-color="#4D4D4D"/>
<stop offset="0.49" stop-color="#999999"/>
<stop offset="0.58" stop-color="#9A9B95"/>
<stop offset="0.67" stop-color="#9FA48A"/>
<stop offset="0.75" stop-color="#A7B278"/>
<stop offset="0.84" stop-color="#B3C65E"/>
<stop offset="0.91" stop-color="#C1E03D"/>
<stop offset="0.96" stop-color="#CDF425"/>
</linearGradient>
<linearGradient id="paint6_linear_1607_1885" x1="66.8395" y1="226.847" x2="80.2931" y2="204.377" gradientUnits="userSpaceOnUse">
<stop offset="0.49" stop-color="#4D4D4D"/>
<stop offset="1" stop-color="#808080"/>
</linearGradient>
<linearGradient id="paint7_linear_1607_1885" x1="16.3969" y1="178.042" x2="12.0511" y2="185.3" gradientUnits="userSpaceOnUse">
<stop offset="0.49" stop-color="#4D4D4D"/>
<stop offset="0.5" stop-color="#4E4E4E"/>
<stop offset="0.64" stop-color="#6F6F6F"/>
<stop offset="0.77" stop-color="#868686"/>
<stop offset="0.89" stop-color="#949494"/>
<stop offset="1" stop-color="#999999"/>
</linearGradient>
<linearGradient id="paint8_linear_1607_1885" x1="17.7173" y1="175.837" x2="16.0324" y2="178.651" gradientUnits="userSpaceOnUse">
<stop stop-color="#4D4D4D"/>
<stop offset="0.57" stop-color="#B3A900"/>
<stop offset="0.67" stop-color="#B8B908"/>
<stop offset="1" stop-color="#CDF425"/>
</linearGradient>
<linearGradient id="paint9_linear_1607_1885" x1="17.7172" y1="175.837" x2="16.0323" y2="178.651" gradientUnits="userSpaceOnUse">
<stop offset="0.49" stop-color="#4D4D4D"/>
<stop offset="1" stop-color="#808080"/>
</linearGradient>
<linearGradient id="paint10_linear_1607_1885" x1="30.8093" y1="172.055" x2="40.5066" y2="180.192" gradientUnits="userSpaceOnUse">
<stop stop-color="#4D4D4D"/>
<stop offset="0.57" stop-color="#B3A900"/>
<stop offset="0.67" stop-color="#B8B908"/>
<stop offset="1" stop-color="#CDF425"/>
</linearGradient>
<linearGradient id="paint11_linear_1607_1885" x1="13.5677" y1="162.035" x2="2.58887" y2="158.958" gradientUnits="userSpaceOnUse">
<stop stop-color="#4D4D4D"/>
<stop offset="0.57" stop-color="#B3A900"/>
<stop offset="0.67" stop-color="#B8B908"/>
<stop offset="1" stop-color="#CDF425"/>
</linearGradient>
<linearGradient id="paint12_linear_1607_1885" x1="62.2832" y1="125.093" x2="35.7718" y2="109.22" gradientUnits="userSpaceOnUse">
<stop stop-color="#4D4D4D"/>
<stop offset="0.49" stop-color="#999999"/>
<stop offset="0.58" stop-color="#9A9B95"/>
<stop offset="0.67" stop-color="#9FA48A"/>
<stop offset="0.75" stop-color="#A7B278"/>
<stop offset="0.84" stop-color="#B3C65E"/>
<stop offset="0.91" stop-color="#C1E03D"/>
<stop offset="0.96" stop-color="#CDF425"/>
</linearGradient>
<linearGradient id="paint13_linear_1607_1885" x1="8.11109" y1="191.881" x2="21.5646" y2="169.41" gradientUnits="userSpaceOnUse">
<stop offset="0.49" stop-color="#4D4D4D"/>
<stop offset="1" stop-color="#808080"/>
</linearGradient>
<linearGradient id="paint14_linear_1607_1885" x1="100.62" y1="146.755" x2="138.226" y2="181.707" gradientUnits="userSpaceOnUse">
<stop stop-color="#4D4D4D"/>
<stop offset="0.57" stop-color="#B3A900"/>
<stop offset="0.67" stop-color="#B8B908"/>
<stop offset="1" stop-color="#CDF425"/>
</linearGradient>
<linearGradient id="paint15_linear_1607_1885" x1="62.749" y1="124.276" x2="14.189" y2="107.638" gradientUnits="userSpaceOnUse">
<stop stop-color="#4D4D4D"/>
<stop offset="0.57" stop-color="#B3A900"/>
<stop offset="0.67" stop-color="#B8B908"/>
<stop offset="1" stop-color="#CDF425"/>
</linearGradient>
<linearGradient id="paint16_linear_1607_1885" x1="55.9895" y1="178.45" x2="44.9812" y2="196.837" gradientUnits="userSpaceOnUse">
<stop offset="0.49" stop-color="#4D4D4D"/>
<stop offset="0.5" stop-color="#4E4E4E"/>
<stop offset="0.64" stop-color="#6F6F6F"/>
<stop offset="0.77" stop-color="#868686"/>
<stop offset="0.89" stop-color="#949494"/>
<stop offset="1" stop-color="#999999"/>
</linearGradient>
<linearGradient id="paint17_linear_1607_1885" x1="59.3236" y1="172.882" x2="55.0548" y2="180.012" gradientUnits="userSpaceOnUse">
<stop stop-color="#4D4D4D"/>
<stop offset="0.57" stop-color="#B3A900"/>
<stop offset="0.67" stop-color="#B8B908"/>
<stop offset="1" stop-color="#CDF425"/>
</linearGradient>
<linearGradient id="paint18_linear_1607_1885" x1="59.3232" y1="172.882" x2="55.0545" y2="180.012" gradientUnits="userSpaceOnUse">
<stop stop-color="#4D4D4D"/>
<stop offset="0.57" stop-color="#B3A900"/>
<stop offset="0.67" stop-color="#B8B908"/>
<stop offset="1" stop-color="#CDF425"/>
</linearGradient>
<linearGradient id="paint19_linear_1607_1885" x1="136.387" y1="102.434" x2="85.0202" y2="71.679" gradientUnits="userSpaceOnUse">
<stop offset="0.04" stop-color="#CDF425"/>
<stop offset="0.06" stop-color="#C1E03D"/>
<stop offset="0.09" stop-color="#B3C65E"/>
<stop offset="0.13" stop-color="#A7B278"/>
<stop offset="0.16" stop-color="#9FA48A"/>
<stop offset="0.2" stop-color="#9A9B95"/>
<stop offset="0.24" stop-color="#999999"/>
<stop offset="0.57" stop-color="#808080"/>
<stop offset="0.65" stop-color="#8A8F73"/>
<stop offset="0.81" stop-color="#A5B953"/>
<stop offset="1" stop-color="#CDF425"/>
</linearGradient>
<linearGradient id="paint20_linear_1607_1885" x1="143.478" y1="32.3851" x2="153.27" y2="15.6017" gradientUnits="userSpaceOnUse">
<stop stop-color="#4D4D4D"/>
<stop offset="0.57" stop-color="#B3A900"/>
<stop offset="0.67" stop-color="#B8B908"/>
<stop offset="1" stop-color="#CDF425"/>
</linearGradient>
</defs>
</svg>
