<svg width="320" height="243" viewBox="0 0 320 243" fill="none" xmlns="http://www.w3.org/2000/svg">
<g clip-path="url(#clip0_1639_2782)">
<path d="M228.56 3.90015L145.43 11.2001L173.88 14.3901L133.89 46.6901L188.69 62.3501L228.56 3.90015Z" fill="url(#paint0_linear_1639_2782)"/>
<path d="M194.87 67.7001L228.56 3.90015L188.69 62.3501L194.87 67.7001Z" fill="#323232"/>
<path d="M187.77 61.63C187.67 61.61 187.57 61.56 187.46 61.53C187.56 61.56 187.67 61.6 187.78 61.63H187.77Z" fill="url(#paint1_linear_1639_2782)"/>
<path d="M0 40.54C2.12 47.58 17.2 61.97 38.01 78.5C66.85 101.41 106.7 128.43 138.28 145.72C131.4 141.3 124.94 136.19 119.68 129.95C116.08 125.68 113.07 120.87 110.98 115.68C109.92 113.05 109.21 110.36 108.57 107.6C108.04 105.29 108.41 102.93 107.17 100.8C106.18 99.1 104.67 97.75 103.19 96.44C93.2 87.61 83.23 78.78 73.25 69.95C66.95 64.39 60.65 58.81 54.36 53.24C65.89 59.64 77.61 65.5 89.52 71.03C97.76 74.87 106.1 78.55 114.5 82.16C116.61 83.06 118.86 83.65 121.08 83.67C123.09 83.68 125.08 83.24 126.92 82.15C131.64 79.34 136.38 76.62 141.33 74.21C145.84 72.02 150.45 70.06 155.11 68.33C162.1 65.72 169.25 63.6 176.54 61.87C179.73 61.12 183.05 60.63 186.26 61.22C186.65 61.29 187.03 61.39 187.41 61.51C152.19 50.19 112.9 40.76 66.78 34.12C61.46 33.36 56.05 32.63 50.54 31.94C42.34 30.92 33.98 32.21 26.61 35.91L26.48 35.97C22.11 36.28 17.8 36.77 13.56 37.46C8.94 38.21 4.42 39.22 0.02 40.54H0Z" fill="url(#paint2_linear_1639_2782)"/>
<path d="M141.31 74.2201C145.82 72.0301 150.43 70.0701 155.09 68.3401C144.99 63.9901 134.39 60.2901 123.62 61.6901C114.21 62.9001 105.7 67.9101 96.45 70.0001C94.15 70.5201 91.83 70.8601 89.52 71.0301C97.76 74.8701 106.1 78.5501 114.5 82.1601C116.61 83.0601 118.86 83.6501 121.08 83.6701C123.09 83.6801 125.08 83.2401 126.92 82.1501C131.64 79.3401 136.38 76.6201 141.33 74.2101L141.31 74.2201Z" fill="url(#paint3_linear_1639_2782)"/>
<path d="M0 40.54C2.12 47.58 17.2 61.97 38.01 78.5C66.85 101.41 106.7 128.43 138.28 145.72C131.4 141.3 124.94 136.19 119.68 129.95C116.08 125.68 113.07 120.87 110.98 115.68C109.92 113.05 109.21 110.36 108.57 107.6C108.04 105.29 108.41 102.93 107.17 100.8C106.18 99.1 104.67 97.75 103.19 96.44C93.2 87.61 83.23 78.78 73.25 69.95C63.78 68.18 54.41 64.7 45.39 61.27C39.07 58.87 32.85 56.19 26.83 53.12C22.37 50.87 14.7 48.66 13.12 43.39C12.54 41.46 12.71 39.31 13.54 37.46C8.92 38.21 4.4 39.21 0 40.53L0 40.54Z" fill="url(#paint4_linear_1639_2782)"/>
<g style="mix-blend-mode:multiply">
<path d="M73.8801 101.85C90.3102 114.61 108.27 125.25 126.16 135.85C120.63 125.88 115.1 115.91 109.57 105.94C108.11 103.31 106.63 100.65 104.6 98.4199C101.97 95.5199 98.5402 93.4799 95.1402 91.5199C87.2002 86.9399 79.1701 82.5299 71.1301 78.1199C64.7501 74.6199 58.3702 71.1199 51.9902 67.6199C48.8502 65.8999 45.7202 64.1799 42.5802 62.4599C39.7002 60.8799 36.3602 58.2999 33.2302 57.4499C32.8202 57.3399 33.7102 59.2399 33.6902 59.1999C34.2002 60.2299 34.9802 61.1999 35.6202 62.1599C36.8702 64.0199 38.1602 65.8399 39.4902 67.6399C46.4702 77.0199 54.6202 85.4999 63.3902 93.2199C66.7902 96.2099 70.2902 99.0799 73.8602 101.86L73.8801 101.85Z" fill="#B9B9B9"/>
</g>
<path d="M31.0601 56.0301C40.5701 62.5301 49.7401 68.5401 58.6401 74.1001C75.7501 84.7901 91.8601 93.8301 107.53 101.49L110.34 99.7301L54.3601 53.2301C53.1801 53.2201 52.0001 53.2301 50.8301 53.2601C44.0701 53.4401 37.4901 54.4301 31.0701 56.0201L31.0601 56.0301Z" fill="url(#paint5_linear_1639_2782)"/>
<g style="mix-blend-mode:multiply">
<path d="M54.1099 40.0701C61.2399 42.3601 68.5999 44.8801 75.7099 47.3101C82.8299 49.7401 90.1799 52.2601 97.3199 54.5501L97.4199 54.5801L97.5099 54.5201C101.38 52.0101 106.01 49.1001 111.08 46.6101C130.91 51.3301 151.98 56.5301 172.47 63.6001L172.61 63.1901C152.07 56.1001 130.96 50.9001 111.1 46.1701L111.02 46.1501L110.95 46.1801C105.87 48.6701 101.23 51.5701 97.3499 54.0901C90.2499 51.8001 82.9299 49.3001 75.8499 46.8801C68.7299 44.4501 61.3799 41.9301 54.2399 39.6401L54.1099 40.0601V40.0701Z" fill="#D7D7D7"/>
</g>
<g style="mix-blend-mode:multiply">
<path d="M73.4101 46.51C74.0301 46.06 74.6301 45.57 75.2001 45.08C75.7501 44.62 76.3201 44.15 76.8901 43.73C81.0001 44.6 84.6701 46.18 88.0701 47.75L85.5701 50.22L85.8801 50.53L88.8301 47.62L88.5401 47.49C85.0101 45.85 81.1901 44.18 76.8801 43.28L76.7901 43.26L76.7101 43.32C76.0901 43.77 75.4901 44.26 74.9101 44.74C74.3401 45.22 73.7401 45.71 73.1401 46.15L73.4001 46.5L73.4101 46.51Z" fill="#D7D7D7"/>
</g>
<g style="mix-blend-mode:multiply">
<path d="M28.23 40.39L28.51 40.47C30.26 40.95 32.28 41.69 34.23 42.4C35.13 42.73 36.01 43.05 36.82 43.33L36.98 43.38L37.08 43.25C38.86 40.72 40.4 40.16 42.95 39.23L43.38 39.07L43.23 38.66L42.8 38.82C40.22 39.77 38.64 40.35 36.82 42.87C36.05 42.6 35.23 42.3 34.39 42C32.54 41.32 30.63 40.63 28.93 40.14C29.94 38.73 31.6 37.92 34 37.67L33.95 37.23C31.28 37.51 29.46 38.46 28.39 40.15L28.23 40.4V40.39Z" fill="#D7D7D7"/>
</g>
<path d="M26.4602 35.97C35.5002 38.09 41.7602 39.19 51.8802 42.34C56.4202 37.85 60.6202 35.9 66.7502 34.11C61.4302 33.35 56.0202 32.62 50.5102 31.93C42.3202 30.91 33.9602 32.2 26.5802 35.9L26.4502 35.96L26.4602 35.97Z" fill="#353535"/>
<path style="mix-blend-mode:screen" d="M28.46 35.9701C31.61 36.4301 34.48 37.0201 37.51 38.0001C41.51 35.3401 45.59 33.8001 50.24 32.6001C42.26 31.4201 34.34 33.2901 28.46 35.9701Z" fill="url(#paint6_linear_1639_2782)"/>
<g style="mix-blend-mode:multiply">
<path d="M94.7998 74.4099C112.73 74.5899 130.45 64.9799 140.57 50.1799C152.39 53.2899 164.21 56.3999 176.04 59.5099C178.58 60.1799 181.09 61.5599 183.69 61.9499C162.66 66.2199 143.21 75.1099 125.67 87.4699C123.74 88.8299 121.62 90.2999 119.26 90.1499C117.83 90.0599 116.51 89.3599 115.25 88.6799C107.97 84.7099 101.68 79.0499 94.7998 74.4099Z" fill="#B9B9B9"/>
</g>
<g style="mix-blend-mode:multiply">
<path d="M37.0598 54.92L54.8198 63.79C58.6298 66.78 65.3798 73.23 65.4398 73.29L65.4698 73.32L65.5098 73.34C65.6298 73.39 77.9498 77.84 84.2598 79.45L84.3698 79.03C78.2698 77.48 66.5198 73.24 65.7098 72.95C65.1898 72.45 58.7998 66.36 55.0498 63.43L37.2498 54.53L37.0498 54.92H37.0598Z" fill="#D7D7D7"/>
</g>
<g style="mix-blend-mode:multiply">
<path d="M50.1899 53.5801C51.2999 56.1201 52.4099 58.6601 53.5199 61.2001C55.2699 65.1901 57.7999 69.4401 58.5499 73.7201C58.5699 73.8501 58.5999 73.9801 58.6399 74.1001C75.7499 84.7901 91.8599 93.8301 107.53 101.49L110.34 99.7301L54.3599 53.2301C53.1799 53.2201 51.9999 53.2301 50.8299 53.2601C50.6099 53.3501 50.3999 53.4501 50.1899 53.5701V53.5801Z" fill="#B9B9B9"/>
</g>
<path d="M182.38 145.13L219.67 162.24L188.53 132.59L182.38 145.13Z" fill="#323232"/>
<path d="M121.07 83.67C123.08 83.69 125.07 83.24 126.91 82.15C131.63 79.33 136.37 76.63 141.32 74.22C152.6 68.73 164.36 64.76 176.53 61.87C179.71 61.12 183.03 60.62 186.25 61.22C192.71 62.43 196.37 68.97 197.91 74.9C199.34 80.39 199.16 86.16 198.61 91.8C197.51 102.99 194.9 114.01 191.29 124.65C188.25 133.62 185.07 143.96 177.75 150.45C173.99 153.79 169.26 155.64 164.23 155.79C157.02 156 150.18 152.73 143.93 149.13C134.95 143.96 126.37 137.86 119.69 129.94C116.08 125.67 113.08 120.86 110.99 115.67C109.93 113.04 109.22 110.34 108.59 107.58C108.06 105.27 108.44 102.91 107.19 100.78C106.19 99.07 104.69 97.73 103.21 96.43C86.9301 82.03 70.6501 67.63 54.3701 53.24C73.8801 64.07 94.0001 73.35 114.5 82.16C116.6 83.06 118.85 83.65 121.08 83.67H121.07Z" fill="#323232"/>
<path d="M172.13 128.84C171.2 129.96 170.48 131.06 169.91 132.14C169.77 132.4 169.64 132.65 169.52 132.91C168.23 135.63 167.92 138.1 167.93 139.93C167.93 140.52 167.98 141.03 168.03 141.46C168.15 142.49 168.34 143.09 168.34 143.09C169.46 145.91 171.92 148.36 174.82 150.69L190.05 126.98C190.05 126.98 182.22 122.76 175.8 125.91C175.34 126.13 174.88 126.4 174.43 126.71C173.62 127.27 172.84 127.97 172.12 128.85L172.13 128.84Z" fill="#4A4A4A"/>
<path d="M174.44 126.7C178.11 126.7 181.81 127.77 184.87 129.78L185.34 129.07C182.54 127.22 179.19 126.13 175.81 125.91C175.35 126.13 174.89 126.4 174.44 126.71V126.7Z" fill="#404040"/>
<path d="M169.91 132.14C169.77 132.4 169.64 132.65 169.52 132.91C172.01 134.32 174.62 135.53 177.31 136.5L177.6 135.7C174.94 134.72 172.36 133.54 169.9 132.14H169.91Z" fill="#404040"/>
<path d="M167.93 139.93C167.93 140.52 167.98 141.03 168.03 141.46C168.53 142.08 169.06 142.65 169.62 143.19C171.13 144.63 172.88 145.84 174.77 146.72L175.13 145.94C172.27 144.61 169.76 142.5 167.92 139.93H167.93Z" fill="#404040"/>
<path d="M194.45 133.21C194.34 130.16 192.96 127.62 189.31 126.76C185.35 125.83 181.38 128.64 178.75 131.29C174.46 135.61 168.77 150.84 178.56 152.61C182.88 153.39 186.75 149.89 189.34 146.79C191.64 144.04 194.62 138 194.45 133.2V133.21Z" fill="#404040"/>
<path d="M179.24 132.09C176.95 134.38 174.23 140.08 174.16 144.71C174.1 147.98 175.37 150.72 179.03 151.37C180.43 151.62 181.77 151.37 183.03 150.83C183.49 150.63 183.94 150.4 184.37 150.12C186.08 149.07 187.59 147.54 188.79 146.09C189.25 145.53 189.74 144.85 190.22 144.04C190.47 143.65 190.71 143.22 190.94 142.76C192.36 140.08 193.54 136.68 193.44 133.79C193.44 133.78 193.44 133.75 193.44 133.74C193.42 133.19 193.36 132.65 193.23 132.15C192.75 130.14 191.43 128.57 188.8 127.95C187.79 127.72 186.79 127.75 185.8 127.98C183.29 128.54 180.96 130.35 179.24 132.07V132.09Z" fill="#6E6E6E"/>
<path d="M186.63 130.79L186.44 132.23C188.8 132.52 191.15 133.04 193.43 133.74C193.41 133.19 193.35 132.65 193.22 132.15C191.07 131.53 188.86 131.07 186.63 130.78V130.79Z" fill="#8A8A8A"/>
<path d="M183.13 138.84L182.68 140.22C185.39 141.09 187.92 142.37 190.21 144.03C190.46 143.64 190.7 143.21 190.93 142.75C188.54 141.05 185.92 139.73 183.12 138.83L183.13 138.84Z" fill="#8A8A8A"/>
<path d="M177.62 143.42C179.07 146.14 180.9 148.63 183.03 150.83C183.49 150.63 183.94 150.4 184.37 150.12C182.2 147.93 180.35 145.45 178.89 142.73L177.62 143.42Z" fill="#8A8A8A"/>
<path d="M179.24 132.09C177.17 134.16 174.75 139.03 174.25 143.38C174.2 143.83 174.16 144.28 174.16 144.71C175.01 144.9 175.88 144.94 176.75 144.84C177.44 144.76 178.13 144.6 178.79 144.36C180.51 143.73 182.01 142.61 183.26 141.27C184.68 139.74 185.78 137.91 186.44 135.93C187.05 134.11 187.63 131.54 186.88 129.7C186.62 129.08 186.27 128.5 185.81 128C184.93 128.2 184.07 128.55 183.25 129C181.74 129.81 180.36 130.97 179.25 132.09H179.24Z" fill="#B6B6B6"/>
<path d="M179.24 132.09C177.17 134.16 174.75 139.03 174.25 143.38C176.11 143.85 178.97 142.68 180.47 141.05C181.15 140.31 181.56 139.49 181.47 138.68C181.39 137.95 180.91 137.27 180.25 136.95C181.3 135.22 183.83 131.54 183.24 129.01C181.73 129.82 180.35 130.98 179.24 132.1V132.09Z" fill="#D4D4D4"/>
<path d="M147.36 86.1C147.08 86.47 146.8 86.85 146.54 87.22C143.75 91.16 141.63 95.58 140.42 100.08C140.31 100.45 140.21 100.84 140.13 101.22C139.84 102.42 139.62 103.63 139.47 104.84C139.47 104.86 139.47 104.88 139.46 104.9C139.12 107.67 139.13 110.47 139.5 113.2C139.58 113.8 139.68 114.39 139.79 114.97C140.45 118.47 141.73 121.83 143.61 124.91C143.61 124.91 143.613 124.913 143.62 124.92C143.85 125.3 144.08 125.67 144.33 126.04C144.49 126.27 144.65 126.5 144.81 126.72C145.07 127.08 145.36 127.44 145.68 127.79C145.68 127.79 145.683 127.793 145.69 127.8C150.62 133.34 161.74 138.41 161.74 138.41C161.74 138.41 193.24 78.55 193.25 78.53C193.31 78.41 187.9 76.13 187.59 76.01C183.13 74.31 178.19 72.9 173.41 72.61C168.22 72.29 163.3 73.58 158.88 75.99C158.07 76.42 157.28 76.9 156.5 77.41C153.03 79.7 149.93 82.69 147.35 86.08L147.36 86.1Z" fill="#4A4A4A"/>
<path d="M156.51 77.43C165.09 76.12 174.09 77.32 182.02 80.84L182.48 79.81C175.14 76.54 166.91 75.22 158.89 76C158.08 76.43 157.29 76.91 156.51 77.42V77.43Z" fill="#404040"/>
<path d="M147.36 86.1001C147.08 86.4701 146.8 86.8501 146.54 87.2201C152.64 87.2401 158.73 88.5001 164.33 90.9101L164.78 89.8701C159.3 87.5001 153.34 86.2101 147.36 86.0901V86.1001Z" fill="#404040"/>
<path d="M140.42 100.09C140.31 100.46 140.21 100.85 140.13 101.23C145.03 104.16 150.36 106.25 155.97 107.46L156.21 106.36C150.62 105.16 145.31 103.05 140.43 100.09H140.42Z" fill="#404040"/>
<path d="M139.49 113.2C139.57 113.8 139.67 114.39 139.78 114.97C140.2 115.34 140.64 115.7 141.07 116.04C144.89 119.08 149.27 121.36 153.99 122.74L154.31 121.65C148.75 120.03 143.69 117.13 139.48 113.19L139.49 113.2Z" fill="#404040"/>
<path d="M159 132.84C153.47 131.2 148.17 128.48 143.61 124.92C143.84 125.3 144.07 125.67 144.32 126.04C144.48 126.27 144.64 126.5 144.8 126.72C145.06 127.08 145.35 127.44 145.67 127.79C145.67 127.8 145.68 127.8 145.68 127.8C149.67 130.47 154.08 132.55 158.65 133.9L158.98 132.82L159 132.84Z" fill="#404040"/>
<path d="M157.13 99.4601C154.07 106.01 152.34 114.46 153.32 122.23C154.11 128.52 156.68 134.37 161.75 138.43C170.27 145.25 180.52 139.25 186.77 132.43C192.03 126.7 196.27 119.17 198.69 111.13C202.17 99.5301 203.86 77.2601 186.54 76.9701C182.81 76.9001 179.18 78.0301 175.84 79.7301C174.69 80.3201 173.57 80.9901 172.49 81.6901C165.86 86.0501 160.48 92.2801 157.13 99.4601Z" fill="#404040"/>
<path d="M159.23 100.86C156.01 107.43 154.06 115.87 154.96 123.37C155.47 127.56 156.87 131.46 159.44 134.56C160.16 135.44 160.99 136.25 161.91 136.98C162.08 137.11 162.25 137.25 162.43 137.37C163.32 138.02 164.25 138.51 165.2 138.83L165.21 138.84C170.14 140.6 175.55 138.39 180.11 134.9C180.53 134.59 180.94 134.26 181.34 133.92C182.66 132.82 183.89 131.61 185 130.39C187.83 127.26 190.39 123.61 192.55 119.67C192.79 119.22 193.03 118.76 193.26 118.3C194.62 115.66 195.79 112.89 196.73 110.08C197.38 108.13 198 105.85 198.47 103.45C198.57 102.95 198.66 102.44 198.75 101.93C199.56 97.11 199.78 91.9 198.66 87.64C198.52 87.08 198.34 86.53 198.15 86C196.65 81.99 193.69 79.11 188.53 78.76C188.04 78.73 187.53 78.71 186.99 78.73C183.97 78.81 180.98 79.75 178.16 81.18C176.71 81.91 175.3 82.76 173.96 83.69C167.74 88.02 162.58 94.03 159.23 100.86Z" fill="#6E6E6E"/>
<path d="M180.59 87.37L181.06 88.83C186.67 87.05 192.82 86.64 198.65 87.65C198.51 87.09 198.33 86.54 198.14 86.01C192.28 85.09 186.27 85.56 180.59 87.37Z" fill="#8A8A8A"/>
<path d="M181.39 98.5601L181.28 100.1C187.12 100.54 192.9 101.67 198.47 103.46C198.57 102.96 198.66 102.45 198.75 101.94C193.12 100.14 187.3 99.0101 181.4 98.5601H181.39Z" fill="#8A8A8A"/>
<path d="M175.05 110.65L174.38 112.03C180.27 114.89 186.37 117.46 192.55 119.68C192.79 119.23 193.03 118.77 193.26 118.31C187.07 116.08 180.95 113.51 175.05 110.65Z" fill="#8A8A8A"/>
<path d="M167.26 120.33C170.85 125.76 175.18 130.67 180.12 134.91C180.54 134.6 180.95 134.27 181.35 133.93C176.42 129.73 172.11 124.88 168.54 119.47L167.26 120.32V120.33Z" fill="#8A8A8A"/>
<path d="M159.34 122.07C158.7 127.37 159.81 132.77 162.43 137.38C163.32 138.03 164.25 138.52 165.2 138.84C161.78 134.13 160.17 128.02 160.87 122.24L159.34 122.07Z" fill="#8A8A8A"/>
<path d="M159.23 100.86C156.7 106 154.97 112.3 154.76 118.39C154.7 120.08 154.76 121.74 154.96 123.37C157.19 124.65 159.88 125.17 162.76 124.61C165.6 124.05 168.18 122.53 170.46 120.74C178.05 114.77 182.87 105.42 183.35 95.7699C183.54 91.8499 183 87.7799 180.98 84.4199C180.23 83.1899 179.27 82.0799 178.16 81.1799C176.97 81.7799 175.8 82.4599 174.7 83.1999C174.45 83.3599 174.2 83.5199 173.96 83.6899C167.74 88.0199 162.58 94.0299 159.23 100.86Z" fill="#B6B6B6"/>
<path d="M159.23 100.86C156.7 106 154.97 112.3 154.76 118.39C155.12 118.79 155.54 119.12 156.05 119.34C157.65 120.07 159.6 119.55 161 118.5C162.26 117.56 162.98 116.29 163.94 115.09C164.89 113.92 165.22 114.66 166.5 114.17C166.2 115.15 165.78 116.11 165.42 117.07C165.24 117.54 165.06 118.07 165.28 118.52C165.65 119.28 166.77 119.17 167.55 118.85C171.29 117.31 173.97 113.46 174.09 109.41C174.11 108.82 173.99 108.09 173.44 107.88C172.8 107.62 172.17 108.26 171.77 108.83C172.55 107.53 173.34 106.26 173.93 104.87C174.31 103.98 175.47 101.64 175.15 100.69C175.4 101.45 175.75 102.31 176.52 102.55C177.45 102.85 178.36 102.06 178.92 101.27C181.19 98.13 181.92 94.25 181.06 90.51C180.95 90.01 180.8 89.5 180.46 89.12C179.69 88.22 178.16 88.37 177.23 89.11C176.3 89.85 175.83 91.01 175.41 92.12C175.25 90.24 175.85 88.58 175.79 86.69C175.76 85.46 175.42 84.16 174.7 83.2C174.45 83.36 174.2 83.52 173.96 83.69C167.74 88.02 162.58 94.03 159.23 100.86Z" fill="#D4D4D4"/>
<path d="M121.13 97.98C120.26 99.24 119.61 100.48 119.11 101.67C118.99 101.95 118.88 102.24 118.78 102.51C117.69 105.5 117.6 108.13 117.78 110.04C117.84 110.66 117.94 111.19 118.03 111.64C118.25 112.71 118.52 113.32 118.52 113.32C119.97 116.18 122.8 118.52 126.07 120.69L139.8 94.27C139.8 94.27 131.15 90.59 124.71 94.52C124.25 94.8 123.79 95.13 123.35 95.49C122.55 96.16 121.8 96.97 121.13 97.96V97.98Z" fill="#4A4A4A"/>
<path d="M123.35 95.5001C127.21 95.1301 131.21 95.9101 134.62 97.7301L135.04 96.9301C131.91 95.2501 128.29 94.4301 124.71 94.5201C124.25 94.8001 123.79 95.1301 123.35 95.4901V95.5001Z" fill="#404040"/>
<path d="M119.11 101.66C118.99 101.94 118.88 102.23 118.78 102.5C121.54 103.74 124.4 104.76 127.33 105.52L127.56 104.65C124.67 103.88 121.84 102.88 119.12 101.65L119.11 101.66Z" fill="#404040"/>
<path d="M117.78 110.04C117.84 110.66 117.94 111.19 118.03 111.64C118.61 112.24 119.23 112.79 119.87 113.3C121.6 114.67 123.55 115.77 125.63 116.52L125.94 115.67C122.81 114.54 119.96 112.57 117.78 110.04Z" fill="#404040"/>
<path d="M145.03 100.41C144.62 97.2202 142.92 94.6802 139 94.1202C134.75 93.5202 130.84 96.8702 128.33 99.9002C124.23 104.86 119.72 121.43 130.19 122.35C134.81 122.76 138.54 118.7 140.96 115.19C143.11 112.08 145.67 105.43 145.03 100.4V100.41Z" fill="#404040"/>
<path d="M128.92 100.7C126.74 103.33 124.42 109.59 124.8 114.47C125.05 117.92 126.65 120.67 130.56 121.01C132.05 121.13 133.45 120.75 134.72 120.05C135.19 119.8 135.64 119.51 136.06 119.18C137.76 117.91 139.19 116.15 140.32 114.52C140.75 113.89 141.2 113.12 141.63 112.22C141.85 111.78 142.07 111.31 142.27 110.81C143.51 107.86 144.42 104.17 144.03 101.13C144.03 101.12 144.03 101.09 144.03 101.08C143.96 100.5 143.84 99.9399 143.65 99.4299C142.95 97.3599 141.41 95.8399 138.58 95.4399C137.49 95.2899 136.44 95.4299 135.42 95.7599C132.84 96.5999 130.55 98.7199 128.92 100.7Z" fill="#6E6E6E"/>
<path d="M136.57 98.6301L136.51 100.17C139.02 100.25 141.54 100.56 144.01 101.08C143.94 100.5 143.82 99.9401 143.63 99.4301C141.31 98.9801 138.93 98.7101 136.56 98.6301H136.57Z" fill="#8A8A8A"/>
<path d="M133.67 107.43L133.33 108.93C136.26 109.58 139.05 110.69 141.62 112.21C141.84 111.77 142.06 111.3 142.26 110.8C139.58 109.24 136.69 108.11 133.67 107.43Z" fill="#8A8A8A"/>
<path d="M128.31 112.78C130.1 115.5 132.26 117.94 134.72 120.05C135.19 119.8 135.64 119.51 136.06 119.18C133.56 117.09 131.38 114.66 129.59 111.94L128.32 112.79L128.31 112.78Z" fill="#8A8A8A"/>
<path d="M128.92 100.7C126.95 103.08 124.86 108.44 124.76 113.06C124.76 113.54 124.76 114.01 124.79 114.47C125.7 114.59 126.63 114.54 127.52 114.36C128.24 114.21 128.95 113.97 129.61 113.66C131.36 112.83 132.83 111.51 134.01 109.98C135.36 108.24 136.33 106.2 136.84 104.05C137.31 102.08 137.67 99.32 136.7 97.46C136.36 96.84 135.94 96.25 135.41 95.77C134.5 96.07 133.64 96.52 132.82 97.07C131.31 98.07 129.97 99.42 128.91 100.71L128.92 100.7Z" fill="#B6B6B6"/>
<path d="M128.92 100.7C126.95 103.08 124.86 108.44 124.76 113.06C126.76 113.38 129.66 111.87 131.08 110.01C131.72 109.17 132.08 108.26 131.9 107.42C131.74 106.66 131.18 105.99 130.45 105.71C131.39 103.79 133.7 99.6701 132.82 97.0701C131.31 98.0701 129.97 99.4201 128.91 100.71L128.92 100.7Z" fill="#D4D4D4"/>
<g style="mix-blend-mode:multiply">
<path d="M145.58 37.46L179.56 39.21L179.63 39.13C189.09 27.86 207.13 6.41003 207.68 5.92003L207.55 5.77003L207.53 5.53003C207.41 5.54003 207.24 5.56003 179.37 38.77L145.61 37.03L145.59 37.47L145.58 37.46Z" fill="#D7D7D7"/>
</g>
<g style="mix-blend-mode:multiply">
<path d="M156.59 46.4099L186.03 50.1999L180.13 59.1599L180.5 59.3999L186.78 49.8499L157.23 46.0499L160.71 38.0999L160.31 37.9199L156.59 46.4099Z" fill="#D7D7D7"/>
</g>
<g style="mix-blend-mode:multiply">
<path d="M225.93 5.90015L196.78 8.81015C186.61 25.6001 170.55 38.6601 151.24 49.6801L188.37 59.3901L225.92 5.90015H225.93Z" fill="#B9B9B9"/>
</g>
<path d="M13.54 37.4699C17.78 36.7699 22.08 36.2899 26.46 35.9799L26.59 35.9199C27.02 35.7099 27.45 35.4999 27.89 35.2999C34.94 32.0799 42.8 30.9899 50.52 31.9499C51.66 32.0899 52.77 32.2399 53.9 32.3899C58.24 32.9499 62.53 33.5199 66.76 34.1299C90.95 37.6099 113.25 41.8699 134.08 46.7599L133.89 46.7099L145.59 37.2599V37.0399L145.84 37.0499L172.63 15.4099L175.48 15.7299L147.45 38.3699H147.21L147.2 38.5799L135.5 48.0299L135.69 48.0799C114.86 43.1899 92.56 38.9399 68.37 35.4499C64.15 34.8399 59.85 34.2699 55.51 33.7099C54.38 33.5599 53.26 33.4099 52.13 33.2699C44.41 32.3099 36.55 33.3999 29.5 36.6199C29.06 36.8199 28.63 37.0199 28.2 37.2399L28.07 37.2999C23.7 37.6099 19.39 38.0999 15.15 38.7899C10.53 39.5399 6.01 40.5499 1.61 41.8699C3.42 47.8899 14.7 59.2699 30.93 72.7699C13.83 58.6799 1.87 46.7499 0 40.5399C4.4 39.2199 8.92 38.2199 13.54 37.4699Z" fill="#D2D2D2"/>
<path d="M209.14 7.07015L209.12 6.85015C209.12 6.85015 209.07 6.85015 208.85 7.09015L152.75 12.0201L145.42 11.2001L207.24 5.77015C207.46 5.53015 207.49 5.53015 207.51 5.53015L207.53 5.75015L228.54 3.90015L227.73 5.44015L209.13 7.07015H209.14Z" fill="#D2D2D2"/>
<path d="M192.47 128.62C192.51 128.57 192.54 128.51 192.58 128.45C192.72 128.59 192.86 128.73 192.98 128.88C192.82 128.79 192.65 128.7 192.47 128.62Z" fill="white"/>
<path style="mix-blend-mode:screen" d="M65.6516 0.510958L280.344 218.527L281.342 217.544L66.6491 -0.471356L65.6516 0.510958Z" fill="url(#paint7_linear_1639_2782)"/>
<path style="mix-blend-mode:screen" d="M68.4734 7.45161L283.166 225.467L283.993 224.653L69.2999 6.63769L68.4734 7.45161Z" fill="url(#paint8_linear_1639_2782)"/>
<path d="M31.0598 56.0299C32.9798 55.6099 34.8998 55.2499 36.8398 54.9499C38.7698 54.6399 40.7198 54.4499 42.6598 54.2199C46.5398 53.7499 50.4498 53.5599 54.3598 53.5699L54.1998 53.5299C63.4598 58.4399 72.7698 63.2499 82.1798 67.8699C86.8898 70.1799 91.6198 72.4399 96.3798 74.6199L99.9598 76.2499C101.15 76.7999 102.38 77.2599 103.59 77.7599C106.02 78.7399 108.46 79.6999 110.92 80.6099C108.54 79.5099 106.15 78.4299 103.79 77.2999C102.6 76.7499 101.43 76.1599 100.24 75.6199C99.0398 75.0899 97.8498 74.5499 96.6598 73.9999C91.8998 71.8199 87.1698 69.5599 82.4698 67.2499C73.0698 62.6399 63.7598 57.8299 54.4998 52.9199L54.4298 52.8799H54.3498C50.4198 52.8599 46.4798 53.0799 42.5698 53.5199C40.6198 53.7599 38.6798 54.1399 36.7598 54.5499C34.8398 54.9599 32.9298 55.4499 31.0498 56.0099L31.0598 56.0299Z" fill="#D2D2D2"/>
<path opacity="0.86" d="M191.22 79.09C208.45 88.87 220.52 102.97 230.42 117.03L631.86 227.29L598.08 242.6L228.63 124.16C209.94 134.87 191.18 139.23 167.92 139.93C167.92 139.93 145.66 135.23 158.88 101.59C173.77 74.2 191.22 79.09 191.22 79.09Z" fill="url(#paint9_linear_1639_2782)"/>
<path opacity="0.86" d="M140.43 94.7101C148.32 99.3601 153.95 105.88 158.6 112.37L180.04 122.13L157.89 115.56C149.62 120.14 141.23 121.85 130.76 121.85C130.76 121.85 120.67 119.43 126.17 104.42C132.5 92.2601 140.43 94.7001 140.43 94.7001V94.7101Z" fill="url(#paint10_linear_1639_2782)"/>
<path opacity="0.86" d="M190.67 128.06C198.56 132.71 202.47 136.42 207.12 142.9L209.59 145.18L206.41 146.1C198.14 150.68 189.49 151.38 179.02 151.38C179.02 151.38 172.24 151.38 174.72 140.68C183.47 137.47 187.68 131.42 190.41 127.96C190.58 128.02 190.68 128.07 190.68 128.07L190.67 128.06Z" fill="url(#paint11_linear_1639_2782)"/>
</g>
<defs>
<linearGradient id="paint0_linear_1639_2782" x1="127.932" y1="4.83665" x2="213.114" y2="37.683" gradientUnits="userSpaceOnUse">
<stop stop-color="#4D4D4D"/>
<stop offset="0.12" stop-color="#656565"/>
<stop offset="0.38" stop-color="#A2A2A2"/>
<stop offset="0.56" stop-color="#D2D2D2"/>
<stop offset="0.98" stop-color="#CCCCCC"/>
</linearGradient>
<linearGradient id="paint1_linear_1639_2782" x1="187.799" y1="61.7877" x2="187.556" y2="61.5949" gradientUnits="userSpaceOnUse">
<stop stop-color="#989898"/>
<stop offset="0.09" stop-color="#A4A4A4"/>
<stop offset="0.3" stop-color="#BEBEBE"/>
<stop offset="0.52" stop-color="#D0D0D0"/>
<stop offset="0.74" stop-color="#DBDBDB"/>
<stop offset="1" stop-color="#DFDFDF"/>
</linearGradient>
<linearGradient id="paint2_linear_1639_2782" x1="165.319" y1="111.859" x2="29.3199" y2="3.83573" gradientUnits="userSpaceOnUse">
<stop stop-color="#4D4D4D"/>
<stop offset="0.12" stop-color="#656565"/>
<stop offset="0.38" stop-color="#A2A2A2"/>
<stop offset="0.56" stop-color="#D2D2D2"/>
<stop offset="0.98" stop-color="#CCCCCC"/>
</linearGradient>
<linearGradient id="paint3_linear_1639_2782" x1="28.7678" y1="21.0591" x2="154.924" y2="86.7451" gradientUnits="userSpaceOnUse">
<stop stop-color="#8A8A8A"/>
<stop offset="1" stop-color="#4D4D4D"/>
</linearGradient>
<linearGradient id="paint4_linear_1639_2782" x1="11.4322" y1="33.5588" x2="83.1245" y2="99.9157" gradientUnits="userSpaceOnUse">
<stop offset="0.02" stop-color="#999999"/>
<stop offset="0.47" stop-color="#919191"/>
<stop offset="0.79" stop-color="#656565"/>
<stop offset="1" stop-color="#4D4D4D"/>
</linearGradient>
<linearGradient id="paint5_linear_1639_2782" x1="107.27" y1="74.0535" x2="34.2115" y2="82.7135" gradientUnits="userSpaceOnUse">
<stop stop-color="#8A8A8A"/>
<stop offset="1" stop-color="#4D4D4D"/>
</linearGradient>
<linearGradient id="paint6_linear_1639_2782" x1="47.0648" y1="21.417" x2="37.8319" y2="37.1089" gradientUnits="userSpaceOnUse">
<stop stop-color="#494949"/>
<stop offset="0.3" stop-color="#464646"/>
<stop offset="0.51" stop-color="#3C3C3C"/>
<stop offset="0.7" stop-color="#2D2D2D"/>
<stop offset="0.87" stop-color="#171717"/>
<stop offset="1"/>
</linearGradient>
<linearGradient id="paint7_linear_1639_2782" x1="280.997" y1="218.22" x2="66.3256" y2="0.226223" gradientUnits="userSpaceOnUse">
<stop/>
<stop offset="0.51" stop-color="white"/>
<stop offset="1"/>
</linearGradient>
<linearGradient id="paint8_linear_1639_2782" x1="283.733" y1="225.245" x2="69.0618" y2="7.25108" gradientUnits="userSpaceOnUse">
<stop/>
<stop offset="0.51" stop-color="white"/>
<stop offset="1"/>
</linearGradient>
<linearGradient id="paint9_linear_1639_2782" x1="608.584" y1="115.659" x2="172.03" y2="206.621" gradientUnits="userSpaceOnUse">
<stop offset="0.62" stop-color="#D2D2D2" stop-opacity="0"/>
<stop offset="0.66" stop-color="#D1D2CE" stop-opacity="0.02"/>
<stop offset="0.71" stop-color="#D1D4C4" stop-opacity="0.08"/>
<stop offset="0.76" stop-color="#D1D7B4" stop-opacity="0.17"/>
<stop offset="0.82" stop-color="#D0DC9C" stop-opacity="0.31"/>
<stop offset="0.87" stop-color="#CFE27F" stop-opacity="0.48"/>
<stop offset="0.93" stop-color="#CEE95A" stop-opacity="0.69"/>
<stop offset="0.99" stop-color="#CDF130" stop-opacity="0.93"/>
<stop offset="1" stop-color="#CDF425"/>
</linearGradient>
<linearGradient id="paint10_linear_1639_2782" x1="124.918" y1="107.313" x2="180.903" y2="112.221" gradientUnits="userSpaceOnUse">
<stop stop-color="#CDF425"/>
<stop offset="0.01" stop-color="#CDF130" stop-opacity="0.93"/>
<stop offset="0.07" stop-color="#CEE95A" stop-opacity="0.69"/>
<stop offset="0.13" stop-color="#CFE27F" stop-opacity="0.48"/>
<stop offset="0.18" stop-color="#D0DC9C" stop-opacity="0.31"/>
<stop offset="0.24" stop-color="#D1D7B4" stop-opacity="0.17"/>
<stop offset="0.29" stop-color="#D1D4C4" stop-opacity="0.08"/>
<stop offset="0.34" stop-color="#D1D2CE" stop-opacity="0.02"/>
<stop offset="0.38" stop-color="#D2D2D2" stop-opacity="0"/>
</linearGradient>
<linearGradient id="paint11_linear_1639_2782" x1="174.658" y1="138.797" x2="209.883" y2="141.885" gradientUnits="userSpaceOnUse">
<stop stop-color="#CDF425"/>
<stop offset="0.01" stop-color="#CDF130" stop-opacity="0.93"/>
<stop offset="0.07" stop-color="#CEE95A" stop-opacity="0.69"/>
<stop offset="0.13" stop-color="#CFE27F" stop-opacity="0.48"/>
<stop offset="0.18" stop-color="#D0DC9C" stop-opacity="0.31"/>
<stop offset="0.24" stop-color="#D1D7B4" stop-opacity="0.17"/>
<stop offset="0.29" stop-color="#D1D4C4" stop-opacity="0.08"/>
<stop offset="0.34" stop-color="#D1D2CE" stop-opacity="0.02"/>
<stop offset="0.38" stop-color="#D2D2D2" stop-opacity="0"/>
</linearGradient>
<clipPath id="clip0_1639_2782">
<rect width="320" height="243" fill="white"/>
</clipPath>
</defs>
</svg>
